<mxfile host="app.diagrams.net" modified="2023-03-23T22:39:24.144Z" agent="Mozilla/5.0 (Windows NT 10.0; Win64; x64) AppleWebKit/537.36 (KHTML, like Gecko) Chrome/111.0.0.0 Safari/537.36" etag="tMieNoEZUhnJVlZDB0RE" version="21.1.0" type="device">
  <diagram name="Strona-1" id="lOVBu4YqwCJ4BttsTKV9">
    <mxGraphModel dx="1434" dy="1964" grid="0" gridSize="10" guides="1" tooltips="1" connect="1" arrows="1" fold="1" page="0" pageScale="1" pageWidth="827" pageHeight="1169" math="0" shadow="0">
      <root>
        <mxCell id="0" />
        <mxCell id="1" parent="0" />
        <mxCell id="ORMudLoAq7WYr6hYme3h-19" value="" style="rounded=1;whiteSpace=wrap;html=1;fillColor=#dae8fc;strokeColor=#6c8ebf;" parent="1" vertex="1">
          <mxGeometry x="303" y="-910" width="230" height="240" as="geometry" />
        </mxCell>
        <mxCell id="ORMudLoAq7WYr6hYme3h-20" value="" style="rounded=1;whiteSpace=wrap;html=1;fillColor=#dae8fc;strokeColor=#6c8ebf;" parent="1" vertex="1">
          <mxGeometry x="559" y="-910" width="230" height="240" as="geometry" />
        </mxCell>
        <mxCell id="ORMudLoAq7WYr6hYme3h-5" value="" style="rounded=1;whiteSpace=wrap;html=1;fillColor=#dae8fc;strokeColor=#6c8ebf;" parent="1" vertex="1">
          <mxGeometry x="39" y="-910" width="230" height="240" as="geometry" />
        </mxCell>
        <mxCell id="ORMudLoAq7WYr6hYme3h-2" value="" style="shape=cylinder3;whiteSpace=wrap;html=1;boundedLbl=1;backgroundOutline=1;size=15;" parent="1" vertex="1">
          <mxGeometry x="103.75999999999999" y="-781" width="101.19" height="90" as="geometry" />
        </mxCell>
        <mxCell id="ORMudLoAq7WYr6hYme3h-3" value="" style="shape=image;verticalLabelPosition=bottom;labelBackgroundColor=default;verticalAlign=top;aspect=fixed;imageAspect=0;image=data:image/png,iVBORw0KGgoAAAANSUhEUgAAAgAAAAIACAYAAAD0eNT6AAAABHNCSVQICAgIfAhkiAAAAAlwSFlzAAAOxAAADsQBlSsOGwAAABl0RVh0U29mdHdhcmUAd3d3Lmlua3NjYXBlLm9yZ5vuPBoAACAASURBVHic7J13mJTV2f8/M7O9994bHZaO0quKBUPsSSxJXqPR/BJNTGJeE5P4JqYZI7GmGhsYIyBFivReF9gGLNvZ3nuZ3Zn5/TFARBFmzvNMP5/rmgvL3uccYPd5vueuGiQSiURia8KARCAeCL/wCQNCv+AT/CnbIMD7M+t5XfiaIaAH0AO9wADQf+Ez8Kn/1nzh0wLUf+qfG4F2NX+jEtdB4+gDSCQSiYsTBGQDWZhf8klAHJCM+YWfCAQ47HTXZgizIKgCyj71Kb/wa4PjjiaxJVIASCQSybXxBUbw3xd99qc+8Q48lz3o5b+ioBA4ceFT6cAzSVRACgCJRCK5nHBgDDD5wmc0MBazCJD8ly6gADgOFAHFwFFg0JGHkliOFAASicSTiQNmANOBacAEINKhJ3Jt+oADwB5gF3AEKQicFikAJBLPJBSIxvyyu/jxv/D/wvj8s8Hvwv//bNLZxV8HMT/8LyahdQKtOFeCmTcwBfPLfsaFT6pDT+T+9AOHgd2YBcHhC/9N4gRIAeCeBGN2V4Zc4+s6MD/Qu21+Iok9iQAyMceqL/6aweUvey87ncUItF34tH7qn9uAJuD8hU/thV8HVNzbC7MLfz4wD5gFBKq4vsR6BoG9wLoLnyrHHsezkQLAufHCnEmcDMRe+EQBMZhdl9GY45X+mG9tvog/4C6WDXVhFgUdmB/YLVf4tRlz+dB5pHhwJGHAVMyu6zH894Uf4chDKaQZqLnwqb7wOQucwZyVPnQN+0xgKXAjMJvLy+kkzsdJYD1mMXAcMDn2OJ6FFACOR4v5djb+wq8ZmB9iGZjdk5+t/3U2OjA/rKu4/MFdCZQgS4jUwhfIxfyyv/jSz8GzfoaHMIuAM5hFwUVhEID5pb8Uc6a+xDWpxSwGVgM7AINjj+P+eNLDwxkIxJxkNB7zw3w8MA5zHbG70gWcwywGLn7OYX54dznwXM6OFrP7+sYLnymAj0NPJJHYj1rgXeAtzBUGEhsgBYBtCcF8U1uEOf44BVlK9Gnq+W/50MVSoiLUjQO7EpHAAszfL7cACY49jkTiFBRjFgJvYg49SlRCCgB1CcD88L4JmAOMQv4ZW4seswg4duFzFHPzkWvFfl2VLOAe4FbMAlHr2ONIJE7LELAJ+AewARkiUIx8OSknDbgZ841tHuZyKYm6DACnMAuCQ5hrjKsdeiJlJAL3Yn7xT3bwWSQSV6QceBmzGOh08FlcFikAxEgDvgLcjTmGL7E/VZiFwN4LnzOOPc418cYsEr+BOaavc+xxJM5EWFgYEREReHt7ExQUREBAAL6+voSGhqLVXu4U0mg0hIWFodfr6e3tvfTr4OAgfX19l34dGBigo6ODvr4+B/2u7EI35tDACqDUsUdxPaQAsJwI4E7gq8BM5J+ds9EI7MMsBvYA+TiHizAReBT4JuYyTokH4O3tTXJyMgkJCcTHx1/6JCQkEBMTQ3h4OBEREURERBAeHv65l7ya9PX10dLSQkNDA83NzbS0tFz696amJsrLyykvL6eurs5mZ7ADRmAj8BKw3cFncRnkS+zqaICFmB/gtyCzsF2JLsyCYDewBXMIwZ5cD/w/YDnOX8opEcDf35/MzEyysrLIzMy87JOamoqXl716LalDf3//JTFQVlZGeXk5paWlFBQUUFNT4+jjWcNx4OeY8wQkV0EKgCsTjDlG+x3MQ0Akrk8TZjGwAXOtsa1a1M4CfoRZMErcgODgYMaPH09ubi4TJkxgxIgRZGVlkZDgOUUaLS0tnDx58rLP2bNnGR4edvTRrsYp4FfAf5ANhq6IFACXk4X51vYA126jK3FdDJiTCTcBmzGPNjUqWE8D3A78FJio+HQSh5GYmHjpRZ+bm8vEiRPJyMiwqYveVRkYGCA/P599+/axe/du9u3bR1tbm6OPdSUOAs8Cnzj6IM6GFABmcoBngPuQyVmeSBPmMMEG4GPMw24s5UbgOcwlfBIXwsfHhylTpnD99dcza9YsrrvuOmJiYhx9LJfFaDRSVFTE7t272bNnD3v37qWhwakage4DfgbsdPRBnAVPFwAjML/470W++CVmBoCtwBrM/cm/6EozFXgBc795p+fTiWjR0dHEx8cTGxtLVFQUgYGBBAUFERoaSkBAAP7+/pfswsLC0GjMjwmTyURHRwcAnZ2dGI1Genp66OnpoaOj47JPc3MzTU1N1NbW0tTURFNTE0ajEieLcsLDw5k5c+alz9SpU/Hzk1W7tqSoqIgNGzawbt06Dh065PDvgQt8BHwfKHP0QRyNpwqAVMyxoXtwoRe/j48PsbGxJCUlERMTQ1JSEsHBwYSFhREaGkpwcPClT0jIfyMYOp3usn8fGBigv988kdNoNNLZ2YnBYKCrq4vOzs5LD/Wenp5LWcMXf21oaKC722Pm/wxjHmG6BlgL1GHO6v818DWc7OcnKCiI8ePHM27cuM8lpgUGOnYInsFgoKGhgYqKCioqKqisrKSyspKysjKKi4tpbm5WfU+dTkdubi6LFi1i0aJFzJs3z+US89yJ1tZWduzYwYYNG1i7di1dXQ7tBD6IWcD/GvM4a4/EqR5gdiAQ+DFm9ed/ja91CImJiWRlZZGdnX3Zrxdvbs7A4OAgdXV11NbWUlVVRW1tLTU1NVRXV1NRUUFZWRm9vW73M2XE3IhoDE4wUjYwMJAZM2Ywffp0cnNzyc3NJTMz02Vj1W1tbZw5c4bTp09TUFDAiRMnOHXqFJ2d1vV4iY6O5rbbbuOGG25g0aJFhIeH2+jEEiUMDAywY8cO3n//fVavXk1PjzVRN1WpxZy0+x4emCjoKQJAA9wB/B7z7d/heHl5MWrUKCZNmnTpk5ubS1CQe8wFamhooLS0lNLSUs6dO0dRURGFhYVUVFQ4ixvQpQgLC2Pu3LnMmTOHWbNmMWnSJLe/zZpMJsrLy8nLy+Pw4cMcOnSI48ePMzBw+aiIyMhIbr75Zu68805uuOEGvL1l1aUrMTAwwPr163n77bfZtGmToyoLjmJOAD/kiM0dhScIgFzgdWC6Iw8RHBzMrFmzmDdvHnPmzCE3N9cj44+9vb0UFxeTn59PYWEhhYWFFBQU0NgoZ3x8lrFjx7J06VKWLl3KzJkz3f6Fbwl6vZ68vDwOHDhAe3s7M2fOZPHixeh0LhPJk1yFuro63n33Xd5++20KCgrsvb0Rc0fB/wXcun3iRdxZAHgDTwK/xAENfHx8fJg3bx4LFixg3rx5TJ48WT7Ar0JLSwv5+fnk5+dz5MgRDh48SGVlpaOPZXemTJnCfffdx/Lly0lNdQpnlUTiEI4cOcKKFSv44IMP0Ov19ty6AnPLbrevFnBXATAe+CcwyZ6bBgQEsHDhQu68805uvfVWwsLC7Lm929HR0cGxY8fYv38/x48fZ9++fbS326p/j+PIycnhvvvu49577yUnJ8fRx5FInIr6+npef/113njjDXt6Ck3AXzHnizksQcHWuJsA8MHc8OGHgF2u24GBgXz5y1/mzjvvZNGiRR7p1rcXBoOB4uJiDh06xMGDB9m1axcVFRWOPpYQPj4+LFu2jIcffpiFCxdeKrWTSCRXZnBwkFWrVrFixQry8vLstW0Z8HXM80XcDnd66qQC72OnWP/kyZO5//77+epXv0pERIQ9tpRcgfr6evbt28e2bdvYsmULVVVVjj7SVUlLS+Nb3/oWX//612XTGYlVdPUNAuCl0xLg69mJjjt37uQXv/gFu3fvtsd2RuAVzNUC/fbY0F64iwBYiLmMw6ZP1MjISB588EG+/vWvM3r0aFtuJRGkpKSEHTt2sHPnTnbt2kVTU5OjjwSYE/p++MMfcu+998pcEA9EP2Sgvq2Ltu5+2rv7aOnso6Onn/bufrr6Bugd0NPbr6d3QE/PgJ6eCy/7gaFh9EPXHmoZ4OeDr7eOAF8fAv288fH2IsDPmwBfH0ICfIkKDSQiOICIEH+iQgMJD/YnKiSQ4ABfW//WbcrOnTt59tln2bt3rz22O415ImyRPTazB64uAHSY+6//FLBZAXRqaiqPPvoojzzyCKGhobbaRmIDiouLWb9+Pdu2bWPXrl12LzGaOHEiTzzxBF/5yldctkZfcm30QwZqWzupb+2mvrWLutauS/9c39ZNS6dz9sXw9fYiOSaU5OgwkmNCSYoOIzkmjKToUGLDg9C6SGhq+/bt/PznP2ffvn223qoH+BbmC6fL4xp/u1cmGngXWGyrDcaNG8dTTz3FPffcI2uL3YCLnci2bdvGunXrbNqnfPz48Tz//PMsXbrUZntI7I9+yEB5fSvl9W2U1rZSWtdCeV0bDW3u1x3Tx1tHVmIUI5OjGZkSw8jkaLISo/Dxdt6Sy23btvGTn/yEo0eP2nqrt4FHcPFyQVcVABMxD26xyTzOcePGXXp4y+Qs98RgMHDw4EE++ugjVq9eTXl5uSrrJicn88wzz/CNb3xD1qa7ON19gxSUN1BU1ci5mhZK61qoae7EaPS4hnGX0Gm1ZMRHMCIlmolZCUzKSSQ52rmqnYxGI2+99RY/+clPqK+vt+VWJ4G7gHO23MSWuOLbbRHwITYY15uQkMCzzz4rH94eSHFxMR988AHr16/n+PHjVtsHBgby05/+lO9+97uyEsRNGNAPs/HQad7bfpKqRvcrP1WLyJAAJmYnkpuZwISseEYmx+AM96be3l7+8Ic/8Jvf/OZz3SNVpAv4JvCBrTawJU7w12QVXwbeAVR9wgYHB/PUU0/x5JNPOnxoisTxlJSU8OGHH7Jq1Sry8/Ov+fW33XYbK1ascJnGPUajifYLCWitXb109JiT0PoG9Azoh+nXD9HTr8dkuvymq9FoCPI399QKCTD/CAb5+xAc4EuQvy/BAb4E+/sSFuRHWJBTjtoQwmgycaCwine25XHsbI2jj+P0xIYHM3t8GnMnZDA5JwkfL8depkpLS/n+97/PunXrbLWFCfgd8DQuNk/AlQTAd4E/onKy37333suLL75IbGysmsvajQH9sDmbuKef7t5Bhg1G+gb16IcN5of54BDDhs/33vf39cZLpyXI3wetRkNIgB9arYaQAF+CA/0ICfAl0M/uDRSdjqKiIlatWsXKlSspK7t8emhKSgorVqxg2bJlDjrdF6MfMlBW30pFfRs1zZ3mT0sndS1dtHb1YrLxY8rbS0d4sD8xYUFEBAeQEBVMQmQoiVEhJESFkBQVir8LlrLlnavltY8OcqK0ztFHcQkC/Hy4fkwqcydkMHNsGiEOrDrYunUrjz76qGrhvivwAfAALlQq6AoCQAP8BnNzH9VISEjgtdde47bbblNzWVXpG9BT09L1qaxic2ZxY0cPbV3mMqIBve2y2rVazYUbnT+RIQFEhwUSGRJAVGgQUaEBJESGkBQdSlSoZ3hNDh8+zFtvvcXKlStZvnw5L774IsHBwY4+FvphA6ermjhVVs+Z6iZKa1uoauzA4MRDl7QaDQlRIWQnRpGZGElWQiTZSVEkR4eh1Tr/Y+nw6WpeW3eIwgrbJZK6Gzqtlumjkrl5xijm5Wbg623/ctje3l6efvppXnnlFVsNJTsELAOco/74Gjj7T5oGcwOGR1VbUKPhoYce4oUXXnCaVr1Gk4nKhnZKa1vMmcW1LZTWtVLf2mXzm5oa+Pl4kRRtLiFKig4lKSr0wr+HEh8ZjM7Nyt+MRqNDS/qGDUZOltZx+HQ1J0vrKKpqtKhW3BXw8daRGR9JVmIkY9LimJSdQHp8pFPElK/E3oIKXl93iLPnmx19FJciyN+HRZOzuWXGKCZkJtj973fv3r18/etfp7S01BbLlwO3YO4b4NQ46Y/VJX4HPKXWYsnJyfz9739n8WKbVQ5axIB+mOLKRk6W1XGyrI78snp6+u067MJu6LRaEiJDyE6KIjspipykKLITo0iIUj2H061p7epjb34FB4oqOXT6PH0D7vn9ciXCgvyZmJXAxOxEJmUnkJMU7VReApMJdp4s5eW1B6hu7HD0cVyOpOhQbpkxiuWzxxIREmC3ffv6+njmmWd46aWXbOEN6AbuBjapvbCaOM9P0ef5P8xjGVVhyZIlvPPOO0RHR6u1pFWU17exr6CCfYWV5JfVXzEu70kE+fuQk2SuK865IAwyEyMd4hZ0Vrr6Btl5opQtR0s4VlLj0eVnnybI34fcrAQm5yQxd0IGKTHO4ckbGjawcscp/vbxEY8SaGrh46VjydQc7luQS06y/Z7TBw4c4IEHHrCFN2AI8xyBd9ReWC2cVQA8CbygxkJarZaf/vSn/OxnP7Or29ZoMnG8pJZdJ8vYV1BJbUun3fZ2VXRaLdlJUYzPiGd8RhzjM+NJiPQsT4HRZOLw6WrW7C1kb0ElQ8Pu4dq3JRnxEcydkMHcCRmMTot1ePe6ls5eXl57gI2HTrtECM8Zyc1K4J75E5g/MdMuIcTu7m4efvhhVq1apfbSJuD/AS+rvbAaOKMA+A6wQo2FIiMjeeedd7jxxhvVWM4iKhra+OTYOTYcOk1dS5fd9nVXIkMCGJMWy8iUmEt1xu7oJWjr7mfd/iLW7CuSYlEBUaGBzBmfzrwJmUwZ6dgStIKKBn7//m6KK+02wtbtSIwK5es3TeGW60bZRQi8+uqrPPnkkwwODqq5rAn4AeYqNqfC2QTA3cBKVDjXxIkTWbt2LSkpKcpPdQ36BvSsP3ia9QdPc6baJZI/XRYfLx1j0+OYMiKJaSOTGZseh5fOdZMM61q6ePuTPNYdKGZwyL5zCtydkABfbpg6gluvH83oVMdMXjSaTGw4eJoVq/fT0eMy1WFOR3xEMA/dNJVlM0fbXAicOHGCu+66yxYhgf8Ffq32okpwJgEwEdgHKM4CWbBgAWvWrCEkxLbu46b2HlbtPMWafYV096mqGCUWEuDrTW52AtNGJDN1ZDLZSVEOdwFbQnldK//YfIxPjp1z6nI9dyEzIZLbrh/NTdNHEhFs/yZFbd39/G7VLrYdd9musU5BQlQID94whdtnjrFpIqgNQwK/BX6s9qKiOMuTMg44AiQrXeiuu+7irbfewtfXdg0nSmpaeOeTPLYeK/H4ZD5nIyzIn6kjkpg5No3rx6Y55GF/NRraunlj/SE2Hj4jk/ocgJdOy8yxadx2/Whmj0u3ezXBjhOl/GblLtq6XHqGjMPJSIjkyTtmM2O0bT28L7zwAj/60Y8wGFTNxXkJeAIn6BroDALAF9gBXK90occee4wVK1bYLNmvoa2bf2w6ytr9RfLh7QJoNRpGJEczbVQyc8ZnMC4jzmHege6+Qf728RE+2J3vNjX7rk5CZAj3LMjl9pmjCbBj18vO3gFe+PcePj58xm57uitzxqfz/bvmkBhluzHtmzdv5u6776arS9Wcrj9jTg50KM4gAP4BPKR0keeee45nnnlGheN8no6efv7+8VH+s6dAZmW7MFGhgcwca+5RPmNUil3GmppMsOnIGf704T5563NSgvx9WD57LHfPn0BsuP06O+4tqODX7+ygubPXbnu6I95eOu6YM45Hb5thMyGXn5/PrbfeSnV1tZrL/hJ4Vs0FrcXRAuC7wJ+ULvLss8/y85//XPlpPoPRaOK97Sf468Yj9Mq6XrciwM+HWWPTuGFqDrPHp9vEM1Be38ZvVu4kr6RW9bUl6uOl07J4cjZfWTSRkSn2SRrs7B3gl29tY/cpm/Wn9xhiwoN44o7ZLJ6cbZP16+rqWLZsGceOHVNz2e9hDgk4BEeOacoF/q30DE888QTPP/+8Oif6FKW1rTzx2nrWHzwtb/1uyNCwga7eAe5bNJGIYHW7jxmNJv615Tj/+/fN1DTLkj5XwWgyUVrbyuq9hRRVNpIeF27zORd+Pl4smZJDeLAfR8/WYJChRWF6B/RszyuluKqRyTlJqg8zCw4O5v7776esrIzCwkK1lr0BqAROqbWgNThKAPgBm4F4JYs88MADvPrqq2hUvL0NG4y8/Ukez/x9Mw1t3aqtK3EuwoL8ef2JL5ERH6nqug1t3Xz/tQ18dKBYPsxdmPNNHazZV8iZ6ibS4yOJtGGLWo0GxqTFMX9iFidKa2nrluWCSqhu6mDjoTPERQSTmaDuz7eXlxfLly+nra2NI0eOqLGkBvPcgALA7kkhjhIAvwcUjeG7++67+de//qVqwl95XSvffmktm4+elQ9vNybQz4dXvvsl1duNbj1WwmMvreW8vPW7DVWNZiFQ09zFiKRogm04zjY82J+bZ4yitatPDhdSyIB+mO15pZyuamLKiCRVcwM0Gg1Lly7FZDKxe/duNZbUArcDB4EKNRa0FEcIgEWYJ/wJX9vnz5/P6tWr8fJSryPc5iNnefK1DTR19Ki2psT58PPx4qXHb2N8hiLn02UMG4z8+r0dvLL2oCwLdUNMJjhX08IHu/Np6eplTFoc/r7eNtnL20vH3AkZJMeEcbCoSn4/KaS6qYONh8+QFhdBamy4qmvPnz8fnU7Hzp071VjOC1gObAHq1VjQEuwtACIw/waFO/SkpqaydetW1eawDw0beOHfe/jzmgPyh83N8dJp+cMjtzBtlOJ2E5c439zBY39aw/7CKtXWlDgnRpOJ4qomPtpfhL+vNyNTYmxWVpqdGMWssWkcKKpy20mh9mJAP8zWYyV09w0ybWSyqr0f5s6dS3R0NJs2qTL0zxe4GVgF2OUmam8B8A8U1Pv7+/uzZcsWsrKyVDlMS2cv3/nzR+w8WabKehLn5kf3zuOGqTmqrXeqrJ5v/2kttXLmg0cxOGRgf2EV246fIzU2nKRo29SgR4YGcvOMUZypbpLfYypQWNHAweIqZoxOJdhfvVDOtGnTSEhIYOPGjZiUT38KAWZhniBo897g9hQAizG3QRTmL3/5C0uXLlXlMHUtXTzy4hpKa1tUWU/i3Hxt8SQeummqauttPVbCU29slOWhHkxHzwAfHz7DmeomJmQmEKTiS+Uifj5e3DhtBEPDBk6V2c0z7LY0d/Sy5chZcpKjVRVukydPJj09nXXr1qkhApKAdGCN8pNdHXsJAG/gI0A46+rJJ5/kRz/6kSqHKa1t5ZEXV1Mvs/w9gjnjM/jp/QtVqxb5y4bD/P793RgMMlFUYk4UXLuvCH9fH0anxapalQTmjpbTR6UQFxHMwaIqmaCskH79MJuPnEWj0TAxOxG1/romTJhAdHQ0H3/8sRrLjQcGMc/HsRn2EgBPAveJGk+bNo2VK1eqkvF/7GwNj720lo7eAcVrSZyfnORo/vT4baqMhTWZ4Pfv7+KtrXkqnEziTgwZjBwoquLY2RomZicQGuin+h4jkqOZnJPErlPlcnKkQkzAsZIaKhramD0+XbWJolOnTsXLy0utxMD5mPsDnFVjsSthDwGQAHyAOcHBavz9/dm8eTMxMco7cx0+Xc33Xl7HgF7+8HgCIQG+vPbEl1Sp4TYaTfzfO9tZvVe1BiASN6ShrZu1+4rw0mkZnxGvujcgLiKYBZMyOVBYRVefvMQopby+jWNna5gzPkO1yo45c+bQ19fHgQMHlC51sUfARqBR8cGugD0EwGvAFFHjF154gZtvvlnxIYoqG/nuy+sYkMrZI9Bo4Pn/Wcq49DjFaxmMRn72z61yeIvEIgxGI0fOnLeZNyA00I9Fk7M4VlJLi5wjoJjG9h52nixjxuhUwoLUmR66aNEiamtryctT7C30wdwt8F+YQwKqYmsBMBv4I4I1/wsWLODll19WrKLL61r59p/WyHIaD+KBGyZz17zxitcxmkz84l/b2HzEZl44iZvS0NbNR/uLCAvyZ1SqurMFAvx8uHFqDmeqm2W7aRXo6htky9ESxmfGEx+hvMRco9Fw8803U1hYyOnTp5UuFw6kAR8qPthnsLUAWAUIFV2HhISwefNmwsOVNW9obO/mkRfX0ConsXkMk7IT+cWDi1Wp0f79+7tZu79IhVNJPJFhg5G9BRVU1Ldx3ZhUVXJRLuLtpWPJlBwa27spqZHVTEoZHBpmy9GzjEyJISUmTPF6Wq2W22+/nV27dqkxRXAsUAWcVHywT2FLAbAEeFrU+KWXXmLhwoWKDtA3oOfhF1ZT0yIVsqcQEujHa99brkpJ1qsfHeSdbSdUOJXE0ymvb2Pb8XOMz0wgOky9AUNarYa5EzLp7O2nqNImYWKPwmA0sT2vlIz4CNLjIxSv5+XlxbJly/jwww9pb29Xutxc4E1AtbiPLQXA2wje/nNzc3n99dcVZf2bTPCzN7eSd06OYvUknn1gkSptft/bfpJXPzqowokkEjNdfYNsOHSaAF8fxqbHqVZ+ptHAzLFpDOiHZK8AFTAaTWw/UUp8RIgq80ICAgJYtGgR7777LoODisL4/kAiKoYCbCUAFN3+V61aRXp6uqIDvP1JHit3qOotkTg5N0zN4eFbpiteZ29BBb98axvK+3lIJJdjNJo4WFxFSU0zs8alqRoSmD4qBYDjJfLSoxSTCfbkVxATHsTIFOX5G9HR0UyYMIFVq1YpbRQ0DtiNeYSwYmwlAIRv/3fffTc/+MEPFG1+vKSGn7/5iRodmSQuQnRoIH967DZ8fZQNiCqvb+N7L69jcMig0skkks9T1djOjhOlTB+VolrmOcDknCT8fLw5fFpxzNnjMWG+DEQEBzA6LVbxetnZ2fj4+LB9+3alS40G/q74QNhGAAjf/v39/Vm7di1hYeIJGO3d/TzypzX0yRatHoNGA795eClZiVGK1mnr7ueRP66WCaMSu9DZO8DmoyWMTFG3Le2EzHiC/H04WCxFgBrsL6okLiKYESqEA2bNmkVZWRn5+flKlkkEioBipeexhQD4F5AiYvj000/zpS99SdHmz729ncKKBkVrSFyLpdNHcv+SyYrWMBiNPPHKeplNLbEr5szzEgL9fBiXobxnxUXGZcTj7aXj6Jnzqq3pyewvrGRESrQqI4WXLl3Kxo0baWhQ9J4aCbyu9CxqC4CJwK9EDCMiIvjgE2WbDgAAIABJREFUgw/w9RXP3t59qpzX1snELU8iNNCPF799q+IuXq9+dJBNstZf4gBMJnNeQENbNzPHpqk2rnZiVgLDBiMnSutUWc+TMZpM7DpZzsTsBOIjhafZA+bKgLlz5/LPf/6ToaEh0WVigWNAiZKzqC0AfoVZBFjNj370I5YsWSK8cWfvAN/580f0Dwr/gUpckB/fN58Jmcqy/g8UVvHblbuQGSMSR3L2fDOnyuqYPzFTteTAqSOTZXWAShiMRnaeLOP6MalEhior5YyOjiYoKIjNmzcrWSYF+KeSBdQUABGYD2P1VSwkJISVK1fi7y+eDPPc29uk69/DmJSdyPfvnKOonKqpvYfH//wR/XopHCWOp661i30FFcyZkEGgn48qa04bmUJ7Tx/FVU2qrOfJ6IcN7DxVzrzcDMUtnqdOncratWtpbBTu35CCeWSw8ALqjEAy8yDmOkWrefzxxxV1/MsrqWXLUUWeEImLodNqefor8xW9/I0mE8/8cwsdPf3qHUwiUUhpbSv/84cPqW7qUGU9jQZ+eM88Fk/OVmU9T6etq48nXlmvuLW8Tqfjz3/+s9LjfEvRGZTufgEt5uQ/q1snBQQEsHLlSgIDxVwqRpOJH//1Y5rlUAyP4s6547llxihFa6zccUpO95M4Jd19g2w9VsLknCRiwoIUr6fRaJgzIYOTpfXUt3apcELPpqNngDPnm7hhao6iluOpqakcOnSIsrIy0SVygBWAkAtTLQ/AEiBLxPBb3/qWolG/m4+cla4tDyMkwJeHb5mmaI2qxnZeWat4XKdEYjPau/t55MXVHD1bo8p6Pl46/vjtW8hJUlYuKzFzqLiaFav3K17n2WefVWIeCgiPy1XLA/AHzGUJVqHVann33XeF3f+DQ8M89fpGOeXPw3j8SzOZOkKozxRwoeTv1Q3yJiRxeoYNRrbnnWNsWhyJKvQK8PHSMWd8BjvySuVzUwUKyhuIVdgtMDk5mR07digZGKQD/i1iqIYHIAK4ScRwyZIlilr+vrf9JA1t3cL2EtcjJTaMO+cqG/O7ascpmTAqcRkG9MM88ep6DhZXqbJedFggLz1+G8EBygdmSeD593ZyvESZl+bRRx9VYr4UEJphrIYAWA4Ipat+61vi+QsD+mHelZPaPI5Hb7sOL534t21jezdvrD+k4okkEtszODTMk69uYNdJ4VjxZWQkRPKb/7kJnYKBaxIzwwYj//v3LXT1DgivsXz5cqKjhTsN+gGLRQzV+Nu/R8QoLi6Om28WDl2wZl+hzN72MHKSolg4SSjV5BJ/eH8PfbJXhMQFGRo28PTfNrO3oEKV9aaPSuF7d8xSZS1Pp6Wzlz/+Z6+wva+vL/fee6+SIwh54ZUKgBhgnojhN7/5Tby9xbq3DRuMvCdv/x7HI7ddpyjj9kBRFTtVukFJJI5gaNjAD9/4WLVwwL0Lclk+e6wqa3k6Gw6e5shp8dbLd9xxh5LtbwKsfjgqFQB3IpBIqNVq+cY3viG86ZajZ6mXsX+PYmx6HHPGi+eL6IcN/HblLvUOJJE4iKFhAz9642Pyy9Xp7vfU3XOZlJ2oylqezl83Hha2nTlzJgkJCaLmicAIa42UCoC7RIwWLFhAWlqa0IYmE7y1NU/IVuK6PHLrDEX2/955itqWTpVOI5E4lr7BIb738jpKzjcrXsvbS8dvH15KgsIe9xI4UVon3HZZq9Vy001CnvyLzLV6TwWbJQBCAaQ777xTeNPjJTWU1bUK20tcj1EpMcwYLTRgEjDPifjHpqMqnkgicTxdfYM8vmIt1Y3KOwaGB/vzm4eXqjaDwJN5d5v4BVXJPBxgtrUGSgTAMhF7nU7H7bffLrzpugOKRyBLXIwHb5yiyP5vG4/Q1Teo0mkkEuehrbufx/+8lrauPsVrjU6N4ft3zVHhVJ7NvoJK4R4LCxcuRCtemWG1m1SJABCSKvPmzRPu/NfTr2fHiVIhW4lrkhITxvzcTGH72pZO/rOnQMUTSSTORV1LF997db0qk1C/PGccS6db3dNN8in0wwb25JcL2UZGRpKTkyO6dQZW9gMQFQBewHwRQyWZjluOnmVAPyxsL3E97l8yWdF89L9/fJShYYOKJ5JInI/iykZ+/NdNGIxGxWv971cXkJMsXJMuAbYdF7+oTpo0SdRUA4yxxkBUAEzH3IPYKrRaLcuWLRPcUrr/PY2IkACWzhC/jZxv7mDjoTMqnkgicV72F1byu1W7Fa/j6+3F89+8kQCVxhF7IkfPnmfYICbGJk6cqGRrq9qkigoAoa5Ds2fPJj4+XmjD8vo2iiqFxx5LXJA75oxTlJT0t41HVbkRSSSuwod7Cvj3rlOK10mNDeepu61OKpdcoH9wSLhCQ4EHAGCcNV8sKgCE4v9Lly4V3A6258nYvyfh7aVT1KCkuqmDTUfk7V/iefzxg73knatVvM6t141iyRTheLTHc7KsTshu0qRJaMQbntncAxAGTBWwY+HChSJmAKr1wJa4BosnZxMVGihs//bWPIxGk4onkkhcg2GDkR//5WMa25U3S3v6vvnERwjNmfF4TpaKCYCwsDAlQ/Js7gFYgDkJ0CrCwsLIzc0V2A7q27opqVHe8ELiOtw1T3ziX1tXHxsPn1bxNBKJa9HW3c9Tb3yMfkhZAmxwgC+/eGiJokRcT6WkpkXYdvTo0aKm4Rc+FiEiAISa/yxYsACdTiyeu+tkGSZ5mfMYRiRHMzY9Tth+1c5Tih98EomrU1zZyPPv7VC8zqTsRB68QVkvDk+krrVL+DmUnJysZGuL+zqLCIDpAjYK3f9iNZUS1+T2WVZVslxG/+AQH8q6f4kEgPUHT/PvXfmK1/nWrdMZlSLWv8VTMRpNnG8W69KYmKhoNkOSpV9orQDwAoRqFBYsWCBiRnffoHAsReJ6+Hp7ccNUq2daXGL9wdN0KpjLLZG4G3/8YA95JcqSAnVaLT+9fxFeOjUmyHsOVY3tQnbO6gEYB/hbaUNiYiIjR4rVc58orZOlXB7EwklZhAT4CtvLrn8SyeUMG4w8/bdNtHX3K1onJymKhxS25fY0apq7hOySkiy+xF/R3NIvtFYACLn/r7/+ehEzwDz8R+I53D5T3P1/vKSGcjkoSiL5HK1dffzyrU8U51J9/aap5CRFqXMoD6CtW2xGg7N6AITK/yZPnixiBqDYdSVxHWLCg8jNFp6HrUqsUyJxV/YVVPLBbmVNgry9dDz7wGIZCrCQ1s5eITtn9QBMs/LrAZgyRcxt1NOv56ws//MYFk3KQivYAKOls1cmi0ok1+BPH+5TPE59RHI09y1U1K7WY2gVnNLo7++Pr69wKNQmZYBBwChrT6LRaIQ9ACdKa2UzFw9CSdexjYfOyFwRieQa6IcMPP23zQwOKRuq9vAt00mIClHpVO6LqAAACAoKEja19AutEQDjAKsL+TMzMwkLC7PWDIAT52T2v6cQFxHMmDTx2v8NB2XjH4nEEsrrWvnzmv2K1vDz8eLH9wgNhPUoegf0wraBgcKdUC1u3WiNABCqzZo6VShtAIDTVXL4j6ewZEoOou2v88vrqWhoU/dAEokb8/7OU+wtqFC0xvVjU1kwMVOlE7knSsbXO5sHQKiOT0kC4FkFrRQlrsWiydnCtvL2L5FYh8kEz729nY4eZaWBP7h7rhwbfBUG9EPCtgo8ABYb2twDMH68WE/3hrZuumRDF48gMSpUuMvYsMHINjkpUiKxmrauPl78zz5Fa8SEBfGNm8S9vO7O4NCwcOmlAg+AH+BtyRfa3AOQkyOW2HWmuknITuJ63DBV3P1/9Ox5KRQlEkE2HjrNweIqRWvctzCXlFixPC93x2QS9wIo8ACAhV4ASwWAF5Bh7Ql8fX2FGxqcPS/L/zwFJe7/7fL2L5Eo4tfv7KBvUNxV7e2l43tfnq3iidwLk6ALQKtV1GvBz6I9LFwsA7A60JOdnS38mzh7Xsb/PYGEqBDhzmIGo5Hdp2Ttv0SihPq2bl5fd1DRGnPGp3Pd6FSVTuRmCLo3DQbbTzS19O0s5P7Pzha/2VXUy6xuT0DJQ+N4SS3tCvubSyQS8wjtokplVVdP3jUbnbJbq1siGN3EqKyviUXGlv5tCQXyReP/RqOJ+jaxIQoS1+L6MeICQLr/JRJ1MBpNPPf2NoYN4i+d9LgIls0creKp3AONYzwAFsUdLBUAQoF8UQ9AfVuXom9EiWvgpdMydYRYz2uj0cTOk2Uqn0gi8VxKa1t555M8RWs8fMt0/H0tSkD3GEQTnBV6AFQVABZPF/o0ogKgVnCEosS1mJCZIFxDfKK0ljYFbTYlEsnn+cemozR3iA2wAYgKDeS+hbkqnsj1EfUAOFMIIF7kBKmpYu7dmpZOITuJa3Hd6BRh2x0n5O1fIlGbvsEhXl57QNEa9y+ZTHiwv0oncm10Wi0+XlZ30AcUCwCLsJkHQKPREBsba60ZADXNHUJ2EtfiOgXxf6W1yxKJ5Mp8fPg0hRUNwvaBfj48dKPYBFh3I8BPPBzS16fIw6maB0CDgAcgLCwMPz+LShE/R02z9AC4O5EhAeQkRQvZ1rd1U90oRaJEYgtMJvjtyl0YRVvYAXfMGU9MmHAnO7dBST5EV5eiULhF6sESARCFQA+AhIQEa00u0djeI2wrcQ1mjE4VTo45JG//EolNOV3dxOYjZ4Xtfbx1fG3JJBVP5JoEOEYA6C98roklAkAoATA+XihtAFA2Q1niGkwfJdYhEuDI6fMqnkQikVyJP6/er6hD4JdnjyM6VFE7W5dHiQDo7u4WNrX0C20mAOLixGe7t3VLAeDu5GaKeYiMJhNHzkgBIJHYmubOXt7ddkLY3sdbx4MengsgWuVkNBrp7RWuxlBVAAhl8ol6AHr69eiHbN8CUeI4okMDSYgKEbI9U9VEpxz+I5HYhXe35SkatnX7rDGEBXluRUBEcICQXU9Pj5IqAFUFQLjICUQ9APL27/5MyBLPDzl0ulrFk0gkkqvR06/nLQXNgXy9vbhz7jgVT+RaiIofhQmAqgqAYJETREZGipjJ+L8HMD5DPDx0WMb/JRK78v7OU4qey3fOm4Cvt5eKJ3IdwoLEKuHa29uVbGtxFr0lAkDIVxsUJFYCIru7uT/jMsTCQ/phAwXl9SqfRiKRXI3+wSH+ufmosH1EsD83TR+h4olcB9EQQH29ouecxXX0NhMAwcFCjgMZ33VzfL29GJksVv9/pqoJ/bDMD5FI7M2HewqpaxV3S39t8SS0onW/LoxoR8SGBvFGTIDFYx2dTgAM6MXLTiTOz6jUGLwFW2MWVir6oZBIJIIMDRt4c/MxYfvU2HBFnT9dlXDBHICmpiYl26oqAITe5KICoH9wWMhO4hrkKkgAzC+XAkAicRQbDp6mpVN8UNBXF3teY6DYCLFQuEIPgMXqwek8AP3SA+DWjE0Tmw8BUCAFgETiMPTDBlbtPCVsP3VEEiMEw3+uiEYD0YLtkD02BNA3IAWAO5Mj+ABo6uihsV24M5ZEIlGB/+zOp3fAoi6zV+SeBZ4zKjgiOEB4EqDLewBEqwBkDoD7EhzgS3yEWAMgefuXSBxPT7+eD/cUCtsvmpQl3B3P1YgNFx+G5EwCwNfa3b28vPDxEftL7lfQe1ri3GQnRQkPACpQMJ5UIpGox7vb8oS7tfr7erNoUpbKJ3JO4iLEvOAAVVWKBp5Z/LC0RABY8jWXodOJuT0ABvQyCdBdyU6MErZVMp9cIpGoR2tXH58cLxG2v+W6USqexnmJDRcTAC0tLfT0CE/E7QQsztS05OVu9dtcq7VaM1zCYBLufyxxckQTgEwmOFfTovJpJBKJKB/sLhC2nZiVSHJ0mIqncU4So0KF7CoqKpRsW2nNF9vEA6BEAMj3v/uSnSTmAahv7VKUeCSRSNSlsKKB4iqxWnWNBm6eMVLlEzkfyTFiAqCyslLJtlbFDpzOA2DCJGwrcV60Wg0Z8RFCtudq5e1fInE2Ptwj7gW47frRaLXu3RkwOUbMy6Ew/l9pzRc7nwdAvv/dkrTYcOGBIKW1rSqfRiKRKGXL0bN09Q0K2caEBzFlRJLKJ3IedFotCZFiFU8KBYDqHgCrn9rKBIBUAO5IuuDtH6BUegAkEqdjQD/M5iNnhO3n52aqeBrnIj4yGC+d2HtQYQ6Ai4cApABwS1IE3WEAJTIBUCJxSjYeEhcAs8elq3gS50LJ8+7s2bNKtq605osteVNbHahRIgCM8v3vlojGwwaHhjnf3KHyaSQSiRoUVTZS2SA2uz4uIpisxEiVT+QciD7v9Hq9XZMALXHvW/02NxjER7a6eV6IxyL6A1HZ0I5RqkKJxCYEB/ii0WgI9r9yv7chg4GBwaGrxvo/PnyGby+7Tmj/WePS3TLHRzThuaysjOFh4V447YBV7lJLBMAg4GfNogMDA9Z8+WX4CCaKSZwbUZdYdZO8/Usk1qLTakmNCycpKpSk6BASo0KJjwwhLMiPsEB/woP9CQ6wrsnrgH6Y/sEhOnsHaO/pp727n9auXrwVNH6bPS5d0ZhhZyUzQcyzodD9b7WxJW/bAewoAEQzxSXOS4CfD5EhAUK256UAkEiuSUpMGJNzkhiTFktOcjRZiZHCg2i+CD8fL/x8vAgP9ieNcFXWHJceR2igH5294u8MZ0TUA+CsAsAqjEYjer1eaB6Ar7e637QSx5McLdYQA6CmuVPFk4jj46UjMSqU5JhQEqNCCQn0IzTQl5AAP0IC/fD6TN6LwWSkq3eQzt5+OnsHae7oobKxnYr6Ntq7+x30u5C4C34+Xlw/JpU54zOYOjJJuO2so9FqNeRmJbD7VLmjj6IaMeFBhARadWe+hDMKAKFCz4GBATEB4CM9AO6GkoxYe3sANBpIjQ1ndGosY9JiyUyIJDkmlJiwYOFBRp+lq3eA4qom8s7VcrykhqLKRoYNsgWm5OpotRpmjU3n5hkjuX5MKv6+3o4+kiqMSYt1KwGQGS+e2HjmjHhVBc7iAQDo7+8nJMT6Rgg+XlIAuBvxgg0xwPYeAC+dlvEZ8UwdmcyEzHhGp8YS5G/bcaUhgX7MGJ3CjNEpAPQNDrH7VDmbj5zl8OlqKQYklxEe7M+XZo1l+eyxiibMOSujUmMcfQRVyRSsbDCZTBQVFSnZ2mr1YDMBIJoH4OcjQwDuRlyE2Fzs/sEhWrosHmxlMSmxYcwam8a0kSlMykkkwME3qQBfb26aNoKbpo2go6efdQeKeW/7SVo61f+9S1yH0EA/7p4/ga8smkign21FqSNJjVUnn8BZEI3/V1ZW0tXVJbqtAbDajeJ0AkBWAbgfMWFiAqCmpVO11tA5SVHMn5jFwomZZAhm6NqDsCB/7l8ymXsW5LLh4Gne3HKMuhbhh4LEBfH20vHVRRN56KapDhen9iA+whxec5cecCNTxDwaBQXisxWACgTe1U4nAAJ83VfpeioxgglKDW3divZNjg7j5hkjuXHaCJIUJCI6Ah8vHctnj+WWGaN4c8sx3txyDP2QeH8NiWswKTuRH983X/gW6YpoNBq3efn7eOmE/+7y8/OVbC2kHmwmADo6xJK3IoL9hewkzktcuJgHoLGtx2qbIH8flkzJ4eYZoxifEa9a4p6j8PHW8fAt07l5xkh+9c4Ojpw57+gjSWyATqvlG0un8s2bp6F19W9aK3GXlz9AVlKU8AwAhR6AUyJGlgiAPpGFGxsbRcyIDBWrF5c4J95eOsIERV1zp+UCID0ugi/PGcdtM0e7pds0MSqUV777Jd7aepxXPjoguyO6ETHhQfzmmzcxPjPe0UdxCEPD7uPZGiXo/gfFAkDIfWCJAGgWWVhYAIQECtlJnJPosEDhG01T+9UFgFajYf7ETL6ycKJHPDw1GnjghsmMSonhx3/bRJebNU/xRDLiI1jxnWVumd1vKb2DekcfQTVGJEcL2fX19XHu3DklW58UMbJEAAi9ycUFgPQAuBNRoeKCrqnjylnw3l46lkzJ4cEbJ5Me5zmx0otMG5XM335wB4+/tJamDuvDJBLnYEJmPC8+dhshVrbkdTf6BtxHAIiWNObl5SmZAdCNlVMAL+J0AiA8yB+tViNdnG5CWKB4TkfzZ15u/r7e3D5zDF9dPNFlO5+pRUZ8BH/7wR18+6U1TtMtUWI5I1NiWPGdZW5d3mcpejcJAXh76YRnABw5ckTJ1vmA0AvTZgKgoaFBxAytVkNYkD9tXUKpBxInIyxIrCUmcOl26+fjxX0LJ/LVRROFW2y6IwlRIbzy3dt58Lf/lu2FXYi0uHD+LF/+l3CXJMDspCjh+QtHjx5VsrVQAiA4oQcAzFnjUgC4B2FBYh6AoWED/YNDLJqczf9bPpMEBd0E3ZnEqFBeeuw2Hv7jhwzohV2IEjsR6OfDHx+9lXA7VjsNG4zUt3VR29xFXWsXzR095ol+3f109g0woB9maMiAftiARgPeOh06nZYAP3MybZCfD1qtFn8fLyJDA4kIDiA82J+o0EAigv0JD/InPDhAuOLG5CYKYHxGnLCtFACfIik6jOKqJmF7ifMgKgD6B4d475n7hF1qnsTotFh+dv8ifvK3zY4+iuQa/PRrC0mJFZ+NYQnVjR0cPXue09VNnK5qoqyu1ebtpb10Wn54zzyWzx5rta3BTcK949LFEpHb2tooL1c0C0E4fmAzAVBbWys8EdDVmrZIvhjREEBIoJ/Tuvv7BvQ0tHVT39ZNZ6/5BjWgH75UzhQc4Eugnw8Bft7ERQSTFhuOt8qjWT/Lkik5HDlznrX7FPUSl9iQ5bPHsmhyturrmkxwsqyOzUfOcrC4yiGdI4cNRnr6xZL5jEb3mH0xTtADcPToUSVekAFA+IfeEgHQCfQDVl3lDAYDlZWV5OTkWH2oZAXT4yTOhZIcAEfTNzjEuZoWSmqaOVfTwtnzzZxv6qCrz7oBmTqtlqToULISI5k2MpnZ49KJEWyOdDWevHMOx87WyKRAJyQqNJDvfGmmqmt29w3ynz0FrNtfzPlm+07NvBKi1QzdgsLBmYgICRAOUyp0/58EhkSNLW28XwGMtnbxsrIyMQEgPQBug78LtXbuGxzi5Lk6jp+rIa+kluKqJgwq3E4MRiNVje1UNbazPa+U59nJiORobp81htuuH42vSvMvAny9+cWDS/jmHz5wm8Qqd+EHd80hWKVyv55+Pe9tP8HKHSfptlKM2hLR319Pv/P8HkSZkCHeh0ShAFBkbOmTpxQBAVBaWmqtCSA9AO6En49zD3eqb+tmb345e/IryCuptVtJ0tnzzfx25S7+uuEw9y6cyFcWTsTHW3mYYEJmPDdMHcHmI1aPBpfYiNysBNVc/3sLKvj1OztodsJJkcH+gh4AJxIxooxznAA4psTY0qdzmcjiZWVCZkSGBBDg5+NWDSI8FX8f52vL29Tew5ZjJWw+cpaz54UaXapGW3c/r6w9wKbDZ/j5A4sZnRareM3Hbr+eHSdK5fAgJ+F/bp6meA39sIHfvLeTdQeKFa3jpdMS4OtNT78eo8puoiAP9gCIxv9ra2upr69XsrXdPABWI+oBAHMiYImDH84S5TiLB6B/cIhPjp9jw6HTnDxXp/rDTynl9W089LsPeOz267h/yWRFa8VHBHPvglz+teW4SqeTiDI+M57po1IUrdHdN8j3X99AXkmtRV+v02oZkxbLhMx4shIjSY+LIDosiMiQALTa/9bqdfcNUtvSybnaVg4WVbGvoIK+QeFwsnAOgGjyoLPg46VjTKqYcD98+LCSrbsBRa4+m3oAlAiAZCkA3AJ/Bw/mOXu+mTX7Ctl0+Cy9Tu5RMhiNrFi9n66+QR6//XpFa31l0SRW7jgpvQAO5t4FuYrsewf0PPzCh5yrbbnq12m1Gq4bncrS6SOZNS7NoiZDwQG+jEyJYWRKDLdeN4quvkH+suEQ7+88JZRDEuQvlu/j6h6AsRlxwuE7hQLgEKAoScmmHoCKigoMBgM6nfV/ODIPwD3wd4AHwGg0setUGe9uO8GpMkXuNYfw5uZjDBuMfO/Ls4TXiAj2Z+n0kbIs0IGEBvoxd0KGsL3RZOKn/9hy1Ze/RgNLp4/iG0unkqLwmRkS4MsP7ppLWKA/r68/ZJWtj7eOUMG2366eAzA5O1HYds+ePUq23qfEGCwXAFWYSw2sus7p9Xqqq6tJT0+3+mBpseFW20icDz875gDohwys3lvIeztO2LUWOiTAl5zkaMKC/An29yU4wIcB/TAdPQN09PTT1t1HdVOHVbfxdz7JY0RyNDdNGyF8rvsW5PLR/iJZEeAglk4fKdwaFuAvGw6zJ7/iC/9/dGggv3hoCdNGJgvvcSXuXzKZd7efsOrFHBcRLNwJ0BkTGq1hUk6SkF1fXx95eXlKtlakHsByATCMWQRkWbtBaWmpkADITJQd4FwdH2/dZTFHW6EfNrB2XyFvbj5ut+l4GQmRLJ81lqkjk0iPj7jmyGOD0Uh1Uwf5ZfUcPn2eQ6errznO9/l3dzAiOZqMeLGJhxkJkUzKTuJ4SY2QvUQZSjL/y+vbeHPzFyd4R4QE8MaTX7ZJV0Efbx3RoYFWCYD4CPFW3Q1t3cK2jsbbS8e4dLEEwAMHDqDXC4cl9SjoAHgRa/yzZQgIgJKSEhYvXmytGRnxEXIqoItj69v/0LCBdQeK+cemYzS22+ch4u2l44k7ZnPH3HHXfOl/Gp1WS3pcBOlxESybOQb9sIEDhZV8uKeQg8VVV7TpGxzil29t458/vEv4dnXD1BwpABxASIAvY9PFKzp+t2rXVdv3PrbsOpu1FNYPGWhot05Ix0WIT+dstHIvZ2J0aoxwovPevXuVbH0cUDwwx1oBYDXFxWJlK77eXiRGhjpFhyuJGF46rU3WNZpMrD9QzN82HqHezreHX33jRhZMzFS8jo+Xjnm5mczLzaS4qok/frCHk6V1n/u6wooGPjlewpIp1jfUAlg4KeuaLxOJ+kwblYJOK/aTy/h9AAAgAElEQVT9n19ez7GzVxdtSnILrsWuU2VWl2DHCwqAjp5++hVUHjiayYLuf1Ac/1ekHi5izXfoOZENCgsLRcwAGQZweWwQfC6qbOTB37zPc29vt/vLf874dFVe/p9ldGoMf/n+l/nOl2Ze0avw8toDwg2KQgP9mDZK3Rix5NpMHSH+YnjnkxPX/BpbDdAZGjbw1w3We5ZFPQD2/hlWm8k5YgmAer1eaQWA4gRAsE4ACF3lCwoKRMwAyEwQi31KnARRv/UV6Ojp5//e2c5Dv/23wyZFzhybZrO1tRoND9wwmae/Mv9z/6+upYutR0uE15473na3RcmVGSVYF97dN8jegi9O/LvIJ8eE7mPX5M0tx6loaLPaLlGwfbsrx/99vHXkZiUI2R49epT+/n7RrU3AflHjT2ONABC6yre3twt3OpKjYF2bAJV6AHy0v4jlz77N2n1FDm3gY4+mRl+aNZb5uZ/3MqzdL17ON0XBbVRiPd5eOrIEvZe7T5Vfmip5Nf6y8TCtXYpDwJext6CCv24Qu5WKliC6sgCYmJUoPMdDofu/CLBepV0BawRAneimomGAjHgpAFyZXoUdvvoG9Pzv3zfz3Nvbr5kxbw9Kaq7ejEUtbp815nP/7WRpHeX1Yj/zqbHhNpk+KLky6XHhwuV/ltz+Abp6B3ji1fWqxc9PltbxzN+3CAnsIH8fIkMChPZ15cmVSjo8KkwAVCX+D9YJABAMA4gKgLQ4289Rl9iOTgUv7ZLzzdz3q5VsUeD6VpsdeaV28UB8kft40+EzwmtOUZCsJLGOxCjxaaYF5Q0Wf21xZSOP/mkNbQo9ATtOlPL4irXCnTJTFPRsqW503STvGYK5NUNDQ+zfr8iD7zABIPQmLyoSc1966bRyNLALYzSZMAhmn/9j8zGnux3Ut3XbZcreF3k7DhZXC68pGquUWE98pFhCXFN7j9V9LAorGvjq86vYV1Bp9X4D+mF+t2oXP3zjYwb0w1bbXyRVQQfCqqZ2YVtHEhHsT3ZStJDtgQMH6OpS1KhMlQRAsF4ACL3JFVUCyDwAl0b0VmFJL3NH8MragzYfXrL7VPkV/3vJ+Wbau8USh0Ymiz2sJNYTJ9gURyT5DszC4XuvrOPJV9eTb0Hra/2QgZU7TrLsmTf59658oT0/jWjbdv2wwWVzAKaPShHOcf7kk0+UbF0JnFeywKexNoNB2ANgMpnQCPyJZSREwnHbZLxKbE/PgJ6QQD+r7UQHi9iaxvZufv3uDn71jRvVLHK4RFfvAG9/cuX2oEaTiaNnzwv1BMhKisJLp5X9AOxAeLBYT/xahe2r9+RXsCe/goz4CK4bk8q49DiiQgMJ8veld0BPZUMbJ0rr2JNfoWpOjWgCYE1zp8s2elMS/1coAFRz/4P1AkDIA9DT00NVVRVpaWlW2+YkRYlsKXESRJOUnNUDALD1WAnp8RGqzHn/NEaTiefe3k5Hzxff8k+cqxMSAD5eOjISIuWETTsgKl7rW9WZX1Fe3yacMCqCqACobnRN979GIy4A2traOH5c0Zju3UqMP4u1IYBmQKgIWzQMMDJFui5dGVEB4KwegIu8sf4Q/9h0VLX1jCYTf3h/NztPXr3h5plq8R4IMgxgH0TFq61DS7YiSVQANDlXjo+l5CRFEx0WKGS7fft2DAZFI7q3KzH+LCK9KoW8AKKJgLHhwcIuNYnj6XNDD8BFXv3oIE//dZPVbVM/y4B+mB//ZZNF8diSmhYMRjE3/siUGCE7iXWI9r8QzZdxJGFB/oQE+ArZnm9yzQqAWePShG0Vuv9LMOcAqIaIABC6yufniyebjJA3F5dF1APgr1ITIVvzyfFzfO359ymqbBSyP3y6mnuee5cdJ0ot+vrBoWEq6sVcp6NSpQCwB6JRbSWZ+I5CSZWWq855mTXO+um2F9m2bZuSrRWphysh0sZI6CqvZO7xyJQYDikogZI4DtFbTZCf2K3CEVQ1tvPgb99n8eQcvrpoIqPTrt4G1mQyv/jf2ZYn9H19urpJqNNcTlIUOq1W2IMgsQzRVhE6O4zOVhvRCgCAahf0AIQE+jFGsM1zSUkJFRWWNXr6ApxCAAh5AEpKSuju7iY42PoaWekBcF1EBUCAn2t4AC5iMpmTA7ceKyEtLpyZY9MYkxZLVGggft5etHX309zZQ35ZPYeKq2nu7BXe60x1E7deN8pqO19vL9LiwimraxXeW3JtTIIKQOuCAiBJ0AMwODRMS4f4z4CjmDU2TfjvafPmzUq2HgZ2KVngSogIgHzAiJXhA6PRyKlTp5g1a5bVG8pEQNelb0AsBBDgAjkAX0RlQzuVDbbLcD6tIBFwVGqMFAA2ZlDQlS/aV96RKCoBdOBcD1GUxP83bNigZOsjgOpZkyI5AN2AZQHLzyAaBkiKCiNYMNFE4ljEGwG5lgfAnpyraRGunx6ZLPMAbE3PwKCQXahAvwxHIxoCcEX3v1arES7/6+npUToAaKsS4y9CRAAACL3JRQWARgPZsh+AS9I3KBgC8HVdD4Ct6R8colKwa1yGHLFtc0TL+VxSAAiGAM67YAnghIx44b+jrVu3MjgoJgwvLqHE+IsQFQAnRIwUJQLKm4tLIhoCcIUyQEciGgZIixMf3CKxjO4+sQd9ZKhYbbmjCAnwFeryCVDjghUA8yd+fky3pSh0/7dhDgGojl09AMXFxfT1iU2uknkAroloCMDHWycnQV6F0lqxOH5MWJDTN1lydVoEEzxdbfCZaAMgcM0eAHMnZAjZGY1GNm3apGTrjwFF3YO+CFEBcByBcleDwUBBQYHQhrKLmWuipLmJq/QCcASig2MAUhWMb5Vcm8Z26yb6XUTJWF1HEBceJGzral0Ac5Kjhcc8Hz16lIYGy8c8X4GPlRhfDVEB0A4IFeaLhgHS4iLkC8EFEQ0BAATKv+8vREmv9/R4mQdgS6wd6XuRiGB/l0p2jgwRC1kMG4w0C/4ZOYp5grd/gI0bNyrZ2oCN4v8gLgDAzomAWq2G7ESZCOhqDOjFBYCvj+uVRdmLhtZu4c5xaS5203Q16lvFR9yKltU5AtF++K1dvS5XAjgv12Hx/0OAzep2XUYAgMwDcEUGh8RDVz4uWBdtL4wmk/A0NekBsC31bV3oBb/vXSk8EyWYtNjsYg2AEqJChKfS1tTUcPLkSSXbK0oeuBZKBIBQJUBhYaFwOcTY9DghO4nj0A+J9zf3kUmAV0U0DCArAWyL0WgSznL3CAGgoAumI5iv4Pb/4YcfCneGvIDN4v+gTAAcEzHS6/XCkwHHpkkB4GoMDivxAEgBcDVEEwGTokOluLIxlY1iAmDMNeZIOBNRIQFCdqJVEo5CNPsfYO3atUq2rgUUuQ+uhRIB0AjUixiKhgGSY8JcslmGJ6PEA+DrJUMAV6NC0AOg02qFe7hLLEO03fK4jDiXmQkQJJiw6EoCIDIkgNzMBCHblpYW9u3bp2T71YgPl7QIJQIABMMAx44JOQ/QaFxLIUtALz0ANkPJvAHRkiaJZZw93yxkF+jnQ1aC9ZMeHUGQv5gAEG2U5AgWT8kWFmRr1qxheFjRiOePlBhbglIBIHSVP3TokPCGMg/AtRgaNgiPR5Vu6qtzXsFAlbgI66dySiznjIKBTRMEb5z2RnReh2irZEeweHKOsO3q1auVbN0BKBoeYAkO8QAUFhbS0yNWByrzAFwLk8mzxqPak6Fhg7A7NVZBExfJtWlo66a9u1/IdkJmvMqnUR9/X290WrHXh5LmYPYkJjyIcRli75vOzk527NihZPsNgHgNtYUoFQBHRYwMBoNwGGBseiwa+V5wKURvqVr5F31NGgRrzqUHwPYUVIh1f5uQ5fweACWzOlxFACyalC38DFq/fj16vaLf5zolxpaiVACcx5ypaDWiYYCQQD+So12nWYYE4dG1WsEbhidR3yYFgLNyvKRGyC4+IpiEyBCVT6MuSgSAq4QAFk/JFrZds2aNkq0Hgc1KFrAUNZ6wQlOKDh8+LLyhzANwLQxGo5CdjABcm/rWLiG7WCkAbE5eidDdCIBZ49LUO4gN8FWQoCs6ItyexEUEC4ebe3t72bJli5LttwPi7SStQA0BIPQmP3DggPCGUgC4FuI5ANIDcC1EPQAxYYHCMVyJZZytaRbOeJ81Ll3l0zgPoh5Be7J4crZwqHndunX09ioqdfxQibE1qPEEEPLlNzU1UVVVJbShFACuhUE0BCBzAK5JfZuYB0Cn1Qp3cpNYhtFo4kRpnZDtlBFJBChws9saJc3tNDj/z/XiKeLZ/++//76SrYcARd2DrEENAXAMECp2FM0DyEmK4v+zd97hUVbZH//MpPdCSEKAUEInQKihN+lFmliQtTfctZdVV13rFgs/saFYERWWpihFkBLpvUNogRACIb3XSTK/PwZcVtrk3Hda8n6eJw9K5tx7gcm8557yPV66TrzLIC4C1HMA1yUtSx4pjAzVOwFsze7jsjSAp7sbPdo01vg0zoGz+/XR4cG0axIuss3Ly+OXX5TS92sB+ajPGqKFA1AMiLR9pXUA7m5GWuuDgVwGg7P/xLsw53PlDoAeAbA9u47KCgEB+sY21e4gGmNWEahz8o+D0T3bim0XL14snnVzgYUqxjVFqySg6EmuJAik6wG4DO5usrdZZZWseLAuUVpuoqRc1i6sy2rbnqOpmRSI6wCaOu1tubamAAwGGNHDYeH/Suyg/ncpDnUAdu/erTAZUJcEdhXchcVm0u6BukZekUxwJtjfR+OT6PyR6mozmw8mi2zDgvzo0Nw5RYFUyvjchBcCexAXEyWWyc7MzFQV/1kHyDSkhWj1LyG6ypeXl7Nv3z7Rhs76g6FzOW5uMo9fjwBYR15RmchOjwDYh4R9J8W2I7rLb6O2pEwYdQLwd+LixpHxbcS2CxYsUNX+t1v1/0W0cgCOAPkSQ2kaoEFogC5m4iIYDcIIgO4AWEWeUHI2UHcA7MLmg8lUmGRDsYZ2beWU7ZpFpfI8t7+vczoAHu5u3NClhdheMfxfBSipB0nQ6p1VjVAWWEUQKM4FJDPrOm5GoziPqacArCOvWOYA6BEA+1BSbmL7kTMi25AAH+LbOl83QFFphbgOIEA4RdDW9I1tKv6ZSE1NVR39uwaQT5ASoqVrKXqSqzgAnXUHwOmRhv9BTwFYi7gGQHcA7EbCviSx7YgerTU8iTZUm81iRb8AX+d0AFTC/9999x3VaheWOSrGUhzuACQlJZGeni7asHPLhiI7HfshLQAEqNQjAFYhrgHw1x0Ae7F+30mxAt6guBh8vGSjd22JVOXQ3wkjAEF+3kryy99++63K9sXYUfznUrR0AMQ9fdLQSbPIUEIC9EpmZ8bbUy7YVFmpOwDWII0ABPrqDoC9yCksZf/JNJGtj5cH/ZxQGlg61CfQCSMAo3u2wdNdNt9gx44dHDx4UGX7xUCRygJStHQAMgFRueuGDRtEGxoM0FHvBnBqfLzkBT/S/va6RlmFrPJYxTnTqTnr9srTAGN6ycVpbEVBiSzyFBrgq/FJ1BnTq53Y9ptvvlHdXil8oILW5aWiNIDUAQC9DsDZ8VUIXeoOgHVUVMoqzD0VJrrp1JxVO46J0wA920U73YjgnIISkV39YOdSoGzXJJxWjcJEthUVFcybN09l+zQsBYAOQWsHYJPEaN++feTni7oI9ToAJ0cld6nSa1yXKBdGANyMRn3egh3JzC9m25EUka3RYODG3vJbqi3Iypc5AM4mQT1W4e912bJlZGVlqWw/F0sLoEPQ2gEQXeWrqqrE44HbRNd36qlZdR0VB0CPAFhHuYL4iIebHgWwJ8u3HhHbju/b3qk0AbIKZCNvnckB8PRwY3h3eZeFBuF/h1T/X0Trd9NBhJOMpGkAN6NRlwV2YtRSALIio7qGNAIAehrA3qzbm0RJmex9HRbkRx8nGhCUlS9zAAJ9vZ3mfTe4cwtxUWJ2djYrVqxQ2f4wsFdlAVW0dgCqAdFVXq0OQE8DOCvSCEBVdbVYPa2uofL35CGsfNaRUVZRyZo98mLACf3aa3gaNaQOgMEAYYHOEQW4UaH4b+7cuaqT/xx6+wftHQAAUU/fjh07KCuTVZXqhYDOi7TSvLRcSVO7TlFuUogA6A6A3Vm+NVFs2ye2qdNIoGfmyRwAgPAQfw1PIiOqXiDd2jQS23/55Zcq21cD36ksoAW2cADWS4zKy8vFqoAdmkfqNxknRSr6oYf/rUdlNKvuANifXcfOkp5bKLI1GgxM7Ber8YlkSCMAgFM4MeP7tsco1CnfuXMne/bsUdn+N0CmD60htnAAdgKi8lBpGsDLw5220eEiWx3bIh05KxUZqYuoyC1Xq3gPOiKqzWaWbpEXA07sF4uXh+M1HPKLy8SFuo52ANzdjIxVCP9//vnnqkdwWO//pdjCATAB2yWGKnUA+mAg5yRUqNQonXBXF1GpDDfpaosOYfGGg2JNgGB/H0bGO8d8AGkkIzLEsQ7AoLgYsR5BaWmp6uS/Mizqfw7HVj0lojTA5s2bxfOUO7fUHQBnRBoByBXK29ZF3BR6+Sur9EJLR5CeW8jGg6fE9lMGx4mnbGrJ+RyhA+DgCMDE/h3EtvPmzSMvL09l+yWA0gJaYSsHQHSVLyoqEudVOsVE6aImToh0VkOuHgGwGqUIgD5x0WEs/O2A2LZ5VD26t3H8mGCpA9CgnuMcgMb1g+nWSl78V1vC/2A7B2ALllRAjZGmAQJ9vWjdqL7IVsd2BAsnzkkH3NRFVBxffeSy49hy+DQpGfKL4G2D4zQ8jQxXjADcNKCDOHpy5MgRtmzZorJ9GrBSZQEtsZUDUIxQ4EClDqBHW8d7xDr/izQFkFesOwDW4q6g5lelOwAOw2yGHzfKp8j1iW1KdESwhieqOem5siF2ft6e+PvYX8HV092NUfFtxPazZs3CrFY4+znCy7EtsKWupKgOYP369VQL58D3cIKQmM5/8XR3w08o05xToDsA1qLyQWrSawAcypJNh8VCTkaDgalDumh8opqRli2LAIBjogBDu7USpyUrKir49lul6H0V8IXKAlpjSwdAJAiUk5NDYqJMKCOuRZTe1+xEBPnJ583nF8tEoeoiUq0FU2WVuBJdRxvyi8v4ddcxsf2YXm2p70BtfWkKACDCAZ0ANw2QF/8tWrSIzMxMle1/AU6rLKA1to4AiK7ya9euFW3o5eFOh+YNRLY62qMy9jO3UDZprC4S5CdzAHQnyzmYt3af2NbT3Y1bHVgLkJFXJNaSsHcEoG10OB2aRYrtP/zwQ9UjzFJdQGts6QDkACK1izVr5OOR9TSA86DyA55XpD+crEUaASgoUdIx19GIxJQMdh1LFdvfNKADAcKBNqqYKqvEHTsRdpYDvu0GuaO0b98+8cTaC6QBy1UWsAW2ni0pquhLSEgQ6wHohYDOQ2RooMiusqpaPGq0LiL98NcjAM7Dt7/KZWX9vD2ZpNDXroordAKEBvgwpGtLsf1HH32keoTPAKcbcGJrB0BUCJifn8+uXbtEG7ZrEu6Q6lKdy4kMlXn4GblFem66BgQIIwCFJboD4CxsPHiKU+dFk9QBizCQo+SBXUEN8KYBHcX1YXl5eXz//fcq2ztd8d9FbO0ArANEn+SrV68WbehmNNKlpT4e2BmQRgDScgo0PkntRlproadZnAezGeaukY+GDw30ZUyvthqeyHqkEYAI4QWhpri7GRnfVz5G+euvv6a4WCkiuQJIUVnAVtjaAUgDRCX9KnUAzqCQpSMP8alUFtdFpNXUBXoKwKlYuiWR7AJ58evdI7o5ZCrq+RyZFkC9QPt0Lwzt2pLwYJmzYTab+eSTT1SP4HTFfxextQMAIHqSb9q0Sex1xesOgFMgdwBkHyh1FWkxVY4ut+xUVFRWsWi9XB44MjSAMT3tHwWQjgX29nTHV6gTUhNuGdRJbLt69WqOHj2qsn0qTlj8dxGndQAqKirEVZfNGtQjzIG9sTqWlswQoQqgHgGwniA/b3y8PES2adl6qsXZWPDbfsoq5LVid4/shrubPT7W/4tK1KJegK+GJ7mcttHhxCq0/n388ceqR/gCSw2AU2KPd0oCwupHaRrAYIBureXDHnTUiQwNEOtt6w6A9UQoVFKn6X/PTkduYSk/KMgDR9ULVJK6lZCj4ACEBMouCdbyp2FypcSUlBSWLl2qsn0V8JXKArbGHg5APiAq6ZcWAoKuB+BoVAp8dAfAelQqqfW/Z+dk9spdYnlggHtHdVeaEFlTshVadm0ZAYiqF8gNXVqI7T/44ANxO/oFluNkyn9/xF7vEtFVfs+ePWRlZYk21B0Ax6LyYJK2FdVFmjUIEdlVVFYpfXDr2I6s/GKWbpXJoQM0DAtiVHxrDU90bQpLy6molDksoYG2cwBuuyFO7AgVFxfz5Zdfqh7BaYv/LmIvB0B0la+urua3334TbRgZGkDj+o6dlFWXkRam5ReXUVLuNMOynJ6YqHoiu/M5hagNNdOxJV+u2KE0qvn+MfF26wgwm+XS3fVs5AAE+noxro+89e/LL78kJ0euywCcwdL+59TYywHYDIhKjtXaAfU6AEchbU1L18PSNaJ5g1CR3bksvQDQmTmfU8gv2+XV51H1Ahmv8ACsKdn5MgdAOpnvetw0oCO+wuJYs9mshfLfRzhx8d9F7OUAlCOcDqhSBxDfNlpsq6OGtO/2vHC+eF3EaDTQTOgAnEzL1vg0OlrzxfIdSoqY947qjrenfdQBpS2l0k6ha+Hp7sbNAzuK7X/++WfV1r9iLNK/To89+0VEI/6OHz9OcnKyaMOe7aLt3hKjYyFAOKFOz/9bT6OwILH864mzugPg7JzJzGP17uNi+7AgP7tNCiwprxDZ+dlAtn1Ej9ZKbeDvvfee6hFmYxmG5/TY8+kovspLxwP7eXvSMUYfD+wIpPMY8nV5Wqtp2yRcbHvirKy4Vse+fPLzVqqq5bUAdw7rSqCft4YnujKlwrodP42FgAwGmDqks9j+4MGDJCQkqByhGnhfZQF7Yk8HYA9Cr0ilDqBvbFOxrY4cf29ZBKC4THaTqIt0bC5zbqvNZk6dz9X4NDq2ICU9T6kWIMDXS+mBaC2l5bJ2Oa0dgN7tm9JcWBgLMH36dMxq1bHLAaX8gT2xpwNQhUUUqMasXbtW/I+iOwCOQRra0x0A6+kgVDhLzcwX39h07M+nP2/DJGyzA7htcJzNqu0vUlrhHBGAu0Z0E9ump6czd+5c1SP8n+oC9sTeCXLRVf78+fPs3SublNU8qh4N7Dh3WseCh7D2Qn8wWYeXhzutGtcX2R5P1cP/rsS57AKWbDostvfx8uCekd01PNHlSH9uPTUcYdyxeQM6t4gS28+YMYOyMqUU5EEsE3BdBpdwAACWL5fPU+itRwHsjkGoA6y3pltH2ybh4gLX/SfTND6Njq35fPl2pRkBE/vF0jAsSMMT/S9lwgiAlkXa94/pIbYtLCxk5syZqkd4Fxf7CLO3A3AUi0BCjVFxAProDoDdMQodAJW2p7pEd4VZF/uSdAfA1cjKL2bBb/vF9h7ubtw/Wv6AvB7SGgBppPCPtGpcn55tm4jtP/nkE/Ly8lSOkAHMU1nAETiiR05U0r9t2zays2WtS/FtG4vbpXRkmF3LEXY5pBoXFaYqjp7J1Pg0Ovbg6192KtXIjIpvo1Qgdy3KTTIHQKsIwH2jeoiHj5lMJj744APVI3wEuFwLkyMcgF8lRlVVVaxcuVK0oZeHO11aNhTZ6sioEt7k7SVc4sr4+3jSobmsADAxJUOpoEzHceQXl/Hd6j1ie6PRwLQbe2p4InXcNHAAmkWGMjCuudj+m2++4cwZUWD6ImXAJyoLOApHOAArEUok6mkA16G4VCgMonFVcG2kW+vG4iEnevjftfl+zR7yi+UXzUFxMcQpFMpdDaNRdv2uUph3cJG7R3YTpxzNZjPTp09XPcL3WFIALocjHIAsYLvEcMWKFVRVyW4v/To2FdnpyJCGKm2hDFbb6N1enuvccUTppqPjYIpKK/hmlWi6+u88PqmvOFx+NaQPYGmk8CJRYYEM795KbP/jjz9y+LC8w+ICM1QXcBSO0skVTUnKyclh27Ztog0bhgURHaFPB7QXUgcg0FcmIFRXMBoM9O/YTGRbbqpk9/GzGp9Ix97MW7uPjDz5zIzYZpHc0KWlhidCHJFSUTkEi9KhdG+At956S2l/LClteXWmg3GUA7BMarhihXzCYt9Y2QenTs0pKi0X2dUXDhGqK3SMaSDWOd9z/Jy4WEvHeSg3VfL1L2pRgEcn9MFTw3HBPsLJeyopgMjQAMb2bie2/+2339i6davY/gIuJfzzRxzlAOwBRMnIZcvEvgN9YuWhU52akZFXLLKTThGsKwzuHCO23XzotIYn0XEkP2w8yNmsfLF9VFggNw3ooNl5pLM/ShSEv+4Z2V3JiXnjjTfEthdIBH5RXcSROMoBMCNMA+zdu5ezZ2VhzC4tG+KrF5nZhUxhiDI8RHcArobBAAPj5A7A1sQUDU+j40hMlVXMWioqpfqde0f1IECjlJuvMAJQJCwWjgwNYGyvtiJbsLSVq4yav8C/cDHhnz/iyFm5opJ+s9nML7/InC4Pdzd6tGksstWpGdIcZUSIvzicWNvp2LwBUfUCRbZns/I5eU4fAVybWLHtCIkp8uLzID9v7h6hjUSwtHhXmiq8b1QPPBRu/6+99prY9gIpgPLgAEfjSAfgV0Dk/inJAitUUOtYT3qOzAEwGgw0jQjR+DS1g9E95TeeNbtPaHgSHWeg2mzmvYUblda4bXAnGtVXlwiuHySL3BUKHIAGoQGM7tlGtB/Anj17lGrJLvBPwOUHlzjSASgARO/eX3/9lYoKWeiob2xTzVtgdC7ndIZcVrNZg1ANT1I78PRwY2hXeeX2at0BqJXsOpbK5oPy2g4PdzceGqsuDhQWJJs2WFhScwfg/jHxyrd/xTEn8BAAACAASURBVJG/54CvVRZwFhzpAICwDqCwsJCNG2Web3iIP60bh4tsdawnJT2XSmGFb5to2ZS72szATjHifG16biGJp9M1PpGOszBj8UalGRrDu7emXdMIpTNIi3czcmsWKWxUP0jp9n/o0CF++uknsf0F3sEFZX+vhKMdAHFJv0oaYGAnuWykjnVUVlWTIowCxArn3NdmxvdpL7ZdszsJtQuPjjOTdC6bnzbLxWwMBos4kBRPdzeCA3xEtjXtFrpvVA+lvv/XXnuNajXtgSxglsoCzoSjHYBEIEliqOIADFJopdKxHmnRWZvocE17lF2d6PBguisUr67YdkTD0+g4I5/8vJVShZa6Li0bigWmGocHi5UA03MLrX5tdEQwI+Nbi/YBOHLkCAsXLhTbX+A9QNbj7IQ42gEAYR9lYmIiSUki34GYqHq6KqAdkFYoe7q7KYckaxMT+sWK61ZOnstWqhTXcQ2y8ov5VmFQEMBjk/qKbtdNFIp202uQAph2Yy+l2/+bb76pevsvwDL1r9bgDA6A+Cq/dOlS8aYDOuppAFtz4OR5sa3erWHB08NNqd956dZEDU+j48zMWbWLrHz55bRJRAjj+tRcWa9ppNwBOGelmFHb6HCGKMgXHzt2jHnz5ontL/AhIK9udkKcwQFYB5RIDH/88UfxpoMUBFV0rONQcrp49GzPdroDADCyRxuC/WX51WqzmV92HNP4RDrOSkm5iVlLZbNSLvLQjb1qPJGzubBrJyu/mAIruwD+MqG3UvfWSy+9RGWlkgx2CS489OdqOIMDUAokSAw3bNhAZmamaNPY5pFiTXUd6yg3VXL8rLQOoD71AmWtRbWJWwd3EttuOphc4yprHdfmx02HlASfQgN8mDq0S41sOjSXFe2ePJdj1eu6tGpIfNto0R4ABw8e1CL3/ykuOvL3WjiDAwDCNEBVVZU4DaAyVU3HenYeTRXZGQ0GbujSQuPTuBY92jSmZcMwsf3i9Qc1PI2OK1BdbeaDHzYrrTF1SGerL0ehAT40DJMJCZ1Ms84BeGRCH9H6F3nxxRdVc//lwLtKh3BSXNoBALU0wMBOehrA1mw+lCy2HdpNPue7NnDbDXFi2/TcQjYp/N3ruC4bDpxi+5EzYnsfLw/uHN7VqteqtOyeTLt+pGJw5xZ0UNhj165dWvT9fw3UyjnazuIAnAJE15VVq1ZRWGh9K8ml9GjbWLNhGDpXZl9SGiVlMtXGTjEN6uxwoOjwYPrENhXbL95wUEkcRse1eW/RRqoVxB8m9etAfSuiAJ1iosR7HD597Yi60Whg2jg1lcK//e1vqqp/VViEf2olzuIAAPwgMSorK2PVqlWiDd3djHq1uY0xVVaxTXgbMRoMjFOY9+3K3Dq4k7i32lRZxY8bD2l8Ih1X4tiZTFYqFIB6erhZVQvQS/j5WVpu4nhq1jVfc2PvdjSLlMuCb9q0iZUrV4rtL/A9UGt1tJ3JARDH8lXSAEMU9NV1rCNh70mx7YS+sUq9v65IgK8XY3rJHZ9VO4+RXSBqrNGpRXzwwybKKuSV75P6dyD0Ggp/YUF+4hqVA6fOU3WNvLyXhzv3j+4hWvsiL774opI9ltv/m6qLODPO9Mm6G0sqoMYsXbpUPByoT/umNW570akZCXuTqDDJ2gHDQ/zpV8eKNSf0bS+erw7w/Zq9Gp5Gx1XJyC1ifsI+sb23pztTh169FqB3+ybi1rz9SWnX/P7tQzoTERIgWxxYvXo1CQkJYvsLzAGOqi7izDiTAwDws8QoLy+P3377TbShp4eb3g1gY4rLKth4MFlsP0WhGM7VcDMauXmgvPVv17FUjp6Rtcbq1D6++mUneUWlYvub+sfi73PlC5LK5+a+azgAoQE+VhchXgmz2cxzzz0ntr+ACXhddRFnx9kcAD0NUEtZtVOej+zSsiGdW8iLjVyJG7q0IDJUfvOZu1Z+49OpfRSWlPPNql1ie19vT8ZdYRBVoK8XvYVFqqXlJnYdv3p78LRxNRcjupR58+axa5f8z3yBrwB57tJFcDYHYD2WaUs1ZsmSJeJqz17tmuhpABuzft9JcgrlN5G7R3TX8DTOy+1DOottz2UVsH5/rf/M0qkhC347QI5CTcitg+Muq8MZ0rWleGDXjqOpV00JNm8Qyo0Khb8mk4mXX35ZbH+BCuCfqou4As7mAFQBImWfs2fPsnmzTADD08ONAfqIYJtSUVnF0i1yXfresU2Iq+VRgM4tomivMARp7tq9euufzmWUlpuYrRAFaBAacJko18j4NuL1Nh64eqnXk5P7KxX9fvLJJ5w4oVy0/ymQrLqIK+BsDgAopAHmz58v3lRPA9iexRsOKPUmPzapr5IeuLOjIvxTXFahNBNep3az4Lf9ZObJBwU9NLbn7w/m6Ihg4hT6/zcdPH3F3+8T25Se7eSSv0VFRbz5pnLRfhnwb9VFXAVndABWIZy3PH/+fKqqZNXmvdpFE6iLAtmU1Mx8th5OEdt3aBbJDQoTwZyZsCA/+itMqFyy6RDFQsElndpPhamK79bIxwVHRwQzvLtFmfPWQXFiR/xQcjrpuZcLtxmNBh6dqCb5+84775Cenq60BpaJf7VS9e9KOKMDUAqI1BvOnz/Ppk2bRJt6uLvRX08D2Jxvf92tZP/4pL5KLXLOyo292+HuJvtxrK428591+zU+kU5t48eNB8WqnAD3je5BiL8PYxTGUy+7ynjqif1iiYmqJ143MzOT6dOni+0vkA/8S3URV8IZHQAA8egmlTTAUD0NYHO2Hzlz3R7gaxEZGsCDY9XkQZ0No8HA+L6XV1pby5o9Jzhr5Vx1nbpLUWkFP26Sp4miw4N56Y4hYge8sqqaVTuPX/b7Ab5ePDBG7Wf61VdfFUvCX8JbgHyUogvirA7Az1giATVm4cKF4jRAz3bRhOojaG3O1yt3KtnfNjiOttHhGp3G8fRsH01UvUCx/Vxd+EfHSuYpFor269BUbLvxwKkrahI8MCb+moqD1+PYsWPMmjVLbH+B88AM1UVcDWd1AIqAFRLD9PR01q9fL9rUzWjUowB2YMOBUxy7jg74tTAaDbx69zC8PNw1PJXjmNSvg9h2/8k09p+UR1R06hbnsgtYu0deJW9QqMJdtvXIZb/XvEEokwd0FK8J8NRTT2EymZTWAF5DWHvmyjirAwCwQGqokgYY2aO12FbHOsxm+GCxrFbjIs0bhPLYJLWiIWcgNMBHaerf/AQ9969TM2Yt267UjSMhLaeQ9fsvb/979taB4toXgLVr17J0qahz/FKSgM9VF3FFnNkB+BmhR7Zw4UIqK2VDMGKbRRIdESyy1bGeLYdPK3UEAEwe0MnlZZxHxrcRfwDmFZWydnetHVSmYyNOnstm9a7Lc/G25D/r9l02/Gdo15Z0a91IvGZVVRVPPPGE6tEAXsQi/VvncGYHoBhhN0BWVhbr1q0Tbzyiux4FsAfvL1abWW4wwKt3DXNph02lovrnLYlUVMrqXXTqNp8t3W430aiSsgp+3Hjwf37P29OdRyf1VVr3888/Z/9+5QjYPkAeMnZxnNkBAEelAeJb12rBGWfhWGqW8tz6AF8v3nloDL4uKOXcqlGYeJyq2Qw/bDh4/Rfq6FyBU+dzWLH98py8Lfhx0yGKSv+3/fCekd1poDDzorCwkFdeeUXxZAA8A1x9LnEtx9kdAHEaYNGiRZSXl4s2bVw/mNimkSJbnZrx4Q+blHTKwVIP8I97RyhJiDqCUQpyqjuOniElI0/D0+jUNT76cQul5baNfFdWVTNv3f8OqGpUP4ipQ7oorfvGG29w/vx5pTWwyM7/qrqIK+Psn5jiNEBubi7Lli0TbzwyXk8D2IOCknLeXSDr2riUvh2a8vc7h7hM5MZoMDDsgrKahCWb1CInOjoZeUVKMwKs4YeNBzmXVfA/v/fUzf3x9JANEgI4deoU77//vurRTFhu/3UaZ3cAQCE/M2fOHPGmQ7u2UqpO1bGelTuOsfnQlfXBa8Ko+Db8eVxvDU5ke3q0bUx4sL/ItrisgoS9+tQ/HXXmrNpNWo6ygM4VKTdV8tWK/9X86N+xGf06qBXuPvvss5SVlSmtAcwE7JMDcWJc4Qn3MyB6hy5fvpzsbJmwU0iAj/IbVcd63pizhvxi5R9q7hrRjUcn9nH6SIBK+P/XnccpN8m6XHR0LqXcVMm789UjcFdi7pq9ZOQV/f7/3p7uPH3zAKU1N2zYwKJFi1SPlgO8qrpIbcAVHIAShBMCKyoqWLBAXEfIWIW51Do1IyOviNfnrNFkrTuGdeX5KYMxOqkX4OPlwcC4GLH91fTUdXQkJOxNYu2eJE3XLCgp55s/pBceGtuTqDC54mVlZSV//vOfMatrGLyKxQmo87iCAwDwndRQJQ3QJ7YJ9YP8xPY6NSNhbxI/bNSmsn1iv1heu3uYUxYGDu7cQqynfi67gL1J5zQ+kU5d5615CRSWyIqmr8QXy7dTcMl6LRrW49bB8nHXADNmzODAgQOqRzuCJfyvg+s4AGsA0ZzHzZs3c+zYMdGmbkYjoxX6tHVqzvQFGzh+Vi4TfCkjerTm3w+MdLrpgaMUCkyXbT2CnUXcdOoAWfnFvLdoo2Zr/eeSyn+jwcALtw9WqqlKT0/n9ddf1+J4z1BHRX+uhKs4AJUoFAPOnTtXvPGNvdo5fT65NlFabuKpj5decWiIhIFxMXz7wm00Vxg1qiX1g/zo3rqx2N5evds6dY8lmw4pzQm4SEiAD7HN/ttGfdOADnRs3kBpzaeffpr8fOWJl2uxtP7pXMBVHABQTANI80bREcHExURJt9YRcC67gBc+/+Uy6VAp0RHBfP3Xm51i0NPI+NYYjTKPcn9SGinpeu+/ju14Y84azit2BbgZjbz1wCjCg/2pF+jLtBt7Ka23adMmvvtO/PF/kSrgcdVFahvyZkz7cxa4HajxVS43N5fhw4fTuLH85vXbPr3typ6czSqgpKyCXu2baLKeh7sbN3Rpib+PJ7uPnaXKTjKof+SZWwYQJqwr+fKXnSSeztD4RDo6/6XcVMWRlExG92yrNPnPx8uDjjENiGsRRRuF0d1VVVWMHz9eC9GfWcCXqovUAB+gKdAK6AT0BuKBrpd8tQOCAAOWYne7KxK62jzV74G/Swxnz55Nr14yT3Ro15a8M389JWUV13+xjmZ8v2Yv4cH+TB2qphp2EYMBbh/Smf6dmvHP79ax/cgZTda1lqiwQPGHoamyyu4DXHTqJruPn+Xb1Xu4Y5jaz12HZpGg2Ek9c+ZM9u7dq7YI5AMvqy5yFbyB2AtfbS/82g5oguXBbi1VwAlgC7AJWA/IitdqgKtlt1sBRyWGgYGBnDt3Dj8/2e3rzW/XalahrmM9BgO8fMdQxmpcjGk2W/Lp785fr4n+gDXcMawLj06UDUBZs/sEf521XOMT6ehcGQ93N756drLS7V2V8+fP065dO3Jzc1WXegZ4R4Mj1QfiLnx1uvBra2x3kd6L5dI7F0i1xQauVAMAFo9om8SwoKBASRNgUv9Ysa2OHLMZ3vx2jSZKgZdiMFjEeOb/fSo39m5nl3bBQZ1biG2Xb9OL/3Tsh6myimc/XW435/hKPPHEE1o8/JOAD2rwejcscYvhwF8u2P6CJQWdAawC3sKSjm6PbaPocRf2Ogl8Acg/QK6Cq0UAAB4EPpEY9unTh40b5a0ud/17PgdPKeeidAR4urvx7wdH2Uyd8Vx2AV//spMlmw5rVnx4KeHB/iz75z2ijpLisgqGPvMZFSZ99K+OfYlvG80Hj4wTF65KWblyJSNGjNBiqYnADxf+O/DCVz2gEdAAaAhEXfhqDsQAXlpsbAOqsDz7XgAKrvNaq3BFByAISMNSZFFjDh8+TNu2snDy0i2JvDK7Tg+PciieHm68O20MvdppUxh4JVIy8vhi+Q5+3XmMikrtHrg3DejAc7cNEtku33aEl79apdlZdHRqwgNj4nlgTLzd9istLaVDhw4kJWmiTpiC5aEfrMViTkIq8ACwQnUhV+oCuEg5liKLDhJjb29vhg0bJtq4SWQIi9Yf0HXYHURVtZk1u04QHRFCjI36+oP8vBkUF8PNAzvRMCyIzPxisvJFE6n/h3tGdqdpZKjI9qMlm/XRvzoOY8/xc7RtEkF0hH2eoS+//DI///yzVssFYSnUq00EAlOwXILXAuKWJld0AMAS/rhDYnjixAkee+wx3Nxq/kd3dzOSW1TK/pNpkq11NKCq2sy6vUmE+PvSrmmEzfbx8nCnbZNwJvaLpV/HZnh7uFNQUibKiboZjTw/ZbBoBGpRaQX/+n6dw9oWdXTMwOZDyQzp2pJAX9s+Sw8ePMhdd91FtQ3ScLUMA9AXaAn8hLCF0FUdgGTgLgRhnZKSEjp27Ej79u1FGzeqH8T8hP1yl0tHGbMZNh5MpnOLKBqGBdl8v/pBfvRu34RbBnVibO92xDSoh5eHO3lFpZRWXD8a1LF5JJMHdBTt/dv+k6zaafNuIB2da1JuqmLP8XOM7dUONxuNSa+urmbSpEkkJyfbZP1aSgegDZaBeTV2AlzVATADoYBotmRBQQFTp04VbRzo582+k2mkZirLUuooMHlAR24e1Mnu+wb4eNEmOpwhXVvyp2FduXlgR/p2aEaH5g1oVD+IID9v6gX6EuDjhbenOwYDjIxvQ9dWDUX7zV65S7PZCDo6KmQXlJBdWEL/js1tsv6nn37KzJn6nB4B7bEUMdY4b+KKRYAXaY5FOKHGfwaj0cjJkydp0kRWTJawN4mnP1kmstVRZ0SP1rx29zCnHferFdXVZoY9+7lmcxF0dLTg73dqr8uRlpZGu3btyMvTa10UeAj4tCYGrqYDcCknsagl1Zjq6mpmzZol3rh/x+Z2CT3rXE7v2Ca8cufQWv/wBzh0Ol1/+Os4Hf/8fi1HUrSVpJ42bZr+8FfnPWpYHO/KDgBYxBFEfPbZZ5SVyUQujEYDtw62f/i5rtMxpgFvPTBaaayoK7HrqEX8y2g0UD/Ij4ZhQTQMCyI0wKdOOEA6zompsopvV+/RbL25c+eyZMkSzdarw3hjmXlg9YeDq3+KeAFnsEg01pjZs2dzxx2iZgJKyioY/cJXFJaUi+x1akZMVD0+e2oSgX61raPn6uw4eob6Qf5ERwRf9sAvq6jk+NksjqRksC8pjU0Hk/X3oo5N6RTTgOHdWzGwUwzhIf6arJmZmUn79u3JzMzUZD0dAG4B5lvzQld3AADeBZ6UGHbv3p3t27eLN56xaCNzft0tttexjqiwQL54ejL1g2VzHOoCpsoqdhxNZemWRBL2JmkqYqRTd/H0cGN4t1bcOjiO1o1F96xrcuTIEUaMGMHp09pKfTsKNzc3mjdvTmxsLG3btqVNmzaEhob+/uXh4UFJSQklJSVkZmayd+9edu7cyaZNm7R0gk5hGUx03RtBbXAAWgOJCP8sW7duJT5epnKVkVvEjS9+TWWV3rNqK0ICfPj86ZtoEhHi6KO4DLmFpcxdu5d56/bpEyx1RHi6u3HzoE7cOawrIQEi0VWrKS0t5f333+e9997TYuyv3QgICKBTp0506tSJuLg4OnfuTPv27fH2rnmUsqKigkWLFvHBBx+wZcsWLY73APDZ9V5UGxwAsKghiXRWp06dypw5c8Qbv/D5L3qfto3w8/bk0ycnajaR7PTp00RHRyvNOXclCorL+HrlTr5bvdcm8w10aifxbaN54fZBdi90Li8vZ/HixXz//fesWrWKigrncF69vLxo0aIFrVu3pm3btsTFxREXF0dMTIxNPkvmzJnDtGnTKC5WUiDdCXS/3otqyyfhzcB/JIZeXl6cPn2aiAiZqtyh5HTu/Jdoa51r4OXhzgePjqNLS1n//B9ZvHgxt9xyC927d+ell15i5MiRmqzrChxKTufV2b9yMi3H0UfRcWI83d14cnJ/JvXvIBpapSVFRUVs2LCBNWvWsHPnTg4cOEBOju3evyEhITRs2JDo6GiaNGlC69atad26Na1ataJJkyYi5VgVdu7cyZAhQ8jPV9Kb6YxlpPBVqS0OgCeWoQ+ip/jrr7/Oiy++KN78vncWsvfEObG9zv9iNBp456HRmgmOrFmzhtGjR1Ne/t+UWJcuXXj++ecZP3487u62nOjpHFSYqnjj2zX6WGGdK1Iv0Je3HxpNx+YNHH2Uq5KamsrJkydJSUnh3LlznD17lsLCQoqKiigsLKSsrIzi4mKCgv43chEQEEBwcDDBwcGEhIT8/mtUVBQNGzakcePG+Pr6OuhPdXVWrFjB6NGjMZvFurN/B1671gtqiwMA8E/gOYlhVFQUycnJeHh4iDbedDCZxz78SWSrcznP3jqAmwdq02a5Y8cObrjhBgoLC6/4/caNG/PQQw9x3333ER6uTarBWTGb4fPl25m1dCvyzxSd2kZESACznpqoa5s4IVOmTGHu3LlS881An2u9wFWlgK/ESeARBE5NYWEhbdq0oUMH0YBBosOD2bD/lCZT4+o694/uwZ3Du2my1vHjxxk6dOg1Q4cFBQWsXbuWGTNmsGPHDtzd3YmJiamVUQGDAbq2akhogC+bDiU7+jg6TkD9ID8+eXIijevXpmm5tYeYmBgV0boGwNvAVQeW1CYHIA/ohqUroMacOHGChx56SFzUEeTnzepdx0W2OhZGxbfh6ZsHaJJ/TE1NZdCgQZw9e9aq11dXV3Ps2DEWLFjA+++/z549ezCZTDRq1AgfH9tWQdubdk0j8HB3Y8eRM44+io4D8XR348PHxtOyYZijj6JzFSIjI1m3bp20TdIILAau2lpRmxwAgAyEY4LT09Pp06cPMTExoo2bRoawZk8SuYW6dKuEPrFN+ef9IzAa1Z/+WVlZDB48mBMnTojsKyoqOHz4MIsXL+add95h6dKlJCUlYTKZCAkJccp8YU3p3CKKwpJyDp5ynbYrHW15fspg+nds5uhj6FyHtLQ01qxZIzXfCOy/2jdrUw0AWP48+4FYifHQoUNZtWqVePNlWxP5+9e/iu3rKu2ahPPJk5Pw9ZLVYFxKSUkJQ4YM0aqX9oo0bdqUrl270qZNG9q0aUOrVq1o3LgxERERGI2uI1NcVV3NA+8uYl9SmqOPomNn+nZoynt/vtHRx9Cxgh9++IGJEydKzZ8B3rnaN2tbotMMzMAKAYQr8euvv7J79266dOki2nxkjzZ8vmwHZzL1oRbW0qh+EO/9+UZNHv4VFRVMnDjRpg9/gOTk5CvOLHd3dyciIoLg4GACAgJo3bo1X3/9tU3PooKb0cg/7hvBlDfmkl8sm4uh43p4e7rzzC2iSeo6DsDT01PF/Jr5Hde5rljPd4B4gPo771zVWbouRqOBPw2TOQ91kdAAHz58dDyhgeoh9aqqKqZMmcLKlSs1OJmMyspKzp49y6FDh9i6dSuRkZEOO4u1RIQE8NTN/R19DB07csewrjar+C8oKWfljmO88PkvfLxkiy5ApQGKgkDX9B5qWwQAoBTLRKQXJMbz58/n9ddfF9cC3Ni7Hd+s2kVqppKAQ63H29Oddx8eS6P66h9EZrOZadOmsWjRIg1Opg3jxo3jH//4h6OPYRUje7Rh8YaDupZFHcDX25NbB2k7yTQlPY+EfSfZdDCZvSfO/c9Df+exVF69a6jeZaBAenq6irnpWt+sbUWAFzmKpSWwxn8+s9mM2WwWK8UZjQYC/bxZtzdJZF8XcHcz8s60MXRr1UiT9V544QXef/99TdbSgvbt27N8+XK8vLw0We/42Sw+X7adz5Zt46dNhzl8Oh0vT3ca1AvURIrUYIA2jevzw6ZDuj5ALefWQZ0Y0EldYKuyqpqfNh/mrXm/8f4Pm9iWmEJadsFlojXpuUX8sOEg5aYqYptF4uFeWx85tuOtt94iMTFRar4K+O1q36xtRYCX8j1wm8TQz8+PU6dOUb++bPpVdbWZW9/4npPnskX2tRmDAV6+Yyhje7XVZL0ZM2bw+OOPa7KWFgQHB7N9+3ZatmypvFZVdTUzFm1i3rq9VFdf/mSODA1gYr9Ybh3UCV9vpTwhoM+1qO0YDPDj63cqh/83Hkhm+sL1pKTXrNYpNNCXqUM6c1P/Dpq8X+sCVVVV1K9fn9zcXOkS9wJfXu2btdkdS8YyEanGmEyWqMnQoUNFGxsMBsKC/Ph1p64L8EceHtdLsxDkggULuP/++1WkMjXFaDSyYMECevbsqbxWSbmJxz/8iZU7jl31Vl5UWsGOo6ks23aEtk3CaVAvUGnPhmGBLN5wUGkNHeelfdMI7hjWVWxfbTbz9n/W8+6C9aKi0dJyE9sSz7Bo/QGy8kuoH+xHPQ3qf5yB4rIKEk9nsOHAKZZsOsSOo6l0ahGlHPFYtGiR0rA64H0s44GvSG2OAIAl/CF6ivv5+ZGUlCQeEgRw97/nc0Dvs/6dif1ieeH2wZqstX79eoYPH05ZmfNUr6vOlLhIWUUlj334E7uOpVpt4+Huxmt3D2NoV7XIw8MzfmB7oi4QVBt5cnJ/ptwQJ7b/99wEFvx21ZZyEW2iwxkUF0O/Dk1p1VgWcbUnZjOcy87neGoWx1KzOHE2i6NnsjiXnf+7oz6sWyteuXMonh7q9+v4+Hi2b98uPi6WLoCrSqHWdgfgBmC11Pipp55S6grYlpjCn2f8KLavTfTv2Iy3HxqNmwZ98ocOHaJfv34qYTHNmTBhAosWLVLOyVdXm3lq5lI2HLiq035V3IxGZvzlRnq2ixbvv2qnpYJbp/bx4+t3iotul287wstfyTVSrCE82J+4FlF0imlAh+YNaNGwHp4OqBkwVVaRllPI2ax8zmYWWH7Nyic1q4DUzHxKyq48pthggPtG9eCBMT01UTNdvnw5o0ePVlniBHDNG0FtdwAAtgCimKyvry9JSUlK7Vz6jQo6xTTg48cn4OWh3nSSmppKr169SE21/nZsa9q1a8fWrVsJCAhQXuvt//zGf9btKdy0fgAAIABJREFUE9sH+Hox76UpRITIzlJWUcmwZz6jpPyaxcM6LkZ4sD/L/3WPyLakrILxL80mx84qp0ajgUZhQcRE1aNxeBDhwQFEhvoTFuRHSIAPAT5e+Pt6YbTiaVtuqiS/uMzyVVRGQUkZeUVl5BWVUlBSTn5RKeeyLQ/9jNwiqmuYVgzy8+alP93AwDhZ99gfKS4uJjY29op6IzXgI+Av13pBbWwD/CPvAAslhiUlJbz11ltMnz5dvPlTk/sz5Y25dbYftmlkCP/38FhNHv55eXmMHDnSqR7+wcHB/Pjjj5o8/Oet3af08AcoLCnntW/W8NFj40X23p7u9OvYjJU79GLA2kRciyix7Q8bD9n94Q+WaFhKRh4pGdcuNvTz9sTtgoS4t6cHHu5ulJRXUFVl+cwtM1VSYaqy2Tm7tmrE63cPIzzEX7M1X3rpJdWHP8Cy672gNgoB/ZEfsLQFipg5c6bVA2WuRExUPSb2EykTuzzB/j5Mf3gsgX7eymtVVFRw0003cfCg8xSpeXh4MH/+fE0q/jccOMX0hes1OJUl9fTbvpNi+34ddH342kZciwZi2x83HtLwJNpTXFZBQUk5BSXlZOQVcTYrn9zC0t9/z1YPfzejkYfH9WLm4xM0ffj/9NNPvPfee6rLZALXHSBQFxyAaiwjEUWUlZXx9tticwCm3diTIA0egq6El4c70x8eQ3S4ugBIdXU1U6dOVRmIoTkGg4HPPvtM3ClyKUfPZPK3z3+5YquflE9/3iru6e/csqFm59BxDppGhIrszmTmcer81cdp11VaNgzji2du4p6R3TUZYHaRo0ePcscdd2jR2fQtcOVihUuoCw4AwBxAHDf+9NNPpeMYAQj08+b+0fFie1fDaDDw+j3D6Nhcfuu4lCeeeIIFCxZospYWGAwG3n77be68807ltXIKS3ny46Wa59yPpWaxN0mm7BcR4i+uIdBxThqFy4r/dhxxnnSbM+Dr5cETN/Xj27/dSmwzbaW+MzIyGDduHPn5yiqyVcBMa15YVxyACkCsy1pWVsbf/vY3pQNMHtiBmKh6Smu4Co9M7MPgzi00Weutt95yKpU/d3d3PvnkE5566inltaqqq3n+sxWk5xZqcLLL+WW7OPNFr/byTgId58LD3Y1IoUN3JCVD49O4Lv07NmP+36dy+5DOmnQzXUp+fj4jR47k6FH5z+wlLACsEqGpKw4AwBdAitT4+++/Z8eOHeLN3YxGnppc+4euTOrfgT8N1WYg0nfffcdzzz2nyVpaEBYWxtKlS3ngAZG+1GX838INNer1rymbDyaLbfU58bWHBqEB4jD1yTQ9/B8dHsz7j4xj+sNjiQzVPjJWUFDAyJEj2b17txbLVQKvWfviuuQAVABvSo3NZjOPPfaYUm6mR9vGjO6pjQSuM9K7fROevVWbMaPr1q3j3nvvdRqVvz/96U8kJiYyfPhwTdZbtjWReWvVKv6vR1pOoTi10ESYM9ZxPlSKcNNzbBOdcgWC/X14ZEIf5r18O73bN7HJHjk5OQwbNkzLEeafAVYPDqhLDgDAV1gkgkVs2bKFJUuWKB3gycn9CA3wUVrDGYmJqsc/7hupSWjswIEDTJw4kfLycg1OJsdgMDB06FDWrFnDN998Q1jYNUdrW83h0xn847t1mqx1PUqFDoCvl4fGJ9FxFL7e8n/L7MISDU/iGgT6efPwuF78/OZd3Dm8q83EiFJSUujduzfbtm3TasnzwMs1MahrDoAJeENlgaeffpqKiusWV16VID9vnqxlqYD6QX68/8iN+PuoD/hITU1l1KhR5OXVbNCIlvj5+XHvvfeyb98+Vq1axeDB2sgXA2QXlPD0J0spN1Vqtua1MFXKWqC0UDLTcQ78vWVTKSsqq2zaP+9sBPv78MCYeJa8fif3jOyOjw2d4K1bt9KzZ0+tcv4XeQDIqolBXRAC+iPfAM8DIsmmpKQkPv30Ux555BHxAUb0aM2K7UfZpJCjdRZ8vTyY8cg4TarGs7OzGTp0qEOEfoKDgxkzZgyTJk1i+PDh+PhoH6UxVVbxzKfLyMgt0nxtHZ2r4SeMANSVh3/zqHpMHtCBMT3b2vShf5E5c+bwwAMPaD3H5Evg55oa1UUHwAS8DnwtXeDVV1/ltttuUwoJPzdlELe89t1VdaVdAaPRwBv3jqBVI/XQeHl5OePHj+fIkSManOz6uLu7061bNwYOHMjgwYMZMGAAnp62HVH673kJ7E9Ks+kef0T6gVYhjBzoOB9ubrJArzR65Ar4enkwoFNzJvSNpUsr++heVFRU8Mwzz9iiqykZeEJiWBcdALDoAjwOiEZjZWdn89e//pUvvvhCfIAGoQE8c8sAXp39q3gNR/PYxL6aVIubzWbuu+8+Nm7cqMGproyXlxddunShb9++DBw4kH79+mki32stX67YYXdFNU8PNwJ8ZOFfe6UodGyPqVImQ+7tWbseDz5eHvSJbcqwbi3pE9tUE3lyazl16hQ333wzO3fu1HrpEuBmoEBiXLv+ha2nGngKK6QSr8ZXX33F1KlTGTRokPgQY3u1ZVtiilK/tqO4sXc7bh/SWZO1XnzxRb799ltN1rpI8+bN6dmzJ/Hx8cTHx9O5c2eb3/Cvxg8bDzLzJ82qfK1mUFyMuP2rpEwfBlRbkJZzeNrxAWkrWjYMo2e7aHq1b0JciyiHTBecM2cOjz76qC3qmqqBOwBxf7rr/wvLWYslZzJWYmw2m5k2bRr79u3Dy0t2ywJ47rZB7D+ZxrkskQPnEDq3iOL5KXLH51K+/PJL/vEPsUYTYMnfx8fH06NHD7p37058fDzh4eGanE+VtXuS+Of368SyvFLc3YzcN7qH2D63yP7DX3RsQ70gX5Gdm9FAq0ZhHEutUV2Zw3B3M9K6cX06xUQR16IBnWKiqBco+7Nrwblz53jwwQdZunSprbZ4AVikskBddgAAngVGAKJE6dGjR5k+fTrPP/+8+AD+Pp78876R3Pv2AiqrnH9iYMOwIN5+aDQeGnjSCQkJTJs2rcZ2Pj4+DBo0iMGDBzNw4EDi4uJwc7O/Z3891u45wYtfrNRU499aHh7Xm2aR8l7+7Py61/5VWwnykxe0fvvCbSTsO8mSTYfYcfSM0xQG+nh50CKqHi0bhdEmOpyWjcJo2TDMadIWs2fP5oknniA3N9dWW3wB/Ft1Eef423IcR4BPuc7M5Gvx+uuvc8stt9C8eXPxIdo3jeCBMfF8vMT+YeKaEOjrxQePjCPYX71C/uDBg4wfP97qlsrAwEBGjx7NhAkTGDlyJP7+2k3fsgXfr9nLews31HiuuBbc0KWFshqjXgNQe3B3l3d7G40GBneOYXDnGMoqKtl97CwHk89zKDmdE2ezycwrstl7PDTQl/pBfkSE+NM4PJjo8ODff40ICXDKVtWzZ8/y4IMPsmzZdSfxqjAHeFCLheq6AwDwKjAVEI2tKy0t5S9/+QvLly9XOsTdI7pzPDWLX3dZJeFsd9zdjPz7wdFER6hP90tLS2P06NFWDb2IjY3lL3/5C1OnTsXPz095b1tTbTbzfws2MHftXofs3ywylL/fMUT5w7GyyjluejrquGn0pPT2dKd3bBN6x/5XFa+isoqzWfmkZReSV1RKXlEZeUWl5BeXYTabqao2U3xJp5OXhzteHm6//7e/jyeBft4E+npd+NWb+kF+hAX7OSRfL8VkMvHxxx/zyiuv2FrD5BvgHiwDf5TRHQCLcMKbKIwMXrFiBZ999hn333+/+BAGA7xy11DOZhdwODldvI6teOaWAXRv3Uh5ndLSUiZMmEBKyrXHMowcOZKnn35aUxEeW5ORW8TLX69i51HHTFDz9fbk7YdG4+utXuzoCukoHevQImJ3NTzd3WgWGaqUbnJ1VqxYwZNPPmmPFubZWB7+mv1w1jUlwKvxAXBSZYEnn3ySpKQkpUN4ebjzzoOjHVq4ciWm3NCZSf07KK9TVVXFLbfcck3py06dOpGQkMDy5ctd5uFfbTbz48ZD3Pr6dw57+BuNBl6/exhNI0M0WU93AGoP9YOdP3Lmihw5coTRo0czatQoezz830fjhz/oDsBFyoG/qixQVFTEHXfcQZVi6DQ8xJ93po1xmmKWgXExPD6pryZrPfvss/z885XFqtzd3Xn11VfZsWMHAwZoM1DIHuw5cY5731rAG9+uoaDEMbMLDAZ4ceoNDOgkr0P5I7oDUHvQHQBtycjI4PHHH6djx47KqV8rqAIeBR5D44c/gOskWWzPYaAPQolggDNnzuDh4UH//mpa/xEh/sQ2i2T1rhNUVTvug7h90wimTxuDp4f62+TLL7+8ardEvXr1WLJkCXfffbdTVvNfiR1HU/nn92uZuWQLGXmOlfZ96ub+3KRBhOZStiWeYc+Jc5quqeMY/jK+tyZdO3WdzMxMXn31VaZOncqGDRuotv1ncxEWkZ85ttrACesoHUpLYD8gnp/p4eHBli1b6Nq1q/JhNh88zdOfLHWILGvzBqHMemqSJvnDtWvXMmLECEymy8VlwsLCWLduHbGxscr72JqC4jJW7z7BwvUHOHYm09HHAeCBMfE8MCZe83XfX7yRb1ZpMp9cx4EE+HqxbromBeN1lqysLN555x0++ugjiors5uyfAiYBe2y5iXPEmZ2H48C/gFekC5hMJqZOncqOHTuUW9V6xzbhXw+M5NlPl9s1JNs0MoSZT0zU5OF/7NgxJk+efMWHv7e3N7/88otTP/zLTZX8tu8kv2w/xpbDp51KH/2ekd1t8vAHPQVQW6gfpIf/pSQmJjJz5ky++uorez74AZZhUfjLsfVGugNwOf8CbgNaSxc4cuQId999N/Pnz8eg2ILTv2Nz3vvzjTz32XKKSm0/OKh5VD0+fmy8JoWIOTk5jB07lpycK7+P3333XU0iJVqTV1TK9iNn2HggmYR9J51uYJPRaOCZWwYweUBHm+0h1Y/XcS7qBzu3XoazYTKZ+OGHH5g5cyYJCQn23r4KeBGLwI9dBER0B+ByyrHMVV6HQpHkwoULeeutt/jrX5VqCwHo2S6ab56/lSc++pnT6TZTlqJb60a8/eBoAnzl0sYXMZlM3HzzzRw7duyK3+/SpYtIBdAWVFVXcyw1i+2JZ9h2JIVdR886tPbiWnh7uvOP+0ZqMoTpWugRgNqBXgB4faqqqtiwYQMLFixg0aJFpKc7pA37NHAn8Js9N9UdgCuzHvgIeERlkb/97W907tyZYcOGKR8oOjyYL565iWc/Xc7u42eV1/sjk/p34Omb+2tWLPTwww+zZs3VZy29/PLLytERKaXlJhJPZ7D/ZBp7Tpxj9/GzlJY7//Cb0EBf/u/hsbRvGmHzvXQhoNqBngK4MiaTiQ0bNrBw4UIWL17sqIf+RRZgUfaz3e3uKugOwNV5HhgNiHurqqqqmDJlCjt27KBZM/UbW7C/D588MZF56/Yy86etmjy0/H08+ettgxjZQ5zxuIzp06fz+eefX/X7QUFBjBo1SrP9rkdWfjF7T5xjX1IaiSkZHE5Od7l59z3aNObVu4bZ7UanRwBqB3oE4L8cOnSI1atXs3r1ahISEuyd178SmViizT866gC6A3B1ioF7sUwNFF9Vs7OzmThxIuvXr9dk/rzRaGDKDZ0Z2CmGN79by7bEayvqXYsburTg6ZsHaPoh8fPPP/Pss89e8zVDhw7Fw0M0f+m6VJiqSEzJYF9SGvuSznHg1HlyClx3sI2Huxt/HteL24d0sav2ue4A1A7C6mgEwGQysXfvXrZt28a2bdtYu3Yt5845VVvrHOBJLEq0DkN3AK5NAjADeFxlkb179zJhwgSWLVumNDr4UqLCAvnosfFsOXyar37Zye5j1qUFjAYD8W2juX9MDzo2b6DJWS6ya9cubr/99uuKIbVo0UKzPc1mOHomg82HTrPl0GkOJqc7VaW+Cs2j6vHqXUNpG23/0cYm3QGoFUiLALdu3UpWVhaDBw/G19e5lEn/SGlpKYmJiRw+fJidO3eyfft29uzZQ1lZmaOPdiWSgIeA1Y4+COgOgDU8DwwGlEqu16xZw9SpU5k3b56mYje92jWhV7smJJ/PZeWOo2xLPMOx1EzKKv47zS0kwIdmDULp2Taaod1a0ri++kCfP3LixAlGjRpFYWHhdV/boIG643HyXDZLtyby687jpOVcf09XIsDXiwfGxHPzwI64GR0j1lmlOwC1AmkEYN26dbzwwgt4e3vTrVs34uPj6dmzJ507d6Zp06Z2F+wymUykpqaSkpLCqVOnOHLkCIcPH+bw4cOcOnXKHqI8qpQA7wL/BEodfJbf0R2A61OGpS1wJ6DUGL9w4UIefvhhPv30U00OdilNI0N4cGxPHhzbk+pqM0VlFZSUVeDr7UmgBlX91+L8+fMMHz6cjIwMq16v6plvTzzDkzN//h8npzZgNBgY16c9D4/rRUiA7Qa4WIMjxhjraIvRYCBM2M57MVxeVlbGxo0b2bhx4+/f8/T0pEWLFrRs2ZLo6GgiIyNp2LAhERERBAYG/v51MeXp6emJn58fZrP590l5paWlv38O5OTkkJOTQ3Z2NtnZ2b//d2ZmJikpKSQnJ5OWluYKD/krYQYWAs8CyY49yuXoDoB1HAaeAT5UXWjWrFnUr1+fN954Q/1UV8FoNFjGa9r4wQ9QUFDAqFGjOHnS+llK2dnZSnv2aNuY+X+fysdLtrBq5zGqq137YeXh7saI7q3407CuNG9Qd6eq6WhLsL+3uKvnWvnyioqK32/fOtdkA5Y8/05HH+Rq6A6A9XwE9MeizazEm2++SXV1NW+++abDWuG0oLi4mHHjxrFnT83UKvfv36+8d1S9QN64Zzj3j+7B7JW7WLXzmMtFBHy9PBjfN5apQzoTHuJcgi1mPQLg8kSGyouOz57VvtW4DpECvISl0M+pf5Bc9+njGAKA7UAbLRa74447+OKLL3B3dz0/LDc3lzFjxrB58+Ya2/r4+JCdnY2Pj3Zh7qLSClZsP8KqHcfYdzLNaaMCRqOB7q0bMyq+NYPiYvD19nT0ka7Iox8sYfOh044+ho4Cg+JiePuh0SLb6Ohozpw5o/GJaj1nsaj4fQo4l3zoVXC9J49jKQTGY3ECAlUX++abb8jLy2PevHmaPgxtTVpaGiNGjBDf5EtLS1m8eDG33367Zmfy9/Fk8oCOTB7QkfziMjYdTGbn0VT2n0zjdHoujrzQenm407llFL3bN2Fo11Z2682eO3cut912m8hWrwFwfRrUk0UATCaTs7XMOTtnsBT4zcKJCvysQY8AyLgZmIdGf38DBw5k8eLFhISEaLGcTTl69CjDhw/n9Gm122H79u3Zv38/RjtUuecXl7H/ZBrHU7M4lprFsTOZpGbm2+whFxLgQ8tGYbRvEkGPttF0at5Ak5HK1mI2m3nllVeYMWPG70VXNeXPM35U0pjQcTxPTu7HlBs619guOTlZE+GyOsBpLLNjvsRFbvx/RI8AyJgPtAP+rsViCQkJdOnShf/85z/06NFDiyVtwtKlS7nzzjuvOtynJhw6dIhPPvmEhx9+WIOTXZsgP2/6dWhGvw7//VCrMFWRmpXP2ax8UjPzScsuIK+ojNzCUrILiikuM1FcVkF1dTXVZjMlZSb8fTxxczPi6+WJh7uReoF+RIT4Uz/Yj/Bgf5pEhNCyUZgmg5SkFBcXc+edd7Jo0SKCg+XtnmbnTl3qWIG0BkDVua/lmIE1WG77PwLOryF+DXQHQM6rWGoBbtFiseTkZPr06cOLL77ISy+9ZJebsbVUVlby5ptv8tprr2naivPMM88wePBg2rTRpKSiRnh6uNG8QWitqro/ceIEkydPZu/evQBq7yH9+e/yRIbIHICUFD3ycwWyga+w5PdPOPgsmuE8TxnXwwzcDWzTasHKykpeeeUVJkyYoNwqpxWnT5+mX79+vPLKK5r34ZaUlDBmzBjOnz+v6bp1kYULF9K9e/ffH/6AUoeJ3gXg+kTWk5Up6Q7A75QCPwC3A42wtILXmoc/6A6AKqVYBgZp2hD7008/0bJlS/79739TUeGY1JLJZOL999+nQ4cObN261Wb7JCUlMXLkSLKyHCqJ7bIUFRVx1113MXny5Mvy/SoRAP3x79p4ergR4i8rLK7j1f+lwFIso3kjgInA91gE4WodugOgTjYwAkslqGbk5uby3HPP0bFjR1asWKHl0tdlzZo1xMXF8dhjj1kl7avK3r17iY+P5+jRozbfqzaxYsUKYmNjmT179hW/rxYBEJvqOAGRoQHi4VF1sAbgOJac/jggFBgLfIOl66tWozsA2nAGGI5lvKOmHD16lFGjRjF69GgSEhK0Xv53qqurWbx4Mf3792fIkCF2V/k6efIkvXr1YtGiRXbd1xXJyMhgypQpjBo16pof1moRAN0DcGVURIDqQAogBZiN5ZbfGGgFPAj8RC296V8N3QHQjkQsQ4OsE8SvIcuXL2fQoEF06dKFDz/8UJNKfLCE+/7v//6Pli1bMmnSJDZs2KDJuhJyc3O56aabuPfeezX789UmysvLeffdd2nTpg1z58697uuVVCb1579L0yBULlNSy1IApcAWLDLudwMtgSbAXVhu+akOO5kToOsAaE97YC1g0xmu7u7u9O3bl5EjR9KnTx+6dOlilZhQbm4u+/fvJyEhgZ9++ok9e/Y4ZcFXeHg4//rXv/jTn/7kkkqJWmI2m1mwYAHPP/98jWYuNGzYkNRU2efb/e8sZM8JXQzGVXlgTDwPjImvsV1OTg716tWzwYnsQi5wBNh1yVci4Foa4Xakbn+y2oZDwCBgFdDQVptUVlaSkJDwe1rAw8ODxo0b06xZMyIiIvD398fX15eioiLy8/PJysri+PHj4geCvcnIyOCee+7htdde4/nnn+eee+6pc45AdXU1y5cv57XXXmPHjh01tleqARBb6jgDDWpvB0ARlkr845d8Hb3wq15JXEPq1ieq/TgM9AZWYBEMsjkmk4mTJ0/W6IboCiQnJ/Pggw8yffp0/vrXv3Lrrbe6lGyyhOLiYr799lvefvttkpKSxOso1QA4YVRIx3rsLAK0BEs0uT6WyvmQC/9/LSWqaiAfKMESps8Hii/8dwZwHjgHpGPR2M/AEq4vkhxQ58roDoDtSAH6YSks6ePgs7g8R48e5Z577uHxxx/n1ltvZdq0acTFxTn6WJqSmJjI7Nmz+eyzzzSpgdAjAHWXyFDZdElhBOBRLJ931hCM5SFfLtlIR1v0IkDbkgMMAb528Dnsjc1ybgUFBcyaNYvOnTsTFxfH66+/7tJzyU+dOsXbb79N9+7d/7+9e4+yqrzvP/4+c59hmAEGmAsIw0UF1EE0hos3LGCMBEntb1rtL21ZtdH+2qReVhvTdJlau2xjbpVFjLFhGU2z7CqJvyxRsVSJAmJTcBAQJDIDw2VELiPDzMAZ5sLs/rHHiBdkz3efy37O+bzW2ou1cD/n2RzPzPM5z5Vp06bx0EMPJWwCpMtHTYtdLAaVxl0ADRMA+/C/qQd1HDX+kaEegOQ7hT/7dDPwfTL/Pd8D/B7wp8BXk1nR1q1b2bp1K9/85jepra1l/vz5zJkzh5kzZzJlypRIbaf8vr6+PjZt2sRLL73EM888Q0NDQ7of6RN5ET1OWc6tomwIBXm2w6cMQwAH0SQ7Z2V6YxQly4AtwM+AcWl+lmR5Fvhj/JR/J3533x+louK9e/eyfPlyli9fDkB5eTmzZs1i1qxZXH755UybNo3a2lpyc1N3Kh9Ae3s7mzdvpqGhgXXr1rF27Vo6OjpSUvfp06fNZdX8uyvFewBEftagnJ0CQGqtBy4FfoR/pHCm6Aa+CXyHD9oOD78XoAS/RyCl2tvbWb16NatXr/7t3xUWFjJlyhSmTJnC1KlTmTBhAtXV1dTU1FBVVWVe/hSPxzly5AjNzc3s3r2bpqYmmpqa2LZtG01NTWmbUBcmAIi7FAAkKAWA1GvDP0HwWfwhgVHpfZzQNuEPcez4hP/Wh/9vfRj4Siof6pN0d3f/dtjgkxQWFlJZWUlZWRmFhYWUlJRQWFjIkCFDKCgooLOzk76+Pnp6ejh58iStra20trZy8uTJFP9LgglzeFOO5g84q9oYAHp6eiwHc2XUrkHZRgEgfX6Gv0zwO/i7Urn2G/ck8CD+83/aGOBp/LkAzQP3Rm9gfkB3d7cL66ADC9MDkJvj2sdR3medANjS0mIJjTrK02GR/WWcJd7D7ya/CtiQ5mcJygP+DZgC/DPBJwB9H/gC/rpeSYEwASCKEyglGOsSQOMeAHFTZRIJ+imPhtfwQ8AXge1pfpZP85/ATPyJfpYtBV8Apg/8KUkWZghAPQDuSvEugF2myiQSFACi5RmgDliIf55AFPQDvwAuBz6PP+YfxmH8f99f4q8WkCQJNwSgXw2usk4CVADIPvopjx4PWAXMw/+2/DBJOmHwHPYC9wMTgHr8fQwSxQN+CFyIv0mSVp0lQahJgOoBcFJRQR7lQ4pMZY0BIKuOz800CgDRtg24GxiLP37+Q/yNdpKlCfgecC0wCfgHkrvM5wj+CoIrgbVJrCcrqQcg+4Q5Blg9ANlHqwDc0As8P3ABXADMxe8hqBu4BvuTfxL/FK3X8ScgbgDsJ8+E89/4/565+L0O16bpOTKKVgFkn+qKlO4BAAoATlMAcNOuget9MWA8fk9BDf4OfOV8uIenE3/JzlH8b/X7iV7X+yv4IeBK/H0DbgYK0vg8UdOIf775TUFu1hBA9gmzCZDhHABQAHCaAkBm8PDH7Pem9zES5v0eiSrgy/j7JExM5wOlUQ/+plE/AtYA/4eAAUBDANnHGgBCbGilAOAw/ZRLlB0C/hF/PsIs/AmRgzl5zFUe8Crw50A1fqP/0sDfD2rSlTUEaAjATWNGlpvKhdgASwHAYeoBEFf8z8B1N3AR/qTI+cA1ZMYwwWng18DPgac5+z5kzKMXAAAVaElEQVQLgzpK1XoOgTYCctOYkbZJgM3NzdYqU3OylSSFAoC4aMfA9RBQir850VXAHPyeAvtU6NTx8Dd9WjNwvQKcCFBu0D0AeXmD/zFXD4Cbaow9ACECQJDPrESUAoC47gQfNKLgD2tNBmYAlw38OQU4Ly1P94H9+Ms6N55xtRleJ0VDAOoBcE1xYT7DS4tNZY0B4BT+CiVxlAKAZJp+Plgl8R9n/H0p/sZDFwK1+IFgHP7qiZFABeF+HuL4+xq04B98tA9/UuZb+L0VieoqHVQAsK4E0CoA91RXlGE9xNEYANT97zgFAMkWJ4CGgetsRgDD8ZdRFgBD8IND/hn3xPHH4dvxD0J6D2gldYeiqAdAPtFY4/g/wJ49pv3FOs0VSiQoAIh84NjAFWWDmgRoDQB5ueoBcI31ECDP86yrANQD4DjFfBG3DKoHoKenx1RJzNqXLGljXQL47rvv0tVlWs2nHgDHKQCIuGVQAeDUKdtZLRoCcE8algAqADhOP+UibklJAMjL1a8G11iHAEIEgHZrQYkG/ZSLuKUbf6VDsJu7BzVl4LcK8zU9yDXWHgDjBEDwJ8CKwxQARNwTuFW39gAU5Oeaykl6DCstZkiRbUPMED0AUZ8wK+egACDinsCtur0HQAHAJTUhlgAqAGQvBQAR9wQOANYeAA0BuGWMcfwfQgUADQE4TgFAxD2B12zZhwAUAFxi7QHo7e3lnXfesVarHgDHKQCIuEdDAPIh1j0A9u3bZ94sCvUAOE8BQMQ9GgKQD6lJ/RJAsB1mJRGiACDinqQHAA0BuGXMqLQEAPUAOE4BQMQ9yR8CyNMQgCtyYjEqhw81lQ0RAHpQD4DzFABE3BP45EHzEECBegBcMWpYKQXGwBYiABwBPGthiQYFABH3BN6DXRsBZT7rDoAQKgC8a65UIkMBQMQ9gQOAfQhAPQCuCBMAQmwDfMhcqUSGAoCIe5IfADQE4Iwa4xLAEydO0Nraaq1WASADKACIuCf5QwCaBOiMNBwDDAoAGUEBQMQ9HUFv1D4AmS9NewAcDlNYokEBQMQ9gXsAuroC7xr8Ifl5ueTEYqaykloKAGKlACDinsAB4MSJE6YKYjE/BEi0FeTnMnLYEFPZEBMAAfaHKSzRoAAg4p7AAaCjI/BowceUFOWby0pqVI8oM/fU7N27N0zV+8IUlmhQABBxT+BWPVQAKCwwl5XUSNMSwG78jYDEcQoAIu5JSQ9AabECQNRZTwGEUD0A+9EugBlBAUDEPYEDQGdn4Fs/ZogCQOSdN9oWAI4ePWqeH4LG/zOGAoCIewJ/rW9vbzdXUlpUaC4rqTF21DBTuZATADX+nyEUAETcE/hrfTwep6+vz1SJhgCib9xoWwBobGwMU+2BMIUlOhQARNzTjX8cayDWYYAhRQoAUZYTi1FjnATY1NQUpupQGwhIdCgAiLgp6RMBNQcg2qpGDDVv2RyyByBUYYkOBQARNyU/AKgHINLGGicAQugeAAWADKEAIOKmpO8FoAAQbdbxfwgVANqBo+aKJVIUAETclPQAoEmA0TbWuAdAW1sbx44ds1arb/8ZRAFAxE3vBb1RASAzjau09QDs2rUrTLUKABlEAUDETUkPABoCiDbrHgAhx/9DFZZoUQAQcVPgcVh7D4A2AoqqnFjMfA5AyADwdpjCEi0KACJuag16o/YByDyjh5dSmJ9nKhsyAGwPU1iiRQFAxE2BhwCs2wFrDkB0pWkFQB/wG3PFEjkKACJuCtwD0Noa+NYPKRtSRG6OfkVEUW3VCHPZEJsAvY2/C6VkCP10i7gp8BwAawDIicUYPrTYVFaSq7bK1gPQ1tbGe+8F7jz6KHX/ZxgFABE3BW7Vjx6179syQgEgkmorbT0AO3fuDFPtm2EKS/QoAIi46XDQG609AAAjykrMZSV5aquHm8r95jehhvDVA5BhFABE3NRJwN0Aw/UAKABETUlRAaPKS01lQwaALWEKS/QoAIi4650gN8XjceLxuKmCkeUKAFFTWzWcWMxWNkQAOALssxaWaFIAEHFXoAAA9mEA9QBET22lrfsfQs0B2GSuVCJLAUDEXYEDwOHDgacMfIjmAERPbZUtAHR3d9Pc3GytVgEgAykAiLirJeiNBw8eNFVQoQAQOdY9ABobGzl9+rS1WgWADKQAIOKuwD0A1gAwXEMAkWPtAQg5AfD1MIUlmhQARNyV9AAwUj0AkVJUkMd44zHAIcb/9+JPApQMowAg4q69QW+0BoBhpcXk5BinnEvCXTB2lHl75hA9AK9aC0q0KQCIuGs34AW58Z13AncWfEhOToxhpdoNMCouOG+kuez27eZ9fF4xVyqRpgAg4q6TwKEgN1p7AACqRgw1l5XEmjputKlcV1cXb731lrXatdaCEm0KACJuC3S2a0tL4AUDHzOmosxcVhLrwvNGmcpt27aNvr4+S9GDBPyMiXsUAETcFuiXc1tbG8ePHzdVUK0AEAlFBXlMqqkwlW1oaLBWq2//GUwBQMRtgb+dWTeBqVEAiIS6SdXk5+WayioAyCdRABBx2+6gN+7Zs8dUQc1IBYAouHRSjbnsG2+8YS36X+ZKJfIUAETcFnhtl7UHwLruXBLrsvPHmMp1dXWxY8cOS9HfAOa9gyX6FABE3LYT6Alyo7UHoLqijKKCPFNZSYz8vFwunlBlKvvaa6/R0xPoI/JRL5gqFGcoAIi4rQcI9PXOGgByYjHz/vOSGDPOrzGHsFdeecVa7SprQXGDAoCI+7YGuSnEOnAmVisApNM1l0w0l3355ZctxU4A682VihMUAETctyXITQcOHDAvBbQuP5PEuLqu1lQuHo+zaZPpIL81QLepUnGGAoCI+wIFAMA6GYyLJ1Saykl4E2sqGDOy3FR2w4YN1vH/p00VilMUAETct5WAZwK8+eabpgqmjq80H0Ij4cydbu/+f+mllyzFuoGV5krFGfqJFnHfcQIuB7T2AJQU5jNpjIYB0uHGmVPMZZ955hlLsdVAu7lScYYCgEhmCLRjW4gd4bjiwrHmsmJTN7Ga2qrhprI7duzg7bffthT9halCcY4CgEhmCBQAXn/9deLxuKmC6y6dZCondl+YPdVc9umnTcP46v7PIgoAIpkhUADo7e019wLUTaqmoqzEVFYGr6Qwn+s/c4G5vLH7/3nU/Z81FABEMsO7wK4gN27YsMFUQU4sxuIrLzKVlcH74lUXU1pcYCq7d+9eNm/ebCn6uKlCcZICgEjmWBfkpvXr7fu71F9bZz6RToLLz8vl/86/1Fz+pz/9qaXYIfwJgJIlFABEMkegvdvXrFlDR0eHqYJRw4aw4PLzTWUluM9/9kIqhw81le3v7+fxx01f5H8C9JkqFScpAIhkjv8EzjnDr7u7m1Wr7Nu83zrP/s1Uzi0/L5clN3zGXP7FF19k3759gy3m4QcAySIKACKZI07AXgDjDHEApo4bzYzJ9rPp5dPdct10xo22H8H84x//2FJsLdBorlScpAAgkln+f5CbVq1aZT4XAODWeTPMZeXsRgwt5rYbP2suf/jwYVauNK3ie9hcqThLAUAkszxHgENc4vE4TzzxhLmSudMnmvenl7P7yy/OMc/8B1i2bBm9vb2DLdYIPGuuVJylACCSWTqAF4Pc+Mgjj+B5gY4Q+JicnBh/ttD+TVU+bs5F47lpjn2ZZXt7O4888oil6FKg31yxOEsBQCTz/DzITU1NTaxZs8ZcycKZU5hYPcJcXj4wYmgxf/8nC4jF7K/x8MMPW4Z12oAn7LWKyxQARDLPSgKe5f7oo4+aK8nJifHnN80ylxdfLAb3L7k+1C6LHR0dLF261FL0h8BJc8XiNAUAkcxzHPivIDeuXLmS3bt3myu67tLJXHb+GHN5ga988UrmXDQ+1GssW7aMtra2wRZrB74fqmJxmrb0EslMOcDN57qpv7+fU6dOsWjRIlMlsRhcVFvJL1/dQb9xPkE2u/nqi/nq714Z6jUOHTrErbfeSnd3oE6fM32bgMtGJTOpB0AkM60EuoLc+OSTT9LS0mKuaGJNBb8/t85cPltdd+kkvn7rdaFf56677rLs7Hgc+JfQlYvTFABEMlMn/slu59Td3c33vve9UJX9v5tmM67SvnlNtvn8Zy/kn7/8eXJyQsz6A9atW8eKFSssRf8FPwRIFgv36RORKPs94BdBbiwpKaG5uZnRo0ebK3tr3xH+9Nsr6DutFWWf5pbfmc499deQE2bKP9DX18dll13Gm2++OdiiB4ELgROhHkCcpzkAIpmrGfgroPBcN/b29pKfn8+8efPMlY0aNoS+/n42N75jfo1Mlpebw931V3PHF2YRC9n4A9x3333WLZ3/Ang99AOI89QDIJLZ/g34UpAbS0tL2bVrF9XV1ebK+vs97nn0WV59c6/5NTJR1Yih/NNtN1A3yf7enmnt2rXMmzeP06dPD7bor4E5+If/SJZTD4BIZusB/jDQjT09tLW1sXjxYnNlsViMqy6ZwCtbd3P8xCnz62SS+Zefz9Kv3JSwORJHjhxhwYIFlol/HlAP2Gd8SkZRD4BIZssD9gKBFuvn5ubS0NDA9OnTQ1V64Ohxbvv2zznWGWghQkYaO6qcv/79a7nqktqEvabneSxcuJAXXjCt3lsOfDlhDyPOUw+ASGbrB4YB1wa52fM8tm/fzpIlS0KNU5cPKWLOxbX8anMTXT195tdxUWF+HrfdeAUP3nYDExK8VfI3vvEN6yFOB4HfBdQtI7+lACCS+ZrwJwMGWva7f/9+qqqquOKKK0JVOmJoCVfXTeRXb+wm3j3oE+qcU5CXy+IrL+I7dyzkmroJ5OYmdpX1Y489xte//nVr8T8CtiTwcSQDaAhAJDs8D9wY9Oby8nJ27NjBmDHht/ndf+Q4f/2j59lz8L3QrxVFJUUF3Hz1xfzxgssYEWI//0/zy1/+kvr6esukP4Cf4QcAkQ9RABDJDvMJeEzw+2688Uaee+65hCxZi5/q4e+feJGXt9jPHYiaKeNGc/PVF3PDZy+kpDA/afWsW7eOG264ga4u03yKA8ClwLHEPpVkAg0BiGSHPcAioCZogcbGRsrLy5k9e3boyvPzcllw+QUMLSlgy+53nd0saPjQYhbOmsrf3noddyyaxdTxo8nPS96v0VWrVrF48WJr498H3AS8ndinkkyhHgCR7HEL8O+DKZCfn8/69euZOXNmwh7iyPETfPc/1vKrN9zoDSgrKeTquonMv3wys6eNJy/BY/tn89RTT7FkyRJ6e83zJ/4G+G4CH0kyjAKASPbIA3YBEwZTaPLkyWzcuJHhw4cn9GHWbWvm8Rc2sb35UEJfN6ycWIwp40Yxa9p4Zl80nrqJVeTmpPbYlGXLlnHXXXfR32/uKXkWWIw2/JFPoQAgkl2WAD8ZbKG5c+eyevVqCgoKEv5Am95u4cnVr7Nx54G0HCkci0Ft5QimT67mMxeMZebUcQwfWpzy5wD/YKa7776bRx99NMzLNAKz0Li/nIMCgEh2yQEa8CeGDcqSJUv4yU8GnR0Ce68jzprNTby0uZEtjQeTFgaGFBUweUwFdROrmXF+DXUTqxlWmp4G/0zNzc3U19fT0NAQ5mWOAbPxe3pEPpUCgEj2WQg8Zyn4wAMPcN999yX4cT6uI97NW3sP89a+w2xvPkxjy1FaO+L09gVbBpebk8OIocWMGjaE80YPY/KYkUweU8GkmgpqKsqS/PSDt3LlSpYsWUJbW1uYl+kBbgBeTsxTSaZTABDJTmuA37EU/Na3vsW9996b4McJ5viJLo51xDnW2UV//0d6CGL+5kMjhhYzfGgJCVi9mHTHjh3ja1/7Go8//jheuB4PD/gT/MOfREREzmoG0IvfcAz6euCBBzwJZ8WKFd7o0aNN7/9Hrn7gq0n/xIiISMZ4iBANz/3335/uNtRJjY2N3uc+97lENPzvX+npjhEREWcVAjsJ0fjccsstXjweT3eb6oQDBw54d955p1dYWJjIxv9vk/wZERGRDDUXvwvZ3AjNmDHD279/f7rb18hqbW317r33Xq+4uDiRDX8/cHdSPxkiIpLxHiFkgzR27Fhv7dq16W5rI2X37t3ePffc45WWliay4feAbuDWpH4iREQkKxQCGwnZMMViMe/222/3Ojs70932ptWrr77q1dfXe7m5uYlu+D2gE/hcEj8LIiKSZcYDrSSgkZo8ebK3fv36dLfDKXXo0CFv6dKl3tSpU5PR6L9/NQF1yfoAiIhI9pqHf4Jc6MYqFot59fX13q5du9LdNidNPB73VqxY4S1atMjLz89PZsPvAc8DiT2MQURE5Ax/RwIbrvz8fO+OO+7wWlpa0t1eJ0Rra6v31FNPefX19Yme1He26zRwH9q0TUREkiwGLCfBDVlxcbF3++23exs3bkx3Gz4o/f393ubNm70HH3zQmzNnTrLG9c927cVfpSEiIpISecAzJKlhmz59uveDH/zAa2trS3f7/jH9/f3ejh07vMcee8z70pe+5NXU1KSywT/zWg4MTeT/VJGPUreSiHySQuBp/IODkqKoqIhrrrmGBQsWcP3113PJJZcQS/EG/vF4nG3btvHaa6+xbt06NmzYQGtra0qf4SP2AV/BeFiTyGAoAIjI2RQCvwC+kIrKqqqqmD9/PrNnz6auro66ujrKyhJzcl93dzd79uyhqamJnTt3smXLFrZs2cKuXbs4fTrYCYNJ1g18F/gnIJ7mZ5EsoQAgIp8mD3gU+LN0VF5ZWcmECROYMGECo0aNoqKigoqKCvLz8ykrKyM3NxeAzs5O+vr6iMfjtLW1cfToUQ4dOkRrayv79u2jpaWF/v7+dPwTgngeuAfYle4HERER+ag78Wekp2tMPBOvXwPXDeZ/goiISDr8AdBB+htO169NwE2DfO9FRETSqhb4b9LfiLp4vQosGvQ7LiIiEhGFwMOEPEUwS64TwL8Cl5reaRERkQi6GthG+hvZKF7bgb8Cys3vroiISITl4U8QbCf9jW66r1bgMeCqUO+oiIiIQ8YAPwJOkf6GOJXXO8Aj+Acp5YZ+F0VERBw1FliKv5lNuhvnZFx9wP8A/wjMAXIS87aJiIhkhkrgQeAA6W+0w177gB8D9cCIRL5JIiIimSoHmA88CXSS/sY8yNUM/Az4C2BK4t8SkWjQVsAikiql+BvgLASuB0am93EA6AXeAF4buDYAB9P6RCIpogAgIumQA0wHrsQfS/8MMInkjqm34y/P23LGtR1/4qJI1lEAEJGoKAGmARfg7zhYC9Tgj7tXDFw5A/cV4m9E1D5QtgN/052jwJGBPw8Bu8+43kvJv0LEEf8LBVuiGnecSTUAAAAASUVORK5CYII=;" parent="1" vertex="1">
          <mxGeometry x="103.04000000000002" y="-811" width="60" height="60" as="geometry" />
        </mxCell>
        <mxCell id="ORMudLoAq7WYr6hYme3h-9" value="" style="shape=image;verticalLabelPosition=bottom;labelBackgroundColor=default;verticalAlign=top;aspect=fixed;imageAspect=0;image=data:image/png,iVBORw0KGgoAAAANSUhEUgAAAgAAAAIACAYAAAD0eNT6AAAAAXNSR0IArs4c6QAAIABJREFUeJzt3XmAXGWd7vHnd6o6G0u6q7tDiEFDUgGMCyPIjIozbowrqKMSddSZQdGmuyGK6FXGe+eGcdxgBAlJd+JudFSiiFfZBlEzIrhgRhYJJF3dybAlpLcsJKSXOr/7RxJkSdLV3VX1VtX5fv6B7pzlOemG89R7znmPBAAAAAAAAAAAAAAAAAAAAAAAAAAAAAAAAAAAAAAAAAAAAAAAAAAAAAAAAAAAAAAAAAAAAAAAAAAAAAAAAAAAAAAAAAAAAAAAAAAAAAAAAAAAAAAAAAAAAAAAAAAAAAAAAAAAAAAAAAAAAAAAAAAAAAAAAAAAAAAAAAAAAAAAAAAAAAAAAAAAAAAAAAAAAAAAAAAAAAAAAAAAAAAAAAAAAAAAAAAAAAAAAAAAAAAAAAAAAAAAAAAAAAAAAAAAAAAAAAAAAAAAAAAAAAAAAAAAAAAAAAAAAKDWWOgAAA4vu7z3FItS/+Ty2aGzTIzl4pRW9rRkHgidBMCfUQCACrags+98c7tCUjp0lknaIdfiXHvjzaGDANiHAgBUqBNWDp4cx/EdkupCZymSrcNKLXqgrX4wdBAAUhQ6AICD8zh+r2rn5C9Js6dY/MbQIQDsQwEAKlT1XvM/NHPNCZ0BwD4UAKBSeQ1eoqvFYwKqFAUAAIAEogAAAJBAFAAAABKIAgAAQAJRAAAASCAKAAAACUQBAAAggSgAAAAkEAUAAIAEogAAAJBAFAAAABKIAgAAQAJRAAAASCAKAAAACUQBAAAggSgAAAAkEAUAAIAEogAAAJBAFAAAABKIAgAAQAJRAAAASCAKAAAACUQBAAAggSgAAAAkEAUAAIAEogAAAJBAFAAAABKIAgAAQAJRAAAASCAKAAAACUQBAAAggSgAAAAkEAUAAIAEogAAAJBAFAAAABKIAgAAQAJRAAAASCAKAAAACUQBACqVRXHoCMXm5qOhMwDYhwIAVCh33xw6Q/HFudAJAOxDAQAqVn615EOhUxSLSXdPaWq6KXQOAPtQAIAK1d0+K2dm75H0WOgsk2a6J1K8eP1iGw4dBcA+FjoAgMPLLtvVbKmhN7lFx4TOMl7mcinOeb7x+twSq5nRDAAAAAAAAAAAAAAAAAAAAAAAAAAAAAAAAAAAAGBSmAmwisxfNfDsVN4vcPlJLpsWOs94mDQq6SE3+2Z3a+a28a4/7xubpqX2Ht1urpe6NLMEEUvL1KvYb+pua/y2zHw8qy5c3vdXiuz9Lh3nUl2pIpaCyffKrCs1mrpqwwX1m0LnAfBnFIAqMX9532uiyK5RNZ78niqW/H/n2po+V+gKCzq3zjKv+6WkRSXMVS43z0xlzlzXYiOFLJxd0X+hTJdJSpU4V6k9Fkf2zp7zMjeEDgJgH14GVAWyy/qPjiJbreo/+UtSJNm/ZVf2v7TQFUx1K1QbJ39Jeu2O/MDFhSyY7Rx8kUyXqvpP/pJ0ZBTH33zeV3dkQgcBsA8FoApYnf5W0pzQOYooUuzvK2TBE7/We5Rcf1fqQGX2jwUtFcfvkZQubZRysuah4fwbQ6cAsA8FoAp4bFX3FrixRccWslQ8VNes2vgE/GQFHbvks0sbo/ys4GMHUGoUgGpgcWLv1fBUTd6nUovHVBhP8LEDFYYCAABAAlEAAABIIAoAAAAJRAEAACCBKAAAACQQBQAAgASiAAAAkEA1NMsYAKBcFqzo/1czS0/x0c+ub5/1WOg8GD9GAAAA47Kgc+B0M/2z5BcPWWrjgo7+D2mpcz6pMvzAAAAFe+FlW48w1ze1f4puk441aVW2eeB3CzoHTg8cD+NAAQAAFGzPjLplkmef8QemF5v7rdmO/jXzVw08O0A0jBMFAABQkOyKgbNkev9hFjFJZ0d5v3fBiv6PvXKpc59ZBaMAAADGlF22q1nyrxS4+JFmuuyhWQN/OL5j4IUlDYYJowAAAMZWN9wh03hfTX5ySvHvsx0Dn+AmwcrDDwQAcFjZzv7Fcr1jYmvbVMk/v/CYgZtP6Ox7VnGTYTIoAACAQ8ou6z9arismux13vSZ2/XHBit5XFSMXJo8CAAA4JE/p05LmFGdr1mwW/SzbMfAJuVtxtomJogAAAA5q4YrBvzBTe5E3m5L889nOwW8tWuNTirxtjAMFAABwULHFl2n/hD/F5+8b7hv45b6nCxACBQAA8AwLOwfONOmMEu/mZUoP//qkzsF5Jd4PDoICAAB4qjWecvfPl2lvJ4x4fPv8qwZeUKb9YT8KAADgKRb0Drxf0vPKtT+Tjo1S8c+zy3tPKdc+QQEAADzJojU+xUyfKv+erVlR9Iv5K/pOK/++k4kCAAB4wnD/4AckPSfQ7mdGZjcv6Og9NdD+E4UCAACQJGWX+VS5Xxw4Rr3Jbsyu7F8UOEfNowAAAPZJDbxX0nGhY0jW7LFu4emA0qIAAAAkd5Ppo6FjHGDSsaMe3/Dsju0NobPUKgoAAEALVw6+SVKlDbs/d4rlf5xd5lNDB6lFFAAAgNz9wtAZDsr1N0r3f5V3BxQfBQAAEu6EVX0nSargt/TZexd0DFwUOkWtoQAAQMLlYztPUkV/wjbT57Idg68InaOWUAAAIMHmXv7gdHO9L3SOAqTl8dUnXtVbpFcTgwIAAAk2bfr0d0jKhM5RENMx+ZR995VLPR06Si2gAABAgrnbP4TOMD72ioePGQg9WVFNoAAAQEI9d1XvsVbRN/8dnLv+hemCJ48CAAAJNTIavUtSKnSOCUiboq8tWuNTQgepZhQAAEgq07tCR5iEk4f7BgK8tbB2UAAAIIFO6Ox7lqRqf/Xuxcd3DLwwdIhqRQGoAqYoHzpD8XlBx5SOC1uuyhR2TBbFJc5Rdm4+GjoD9onj6C2q8Gf/C1CXkr4UOkS1ogBUhTgXOkHRuXcVstjoSP0WSXtKnKbcCjp2mXeXOEf5xTV4TNXK/M2hIxSHv2rhir63hU5RjSgAVaCrqfGXkn4bOkcR7XBZRyEL5pbYkGRXljpQWZk+V8hiqdH4K5IGS5ymfEz3TJnVeGPoGJAWrdh2pOSvDJ2jWNzssnnf2DQtdI5qQwGoBostn7bo3ZJ+HzpKEWy1SGd3tzc+WPAaow2XSLa6hJnKZUTyT+VaG9cUsvCGC5ofiWM/26UtpQ5WcqZ7osgXr19sw6GjQBqy9F9LVktv2Juf3jvzI6FDVJtqv/6TKK9c6umHZw2+zuUnSlYXOs94mMtlemhkyG7YfGHD9olsY/6KvtPM9BJTNKPY+UrNTNs9im7JtdSPewh83hWD9XVT/A2SjnOrrv9m3XzU8p6bMqvxRk7+lWNhR/9lLn0sdI4i25WO646///yj+0MHqRZV9T8TAMDkZTv6/luyF4XOUXSuS3LtjUtDx6gWFAAASJBnd2xvmKJ8n2rzEvBgamr8nA0faN4VOkg1qMVfAADAIdQpfolq9//9DfHeVGvoENWiVn8JAAAHYeZ/GTpDKbn8o3Mvf3B66BzVgAIAAAlisWq6AMh0zLSpR5wTOkY1oAAAQIK46cWhM5Sc+YdCR6gGFAAASIgFnVtnSZoVOkcZnJxd3ntK6BCVjgIAAEkRp54XOkLZWIrLAGOgAABAQpjZotAZysb8vdwMeHjp0AEmYmFn/9vd/R8lmxM6ywSMyj0XpVKXbTyv4a7xrJjtHHyRPP8xyRaoKn92vkWy1bm2xh+Md81nd2xvmKr8P7v0UklVOOe37ZLin41O33X55nOO3zueNRd2DLzJpXMlP65U6Uoo76Zut/jynvOa/zDelRd2Dpzp0rlyn1uKcCWWd1O3PP5id1vzutBhJMndTrDkzP5SP3X6EW+R9P3QQSpV1f0qZFcMXCXz80PnKIJhud6Ta2/8YSELL1jR/04zfVtSVU0BfFDmHbnWpvZCFz9++eBzUlF8m6RnlTBVWZh0d53nT1/fPuuxQpbPdgx8VvKLS52rDEZdfm53W9O3Cl0hu6LvczL7ZClDlcmozN+fa236dugg2Y6B/yfVylsAx+bS9d1tjWeGzlGpquoSwIIV/a+vkZO/JE2RadXzvrojM9aCJ6za2WSmTtXCyV+S3Nqynf2vK3TxVBSvUg2c/CXJpRcOR6l/LWTZ+SsGXi55LZwAJSltsuUnXtVb0KjdCR0Dfy2zT5Q6VJmk5bbiuat6jw0dRPLnhE5QTia9es6qR6ru3SHlUlUFwEyLQ2cosszQ0Oirx1ooH4+eIamhDHnKx/WOQhabd8VgvaTXljhNuZ1dyEImP1tVOEp3GEfGqaig4uf7/o5q6diPGs5bJfweJ6oASJo+fXTq34QOUamqqgBI1hg6QbGZWdOYy8Qac5Sg+ox93JKUnmGNqq0TgeQq6NhNXnO/74X+3F1x7R17Af+tl9L+G+LqQ2YIITJ7Y+gMlarKCkDtKej1rhbX1gkQyeU1VubGIw577NPSM2qvVBXA5W8KnaFSUQAAIAHyaavBkcSCzJ+/ctvC0CEqEQUAABIgJaut+4jGweLo9aEzVCIKAAAkQBz5EaEzBGP20tARKhEFAAASwDyeGjpDKOb6q9AZKhEFAAASIUpsAZA0P7tsV3PoEJWGAgAACWCKa2MisQmy9NDJoTNUmiqcTx4AMF4WR6NuHjpGOG7Pk3TLof547uUPTp8yY+rcKK6bI/O5rrghkjW41OBSg7nVu/xISTJphqSDjKjYTpfnJQ2ZbMDdBy3SgMkHXbbVYz2Uivx/NjY2btViy5foSAtGAQCARIiHam1OrfFw0/Ozy3Y1x6mREyP5iR75CebRCTJfINccSY2KJSmWXDKZDtSlfX9rhUxi8eRlXGaS/M/fNZNiN2X7BkbV0f+Aue6Xab277o/ld09rbrxr/WIbLuqBHwYFAACSIIqG5QkeAZDOVXr43APXvc2fODuHkJY0303zJb1RJkUyDfcNDC/s6L/Lze9wRbfG6ZFfbvrgMY+WMgQAoMbFivcUMvEogpri0mlyO83kbamRtLId/evlulEpXZNryfxWVrzrOBQAAEiAlKX6Y49Dx8D4LZJpkWJdlF058JB19N/gbtfN7W24ce1SG53MhnkKAAASIB6O+0NnwCS55rr0IZn/5MFZAw9kOwY+u2BF/3ET3RwFAAASYO/oHgpADTHpWMkvNlNPtrP/B9mOwVeMdxsUAABIgIc+etzjkgZC50DRpeV6hxSvzXb0/2HBiv6C33tAAQCA5NgUOgBK6lQz3Zjt6FubXdk/5vsPKAAAkBAu/U/oDCgHe4Vi3ZbtGFh9wqqdTYdaigIAAMnRHToAysYkf1+cH7l3YefAmQdbgAIAAEnh/qfQEVB2s9z9J9kV/f9+6ip/yvsgKAAAkBAWpe4JnQFBmEwX7cwP3HZS5+C8A9+kAABAUozUr5c0qcljUL1cOm3U4zsWdAy8QaIAAEBi5JbYkOSMAiRbk8mvW9DR/2kKAAAkiUe3hY6A4CKTzqAAAECCeCQKACTXGgoAACRISvGtoTMgOHfphxQAAEiQja1ND0viccBku727vfFBCgAAJIxLN4bOgHDMfI3EUwAAkDhm8Q2hMyCY2KRrJAoAACROrrHpVrkeDZ0DQdy8/zIQBQAAEmex5RX5NaFjoPziyK468O8UAABIoDiOvhc6A8rNu3u2Ntx04CsKAAAkUE9vw+2SNoXOgfJx05e01OIDX1MAACCJllos+VdDx0DZbB16/PGvPfkbFAAASKhRj78uaSR0DpSB69KHPnrc40/+FgUAABJqc/usrZJ+HDoHSu7hPemhVU//JgUAABIsdr8sdAaUlss/9UjLnD1P/z4FAAASrKe96Q7Jfhk6B0rmzu5tjd8+2B9QAAAg6cy/EDoCSiKO3S548p3/T0YBAICEy7U2/qfEa4Jrjbu+0tOe+fWh/ryqCoDLR0NnKDr3Me/AdVnt3aVrhf0s8yM1+DMv8K5rM6u5Y3eN/fu+T1Rzxx5V+N32sdsnQ2dAUW0dsdTFh1ugqgqAye4PnaHY3LV+rGWiOKq541YBxy1Jmbr6RyTtLHGacivo2F2+odRByi4q7NiluPZ+51OFHnsYPe2ZX5uLlwTVBjezDz7QVj94uIWqqgBotO5LNfUCC9fPutsyvxlrsa72+ltVU6/v9F63kRWFLLmuxUbM7TOlTlRG7rJLCllwdCjVKdNDpQ5URrflGjO3FLJgnIo6JD1Y4jxlY9Kvu7Zmfh46x1jiyD4hqeZGX5LHOrpaM9eNtVRVFYDckqN6zf0tkuVCZ5k8/2mUrvt7mfmYi5q528g/1Ug73xi73tTdOntboSt0NTd80c0vlZQvYa5y2CXXB7vbMgWVuc0XNmx3j9/qUvWPBLh+VpeKz9ZiK+hn2NOS2WEevVkFjpZUuJvTqXjxoW7EqiTdrZk/SVoWOgcm5d69e3d/vJAFrdRJSiG7zKfGUf/Lo8gyobNMiEW5XGvDHyeyanZ57ymKogXFjlQObt4/tbHx1+sX2/BE1j+pc3DeiPIvMrd0sbOVnNvetKdvv//8o/vHu+qiNT5lqLfvdLOoqRTRSi2O4k09LU3rCiq7T3PqKq/bEfedLo+aS5Gt1FxxT3dr039P5NhDOfFrvUflh6L7Jc0JnQXjtkuRXpI7r7Gg4lyVBQAAUBonrBw8OXb/utxPCZ0F4xLL7a259sxPC12h+j5JAQCKbv/o4ifjOH6H+HBYddz9X7rbGws++Uv8kAEgsRat8Skj/QNnufsFkr0idB5MjLtWdbc3njfe9RgBAIAkWerR/ObBl5n87OG+/ndL1sxnwWrm1x3X23h+9wTW5KcOALVujaeyfQOnufnfmdu7JR0XOhKK4qbR6Tv/bvM5x++dyMoUAACoQQs7ts+PlT/DpDMkvUZSdT41hUO5ee/ePW996KPHPT7RDVAAAKDKZZf5VIv6/yKO9Jem6DTJT5c0P3QulIZL1+en73zHRD/5H0ABAIAqcuJVvXNGzJ5rKT1XrueZ7BRJfyFpSuhsKD2TvvWsbZlz1y6d/LtCKAAAUCnWeOr4HduaUkPpJov82NjteDObJ8XzJJsv6SRJ9aFjIgw3v7T7vMZPFmtiqXEVgOeu6j12NJ96VWzxyeb2HLkybpQIAJiEqSY1Sd4kWZP4YIZncrkuyrU3XlHMjY75i/bKpZ5+6JjBd7p7i0kvL2QdAABQFDvc/Jzu1qZri73hw57MF3YMvMmlL0meLfaOAQDAYd3pnj+7u31WSV6Ad/ACsMZT2b7+z0j2iVLsFAAAHI59e09q73mPtMzZU7I9PP0b864YrE9Pjb8v6XWl2ikAADioPebe3tXe9M1S7yj15C9OXeV1I9Hj12nfxBEAAKB8bk8pfuPG9uafl2NnT3kXwI78QIekV5VjxwAAQJL0mJl/quvRxuVaanG5dvrEJYCFHf3nuPT1cu0YAADo6sj8oo2tTQ+Xe8cmSc/u2N4wRfkuSY3lDgAAQALdFcd+Uc/5TWUZ7j+YtCRNsfwSOSd/AABK7AGXPtPdlPmaFls+ZBB75VJPPzhr4AGTjg0ZBACA2mU5d790anPmW+sX23DoNJKUfnj2wKss5uQPAEAJ3OlmX+hubPhB6E/8T5eOY/0tc/sCAFA0eyX/obt1drc33h46zKGkTTo1dAgAAGrA7831XUvX/cfGlqP7QocZS1rSwtAhAACoUnea6UdxnP9eqebsL5W0eLc0AACF2iWzX7j7DTaqG3JLGh8KHWii0pKmhg4BAEBFcj1q0u1u+lUcxb9+9tamO9cutdHQsYohLals0w4CAFCh+uXaJPP7zaN7XH5nXTq+576W5i1PXqgnVLoSSEuqqMcSAAAoUCxp8yH+bFTSLkmSabdcuyXvd7P+yL3PLep3j7ekotSmeDjelFvSuLNcoSsFIwAAgCrlN+Tams4KnaJaRaIAAACqkClaGTpDNYvEJQAAQPV5oKup4abQIaoZIwAAgCrkqyptat1qE8kZAQAAVJWRVN6/GTpEtYvcGAEAAFQR17UbLmh+JHSMaheZMQIAAKgerpib/4ogkjMCAACoEq77u9ua1oaOUQsiSUOhQwAAUBDTKpl56Bi1IJKUuNmPAABV6fGpU9KrQ4eoFZFkFAAAQDX4/r3nzhwIHaJWRDJGAAAAlS927wydoZZEcgoAAKDi3dbT3nRH6BC1hHsAAADV4MrQAWoNBQAAUOkemLstc23oELWGewAAABXNZMvXLrXR0DlqTaSYAgAAqFh7pkxJfS10iFrECAAAoILZN3j0rzQiKU8BAABUIo9S8fLQIWpVFHuKZgUAqDjmunFjS9P9oXPUqihKR1tChwAA4BlS+lLoCLUs2rt7F+9UBgBUmnu7WjK3hA5Ry6KHPnrc45K2hw4CAMAB7rqSt/6VVrT/n4wCAAAqg+vRoaE93wkdo9ZFkuQUAABAhTCzL+4fnUYJRZJkMm4EBABUgh35lL4cOkQS7L8EEDMCAACoBFf2tGR2hA6RBPtGAJwRAABAcLs1OoWJf8pk3z0Axj0AAIDgVuWWHNUbOkRSRJIUMwIAAAjKhyLzy0OnSJJ99wCk9UDgHACAJDNbvbG16eHQMZIkkqSeLQ0PSeKRCwBACPnY8peFDpE0+0YAllosqTtsFABAMvnVPefN6gqdImkOzAQoc/GXDwAoN4/z0edDh0iiJwqAm28MGQQAkET2054LMveETpFETxQAuTECAAAoJ5fZ0tAhkuqJAhCZMQIAACinNbnWhj+GDpFUTxSAYR9lBAAAUC55c78kdIgke6IAbG6ftVUS8y8DAMrhm13tTfeFDpFk0dO+zgVJAQBIkuFUPvWZ0CGS7ikFwE3cBwAAKLWODRfUbwodIumeUgAi9/WhggAAEuExt5HPhQ6BZ1wCiLgbEwBQMi59qbt19rbQOfD0EYB8ngIAACiV7SNK8ca/CvGUArDhguZHJG0NlAUAUMvMvvBAW/1g6BjY5+lPAUgSowAAgKJyacuMx4avCp0Df3aQAmAUAABAUZn8M3d/fPbu0DnwZ88sAO4UAABA8bjun5lq/HLoGHiqZxaAdIoCAAAomjhlF61rsZHQOfBU9ozvuFu2c6BfUkP54wAAaswvcm2NrwkdAs/0zBEAM5fsrgBZAAC1JR/n7SOhQ+DgDvYUgGTcBwAAmCz/cs8FmXtCp8DBHbQAeKzflTsIAKCm7HAbXRo6BA7toAVgSjr+VbmDAABqh5n/C1P+VraDFoD7Wpq3SMargQEAE3Hv0VFjZ+gQOLyD3wMgSe6MAgAAxstl8fk89lf5DlkATH5rOYMAAGqBfSfX2rw2dAqM7dAjAJZmBAAAMB67Uvn8J0OHQGEOWQC62up7ZHqonGEAAFXtX/a/VRZV4NAjAJJc4jIAAKAQd83dllkeOgQKd9gCYDIKAABgLHlX/IG1S200dBAU7rAFQHmeBAAAHJ5JV3S3Na8LnQPjc9gCkGvPrJfUV6YsAIAq49Lm6btHmPGvCh1+BMDMJb+5TFkAAFUmMrvg7o/P3h06B8bv8AVAkiy6oQw5AABVx7/b1Zq5LnQKTMyYBWBqXepGSfkyZAEAVA3v1ehUXvVbxcYsAPeeO3NArt+XIwwAoDqY67zckqN6Q+fAxI19CUCSRbqx1EEAANXCv9PV3vSj0CkwOQUVAM/H15c6CACg8rm0ZeqUug+HzoHJK6gA5Nqb/iiJ6R0BIOnM2+89d+ZA6BiYvIIKgMxcrptKnAUAUNFsdXdr07WhU6A4CisAkiwSjwMCQHJt0qhfEDoEiqfgAuAj+pmk4RJmAQBUpliKzsktadwZOgiKp+ACkFvSuNMl3g0AAEnj+nSureG/QsdAcRVcACTJpKtLFQQAUHlMumNmOvOZ0DlQfOMqAMNKXSMuAwBAUjyWj/LvWddiI6GDoPjGVQAeaKsfNNctpQoDAKgk1tpz3qyu0ClQGuMqAJIUy7kMAAC176u5tsx3QodA6Yy7AFjefixpbwmyAAAqw5/2pIaY7a/GjbsA7HsMxJgUCABq02PmvviRljl7QgdBaY27AEiSG08DAEBtstau9qb7QqdA6U2oADwe7f2JpN1FzgIACMjlK7nunxwTKgCPtMzZIxdvCASAWuH6Q376rgtDx0D5TKgASJLxNAAA1IptLr1t8znHc4N3gky4ANQ1N14naVsRswAAym9EihZ3tzc+GDoIymvCBWD9Yht26VvFDAMAKDO3jzDPfzJNuABIkqVSqyR5kbIAAMrKVufaMx2hUyCMSRWAXEt9t2RrixUGAFA2v9Vow4dCh0A4kyoAkuSmLxcjCACgbB6sS8Vvyy2xodBBEM6kC4CNNFwrbgYEgGqxKy87876W5i2hgyCsSReA/Q1yZRGyAABKKy+392xqy9wdOgjCm3QBkCS3kRXiBUEAUNHc/CO59sxPQ+dAZShKAehunb1NsjXF2BYAoPjcdGV3a9Py0DlQOYpSACRJcf7Kom0LAFBEfl13Y+ai0ClQWYpWAHLnN/+3TL8q1vYAAEVx257U8Du12PKhg6CyFG8EQJK5XVrM7QEAJuVPU6ek3/xIy5w9oYOg8lixN5jtHFgn91OKvV0AwLj01KXil/O4Hw6lqCMA+/gXir9NAMA4bIvj+A2c/HE4RS8AuUczP3RpQ7G3CwAoyA5Z9Pqe85s3hg6Cylb8EYClFpuJewEAoPwej2Rn5Vob/hg6CCpfCS4BSDOjzLcl7y7FtgEAB+NDLnv7xrbMraGToDqUpACsa7ERmS4pxbYBAM8wLPni7rbMjaGDoHqUpABIUu7Rxv+QdFeptg8AkCQNS/HZubbmn4QOgupSsgKgpRa7OaMAAFA6nPwxYUWfB+Dpsh39v5H0klLvBwAShpM/JqV0IwAHWHxxyfcBAIniQyZ7Gyd/TEbJC0CutXmtua4t9X4AIBl8yBS9vastc33oJKhupR8BkCRLfUzyobLsCwBq1265vZmTP4qhLAWgq62+x2XLyrEvAKhRA4r0t7n2xptDB0FtKM8IgKT01PjTkraWa3+Rs2NyAAAKaklEQVQAUCtc2hLn7ZW58xp/EzoLakfZCsCGDzTvMumfy7U/AKgJrvs9ZS/puSBzT+goqC0lfwzwKdwt2zlwi6RXl3W/AFCd1ml0yhtyS47qDR0EtadsIwCSJDM39/MlDZd1vwBQdeyXqanxqzj5o1TKWwAkdbU33Wdml5V7vwBQRa4enb7jjRs+0LwrdBDUrvJeAthv7uUPTp82bcZdkhaG2D8AVCiXtDTXmvm0zDx0GNS2IAVAkrIr+1+qWLdKSoXKAACVw4ek6NxcW+Y7oZMgGcp+CeCA3HmNvzHpilD7B4AK0m9x6rWc/FFOwQqAJPlo5n9L+lPIDAAQluXiOH5Z1/kNvwqdBMkStADklthQHMXnSBoNmQMAQnDpltEhO63n/OaNobMgeYIWAEnqOa/5Dya/JHQOACgjN+nfj9uWecPmCxu2hw6DZAp2E+BTLPVowayB/zTpjNBRAKDEHpP0/lxb4w9CB0GyVUYBkHT8Vx49JjWSvlPS7NBZAKBENrrZ27tbM9z7hOCCXwI4YNMHj3lUpn+SFIfOAgDF5z8dHYr+ipM/KkXFjAAckO0Y+IzkvDQIQK3IS/apXGvDpUzug0pSMSMAB+S2Nfwfc90QOgcATJZLW9z8tbm2zBc4+aPSVFwB0FKLo2nxuyStDx0FACbh5rznT+lubfpF6CDAwVTcJYADTuzoPTGv6HeSZobOAgCF8yFz+0RXW2YZn/pRySq2AEhSdsXAWTK/VrwvAEB1uC+KondvPK/hrtBBgLFU3iWAJ8m1Z35qZu2hcwDA2OzbM3aPnMbJH9WiokcADljY0X+ZSx8LnQMADqLfTC1drY3XhA4CjEdVFAC5W7azf7Vk7w0dBQD+zK9L5b1lwwXNj4ROAoxXdRQASfO+sWla+vGjr5f06tBZACRen7vO725vvDp0EGCiqqYASNKcVY/MmBFPvVGuvwmdBUBS8akftaGqCoAkZZf1H21p3eLSaaGzAEgS73XXx7rbm1aHTgIUQ9UVAEk6afnOxtHUyC/lekHoLABqn0nf99EpS3JLjuoNnQUolqosAJL0vK/uyAwNj94o6S9DZwFQqyzn7hd0tzfeFDoJUGwVPQ/A4dx77syB0aHodZJuD50FQM15XK5LRqfveAEnf9Sqqh0BOOCFl209YvcRdT826YzQWQBUPzP9PPK4fUNb84bQWYBSqvoCIElzL39w+rRp06+W7KzQWQBUrQdc/uHutqYfhw4ClENNFABJ0hpPZfsGr5ScqYMBjMdud11+xJ6RL9z98dm7Q4cByqV2CsB+C1f0f9hNl6uK728AUBajJn09nYqX3tfSvCV0GKDcaq4ASNLCzv63u2u1pBmhswCoOC7pRynFn+I6P5KsJguAJJ2wcvDkOM5fI9mC0FkAVAjXbyKzT2xsy9waOgoQWs0WAGnfrIGqs9Vyf0voLACCuk/S/821Nf4gdBCgUtR0AZAkLfVowayBS0z6lJJwvACerMekf+tqyqzWYsuHDgNUksScEBd09r3a3FZLelboLABKrselLxy3LfP1tUttNHQYoBIlpgBI0rwrBuvTU+OVkt4ZOguAkrjX3S89rrfxu5z4gcNLVAE4YGHnQIu7f1HSEaGzACiKO830b12PZq7VUotDhwGqQSILgCSd1Dk4b9TjVZJeGzoLgAm7U9Jnc62ZH8rMQ4cBqkliC4Akyd0WdvT/o5t9UVImdBwABXFJN8t1ea698ebQYYBqlewCsN+8FdtmpxX9u8z+XvydAJVqj8tXR65lXe1N94UOA1Q7TnZPMn9l74ujOPqSpNNDZwGwj0tbzPXltNdddf/5R/eHzgPUCgrA07lbtnPgHZIuk/Sc0HGABFvn7svq043fW9diI6HDALWGAnAIL7xs6xF7jkh/WLKPSmoMnQdIBh+SdE1kunJja9PvQ6cBahkFYAyLVmw7ctjS7ZL/L3GjIFAq90n2LY3WfT235Kje0GGAJKAAFCi7rP9opfURSR+R1BA6D1ADdrj8e+76ek970x2hwwBJQwEYp0Urth05ZKm/N9eFMp0UOg9Qhda59OUjdo/8x90fn707dBggqSgAE7XUo4XN/W+V2YUuvTx0HKDC/Y/cvxe7f6Pn/OaNocMAoAAUxfwVfadZZG3mWixpRug8QIV42E0/NNPVuZbMb5mpD6gsFIAiyi7rP9rTepdJ/yDmEkAy9Ut2g1w/mNvbcCMv5AEqFwWgRLLLe09RZOdK9k7x9ABqW79MP4rzfnXPrMa1Wmz50IEAjI0CUGKL1viUkf7B13ocv0tmb5F0ZOhMQBFslHSdm19fHzXeykQ9QPWhAJTRnFWPzJgRTz1Tbu+W/PWSpoXOBBRoWK7/Mun6WPnru9tn5UIHAjA5FIBA5l7+4PRpU484w8zPjKWzTDo2dCbgqbxXim6S/Kdxym7uacnsCJ0IQPFQACrBGk/N7x18qUXxWRbbm5lfAIFsl/xWydYqjtfm2pv+yJ37QO2iAFSgeSu2zU5b6q9NOsNNb5RrbuhMqEm7XPqdyW6JXbc1pBt+x7V8IDkoAJXO3Y7vHHxBSn6GS6+2fY8X1oeOhaq0TbLbzX2tFP1XV2/93VpqcehQAMKgAFShhR3b58c++vLI7PT9sxAuCp0JFWenpHvctU7ydea2LteeWc+QPoADKAA14ITOvmfFbi9z8xdHslPddYp4YVGSPObSH026w9z+kE+N/qGnpTnHyR7A4VAAatTCju3zXflTJT9VbqdIeqFMx4TOhUkZkbRRrnvN/J7YdK/i+J7u3uYehvIBjBcFIEFOWr6zcTTKP1/mi6T4+fJokeTPl9QUOhueYqekLjdtNGmDyzbErvXTmxruX7/YhkOHA1AbKABQdtmuZk0Zzso9K7es3BfILCtpgSgHJeK9Jtvs0maXNsvVZRZtrEuNbryvpXlL6HQAah8FAIc174rB+vQ0Ha/Y53oUP8dcc+Wa62bPlnScSXMkTQmds8LslutBmW2R4ofd9IikByNFmz3vm2Y8PrL57o/P3h06JIBkowBgctzt+K9umxWN1jUrzjdHSs1WFDfHbs0mzZZsluRNkmZq3+OLM1V970PY49IOM/XJrU/uvYq8T259Lu+LFPXHFm+NYm2JpvlDGz7QvCt0YAAYCwUA5bfGUydt21Wfj+KZsUYaPLb6VBRNc/kMl8+QbKpMR5lbWh7Xu1kq2lccnuAmk48xH4LLzbT9wJexy818/9fRoCSZaXvs7nLtiCLbrbztlGmnzHYOSYPzt83cxSttAQAAAAAAAAAAAAAAAAAAAAAAAAAAAAAAAAAAAAAAAAAAAAAAAAAAAAAAAAAAAAAAAAAAAAAAAAAAAAAAAAAAAAAAAAAAAAAAAAAAAAAAAAAAAAAAAAAAAAAAAAAAAAAAAAAAAAAAAAAAAAAAAAAAAAAAAAAAAAAAAAAAAAAAAAAAAAAAAAAAAAAAAAAAAAAAAAAAAAAAAAAAAAAAAAAAAAAAAAAAAAAAAAAAAAAAAAAAAAAAAAAAAAAAAAAAAAAAAAAAAAAAAAAAAAAAAAAAAAAAAAAAAABANfj/HdmwPlCvLWYAAAAASUVORK5CYII=;" parent="1" vertex="1">
          <mxGeometry x="204.95" y="-901" width="56" height="56" as="geometry" />
        </mxCell>
        <mxCell id="ORMudLoAq7WYr6hYme3h-10" value="" style="shape=image;verticalLabelPosition=bottom;labelBackgroundColor=default;verticalAlign=top;aspect=fixed;imageAspect=0;image=data:image/png,iVBORw0KGgoAAAANSUhEUgAAAlgAAAE7CAYAAAAB7v+1AAAABGdBTUEAALGPC/xhBQAAACBjSFJNAAB6JgAAgIQAAPoAAACA6AAAdTAAAOpgAAA6mAAAF3CculE8AAAABmJLR0QA/wD/AP+gvaeTAAAAB3RJTUUH4wUCCycE7xAd6gAAMhhJREFUeNrt3Xe4HmWZx/HvyUkIJAQSSAIkNCkG6V0QpOwwUqSsFAFZCAsIQ9d1LSzXrrKsfV1B2gCiBBYRwbWBoOPQQSTSi3RpAUIChPR6zv5xTyDlJDln3nnmmXfm97muXPFCnbnn5Z2Z3/vMM/fT0d3djUgeHR0dvksQEXFO90nJo5/vAkRERETqRgFLREREpGAKWCIiIiIFU8ASERERKZgCloiIiEjBFLBERERECqaAJSIiIlIwBSwRERGRgilgiYiIiBRMAUtERESkYApYIiIiIgVTwBIREREpmAKWiIiISMEUsEREREQKpoAlIiIiUrD+vgsQkWWL0rADGApsAIwE1gCG+K5LvJkGvAu8DbwCTImDpNt3USKytI7ubp2bkk9HR4fvEmonSsN+wJrAxsAOwM7AGGAEFrQGAwN91ynezAFmAFOAScCzwIPAeOAlYHIcJL5rrB3dJyUPBSzJTQGrGFEagoWmrYH9gL2B7YDV0GN8WbEu4D3gEeAOIAEeB+YobBVD90nJQwFLclPAal2UhqtjgeoIYC/sMaAe3Ute87HHh3cCNwJ3xEHyvu+i2p3uk5KHApbkpoCVX5SGQ7FgdQKwJ5pXJcWbBtwF/AQLWlN8F9SudJ+UPBSwJDcFrL6L0rAT2B04E3scONh3TVJ7M4DbgIuAe+MgWeC7oHaj+6TkoYAluSlg9U2UhhsCnwfGAqN91yONMwEYB1weB8mrvotpJ7pPSh4KWJKbAlbvRGk4AAiAc4HdAH1w4ks3cDfwbeD2OEjm+S6oHeg+KXkoYEluClgrls21Ogn4V2At3/WIZCYAPwSu0tysFdN9UvJQwJLcFLCWL0rD0cA3gGOAVXzXI7KEWcB1wDfiIJngu5gq031S8lDAktwUsJYtSsONgAuBT6NHglJd3cAtwNlxkLzku5iq0n1S8lATQ5GCRWk4BrgUhSupvg7se3phlIYb+y5GpE4UsEQKlI1c/QDYF4UraQ8dwIHABdn3V0QKoIAlUpAoDdfBwtUBvmsRyeHTwA+y77GItEgBS6QAURoOBr4KHIRGrqQ9dWDf369m32cRaYEClkiLssWajwZOBDp91yPSgk7se3x09r0WkZwUsERatzXwRWBV34WIFGBV7Pu8te9CRNqZApZIC7JHKWcCm/uuRaRAmwNn6lGhSH4KWCKt2Qs4zHcRIg4chn2/RSQHBSyRnKI0HImNXg3zXYuIA8OwUayRvgsRaUcKWCI5RGnYgf3C38N3LSIO7QEcln3fRaQPFLBE8tkEOBmtMSj1tgr2Pd/EdyEi7UYBS6SPojTsD4wFtvJdi0gJtgLGZt97EeklBSyRvtsFOB71vJJm6MS+77v4LkSknShgifRBlIaDgFOA0b5rESnRaOCU7PsvIr2ggCXSN/tjC+OKNM2B2PdfRHpBAUukl6I0XAs4DRjquxYRD4YCp2fngYisgAKWSO8dA3zSdxEiHu2OnQcisgIKWCK9EKXhx7BFcAf4rkXEowHAidn5ICLLoYAlsgLZ6+knofUGRcDOg5PUtkFk+RSwRFbsE8DRvosQqZCjsfNCRJZBAUtkOaI0HAqcDazjuxaRClkHODs7P0SkBwpYIsu3P7Cf7yJEKmg/1LZBZJkUsESWIUrDdYEzADVXFFnaIOCM7DwRkSUoYIn0IErDTuBYYCfftYhU2E7Asdn5IiKLUMAS6dnWwAmoLYPI8gzAzpOtfRciUjUKWCJLiNJwZawtw8a+axFpAxtjbRtW9l2ISJUoYIksbU/gcKDDdyEibaADO1/29F2ISJUoYIksInvt/HRgpO9aRNrISGydwqG+CxGpCgUskcUdDgS+ixBpQwF2/ogIClgiH4jScEPgZNSWQSSPQcDJ2Xkk0ngKWCJAlIb9gLHADr5rEWljOwBjs/NJpNF0EoiYHYB/RueESCv6YeeRfqhI4+lmIo2XvV5+KrCB71pEamAD4FS1bZCmU8ASgX2AQ3wXIVIjh2DnlUhjKWBJo0VpOBw4E1jDdy0iNbIGcGZ2fok0kgKWNN2RwF6+i5AVmg28n/2Z67sY6ZW9sPNLpJE6uru7fdcgbaqjo70bnUdp+FHgRrSOWhXNBV4DHgD+ArwOzMK6hq8KbALsik2mXgvQYsPV9DhwRBwkz/kupBW6T0oeCliSWzsHrCgN+wPnAeegJXGqpBt4CrgG+CXwJjA7DpLFLlRZG4BVgE2BY4HPAuv6Ll6W0g18G/h6HCTzfReT+yB0n5Qc+vsuQMST3YDjUbiqkunA1cDFwHNLhqpFxUHSBcwAHo3S8EngJuBrwAHoulYlHdh59kfgLt/FiJRJI1iSW7uOYEVpuBpwGfA537XIB6YB3wQujINkdp4NRGk4EhstOQ6FrKr5GXBqHCRTfReSh+6TkocmuUsT7Qcc6LsI+cAMLBj9KG+4AoiD5G1sFOtaoMv3QcliDsTOO5HGUMCSRonScB0gAlbzXYsANkdnHDZyNavVjcVBMgn4D+BO3wcmi1kNiLLzT6QRFLCkMbKJ0cdg86+kGp4CLoiDZGZRG4yD5HXge8Ak3wcni9kNOEbrFEpT6IsuTbIZcAKwku9CBLDHeNfGQfK8g23fDfzW9wHKYlbCzr/NfBciUgYFLGmEKA0HAKcAH/Ndi3zgZeD3LjacPW78PdCWk6pr7GPAKdn5KFJrCljSFJ8ADvddhCxmPPCiw+0/ALzi+yBlKYdj56NIrSlgSe1lbRnOBkb5rkU+0AU8WsTE9uWYiM3xkmoZBZydnZcitaWAJU1wMPAp30XIYmZhS+G41IVGsKrqU9h5KVJbClhSa1EargecDgz2XYsspguY43gf3dgi0VI9g4HTs/NTpJYUsKS2ojTswNoy7OS7FhFZyk5Y24b2XBJCZAUUsKTOtgFOAjp9FyIiS+nEzs9tfBci4oICltRSlIYrY20ZNvZdi4gs08ZY24aVfRciUjQFLKmrvYEjfBdRYV1ovT6XurCJ/NOxuWZaLXjZjsDOV5Fa0YrzUjtRGg7HJrav6buWipkEPAG8BLwJzAPWBtYHtsj+1uPU/BYAf8f6e/0Ne0tyJjAU2BDYCtgB+8w17+hDa2IT3sfHQTLZdzEiRVHAkjo6FAh8F1ER3dhN/3ps6Zi/A+/EQdIFH7wIMARYF/gH4FhgO0CdtnuvG+u3dTXWPf7lnvp7RWm4OjAG+CxwFDDad+EVEmDn7RW+CxEpSkd3t0auJZ+Ojur9CI/ScCPg5+jNQbAWBb/CFj5+fGGoWp4oDUcBJwNn4HYEcBpwQhwkN7naQZSGAN8Avu7wOGYDvwC+GwfJ072sqxPYAzgX2AuNGi40HjgqDpKXfBeyJN0nJQ/NwZLaiNKwPzAWG4FpuonAfwJnxEHyaG/CFUAcJG8A3wS+BLzh+yAqbg5wGXB2b8MVQBwkC4A7sIWPY2CG7wOpiO2Asdl5LNL2FLCkTnYE/hk9+n4KOBX4fhwk7/b1/xwHyTzgf4FzAM2J6VkXcC1wXhwkU/r6f46DhDhIXsU+43OwOXFN1x87f3f0XYhIERSwpBaiNByEhYomd4buAm7HblK/ioNkft4NZaMsP8fmFcnSHgK+EwfJ+61sJA6Sadgo2GnYxPimWw84NTufRdqaApbURQAc6LsIj+YANwAnxkEyPg6SljcYB8lc7BHWX30fXMXMBi6Ng+TFIjaWBeHfYI8M78beRmyyA9FLKlIDCljS9qI0HAGcBazhuxZPZgKXA2fFQfJykRvOQsT/oZv+op4E0iI3GAdJdxwkD2Ah6xYg9+hjDawBnJWd1yJtSwFL6uBI4JO+i/BkGvBt4N8d9hBK0FysRd0TB8lrLjacBdpTgWtodiPYT2LntUjbUsCSthal4RhsSZyBvmvxYCr2xt8P4iCZ6nA/LwAv+z7YipgLPOxyB9mbnOcCP8WawTbRQGwJnTG+CxHJSwFL2laUhv2wRypb+q7Fg2nAt4Af9dTUsmBzsAalYo/unPdpioPkLeztwmto7uPZLYETsvNcpO3oiyvtbFfgGN9FeDANG7kqI1yBPaqa7vugK6ILaOnNwd6Kg2QSNpI1jubOyToGO89F2o4ClrSlKA1Xw7qNN225kbLD1ULqNm76AauVtbM4SCYC/4aFrCY+LhwNnJGd7yJtRQFL2tX+wEG+iyjZbOC/KT9c9QfW8n3wFdEf+EiZO1wkZN3o++A9OQg730XaigKWtJ0oDUdjb1oN9l1LieYBVwIXlByuAIYBH/X9AVTESsD2Ze80DpK3gX8HbsUWl26SwVjz0aaNVkubU8CSthKlYQc2L2M337WUqBu4CTjf8duCy7I7sLbvD6FCPhGlYemfR7YI8peBv/j+ADzYDTgmO/9F2oIClrSbLYDjadZ6g3cC52aTnksVpeFg4BBgVd8fQoVsDezlY8dxkDwFfAUopIt8G+mPnfdb+C5EpLcUsKRtRGm4MnAysJnvWkr0NHBOHCS+2iTsA3zK94dQMYOB0zw+sroX+Drwju8PomSbASdn1wGRylPAknayO3AE0JTHBJOAb8RB4uWRUJSGmwJfpblLEC3PrsBXojQsfWQvDpJubML7BdiLD03RgZ3/u/suRKQ3FLCkLURpOBQ4k+bMBZoD/AD4tY+dR2m4AfAdYBffH0RF9Qf+GZt8PaTsnWcLcV+MLfDdJGsDZ2bXA5FKU8CSdnEI9riqKW4CLo+DpPTeR1Eabg1cBPwjzRktzGMI9qjum1Eajip753GQTMG6+T/o+4Mo2T7Y9UCk0hSwpPKiNFwPiIBBvmspyePAt7IbaGmiNOwfpeHBwP9ivYd0fVixwcBpwE+jNNyh7J3HQfIccD72OLkpBgFRdl0QqSxdQKXSojTsBI4DSr95efIu8O04SJ4uc6dZp+yzsV5bW/n+ENpMJ/YiwDVRGh4WpeFKJe//D8Cl2ELUTbEDcFx2fRCpJAUsqbptgZOAAb4LKcECbEmUX5e50ygN18IeNZ0PjPT9IbSxzYHLgFOiNCxttDV7jHwZkPr+AEo0ALsubOu7EJFlUcCSyspGAk4GNvRdS0n+AlwUB0lpb4ZFabgR9jbaKcAqvj+AGhiBrRX51TInYmfL6XwfeN33B1CiDbG2DWWPGIr0igKWVFkAHOq7iJK8C/xPmf2usjYMlwBH0azGra4Nwdpb/FeUhmuWuN97gCto1qPCQ7HrhEjlKGBJJUVpOAw4HRjuu5aS3IitM1eKLFxdBOzr+8BraiA2Knhe9l12Lg6S+cBPgPt9H3yJhgOnl/UZi/SFApZU1ZE0py3DM8ClcZDMLGNnWbj6ERau1IbBnf7A54HzozQspVlrHCQTsOD8nu+DL9E+2PVCpFIUsKRyojTcBLsxDfRdSwnmYo91nihjZ4uEq/18H3hDLJxH+I0oDVcvaZ+34alBrScDgc9n1w2RylDAkkqJ0rAfMBbY3nctJfkzcH22/IlTWTPM76PHgmUbAJyIdSB3vo5eNhIaA6/6PvASbQ+Mza4fIpWgL6NUzS7Asb6LKMkM4MdxkLzlekfZHJXzgQPRY0EfBgFfAo6P0rCMFwoeBa4HunwfeImORUs7SYUoYEllZGu6RcAGvmspyZ+Am13vJErDgcBZwNFYU0zxYyjw75TweDZbq/AqbH5fU2yAdXgvfW1IkZ4oYEmVBNgSLU0wDbja9XI42SOTo7Au7epz5d8obD7WliXs63lsFKtJDkJtG6QiFLCkEqI0XAc4E/uV3wQpcHsJ+9kNGzXRa+zVsQPw9SgNnbYgiYMErP3HU74PuERDsblu6/guREQBS7yL0hDgCGB337WU5H1gXBwkU13uJLvJnAts7PuAZSmHAGeU0IX8OeAGbBmmptgdOCK7roh4o4AlVTAGa8rYlCUv7sbx6FV24z4LPS6pqgHAaTh+ozN7O/XnWNBqipWw68kY34VIsylgiVdZEPg8sJnvWkoyC7jW9egVsD+2GK6WwKmuEcBXojR0/VLHS9ijwibZDOuN1ZQfbVJBClji2y7Y221N+S6Ox0awnInScH3gyzRnmaF2tiu21IuzIBAHyQLgt8Arvg+2RP2w64raNog3TbmpSQVlr1Ofib1Z1QTzgd/EQTLR1Q6iNOzEHo/s6vtgpVc6sca6ezjez+PAXb4PtmSjsAnvatsgXihgiU8H0qyu4i/jvu/VLtgNW+d2+xiJBQFnI45xkMwDfgGUst5lheyLXWdESqeLsHgRpeHaWFPRJv26vBWbD+NE9kv9dGC07wOVPtsXe7PQpQeBB3wfaMmGYM1H1/ZdiDSPApaULkrDDuA4mvUYaypwSxwk8x3uI0C/1tvVQOAklxPe4yCZBPyBZrVsALvOHJddd0RKo4AlPmyJveE2wHchJXoUeNjVxqM0HAGcTLNGBOtmR9z3b/oD8IbvAy3ZAOx6U0b3fJEPKGBJqbKFbiNgU9+1lKgbuCsbQXBlP2Av3wcqLekPHAN8xOE+ngMe8n2gHmyKPSpU2xIpjQKWlG1v4DDfRZTsfeCPrjYepeHqwJForcE62Ao43NXG4yCZhc0F7PZ9oB4chl1/REqhgCWlidJwGNaWYS3ftZTsUeAZh9vfm+YsM1R3ndhjwnUd7uNBmtUTa6G1sLc1tS6nlEIBS8r0GZq5dMsdwGQXG47ScBA24rG674OUwmyN2/PkWeAR3wfpSYBdh0ScU8CSUkRpuCE2CXuQ71pKNhn4cxwkrra/FbCP74OUQg0EjorScDUXG88eE96DNb5tmkHAydn1SMQpBSxxLkrDflhbhh191+LBKzh6ezB72+zTNO+RaxPsDOzkcPt3Y61DmmhHrG2D7n/ilL5gUoYdgOOx+SVNMx54z9G2R2GLOkv9rAEcnC195MIrwFO+D9KTTux6tIPvQqTeFLDEqWyO0Mm4ffW8qrqA++Mg6XK0/Y8DY3wfpDizB7Ceo21PwcJ/U30Ee1TYtCkLUiIFLHFtbxy+dl5xk4CnXWw4SsOVsM9WjUXra3McPVbPVhR4DJjj+yA9Ohy1bRCHFLDEmWzx2jOAob5r8eRZYIKjbQ8H9vR9gOLUSsABDucKPQVM9H2QHg0FznC5yLY0mwKWuNT0X4gvYKNYLmxLMx+7Ns32gKuFil+k2QELmj3CLo4pYIkTURpujC2JM9B3LZ7MB56Og8TVwrp7oceDTbAhFrJcmAb8zfcBejYQW0JnY9+FSP0oYEnhsjefTsR6NDXVdOBxFxuO0nAosI3vA5RSrI6jf9dZ+H+EZi6bs6itgBMdvrEpDaWAJS58HFu0tsnfr2nYI0IXNgQ2832AUppds/UmXXiGZjYcXVQ/7Hr1cd+FSL00+QYoDmSvPZ8KrO+7Fs9exl3/q42wHljSDNsArtbPewPNwwK7Xp2qtg1SJAUsKdp+wIG+i6iAF4HZRW80SsMObIJ7f98HKKVZHWvZ4MIU4C3fB1gRB2LXL5FCKGBJYaI0HAWcSXPbMizq77jpMTQA2M73wUmpBgFbOtr2u8Drvg+wIoYCZ2bXMZGWKWBJkY4EdvNdREW8FgeJi8nDqwIb+D44KVUnsFm29mSh4iCZjh4RLmo37Dom0jIFLClElIYfBU7ARliabjrwtqNtr49GCJtoA2BNR9t+E71JuNAA4ITseibSEgUsaVn2y/oQYAvftVTENGxuiwvrof5XTTQCtxPdm7xkzpK2AA5xMWIozaKAJUUYCXwW6PBdSEW4DFjrAIN9H6CUzmXAehuY5/sAK6QDu56N9F2ItDcFLCnCnsAY30VUyHTctWgYgR7DNpHrgDXX9wFWzBi01qe0SAFLWhKlYX9sPS89tvrQbGBm0RvNPuu1fB+ceNGJuxGVqajZ6JKGAHtn55xILgpY0qp1gd19F1ExM4D3HWx3ALCa74MTb4Y62u5k9IiwJ7tj1zeRXBSwpFUfzf7Ih1yNBqyMPSqSZhodpaGu2eXRtU1aopNVWrUjsJLvIirmLdy89t6BztkmczX3bh7q5t6TlbDrm0guulhLbtmv6e3Q24NLKnyJnMxK2LIp0kyr4OZc68LBnMEa6AC206ih5KUvjrRiBFrUuSeuAqcCVrONxCa7u6AfST1bHz2Wl5wUsKQVo3H36rj0TB23m8tVuJJlG4Zd50T6TAFLWjECvdUmIvW1GhrBkpwUsKQVa2KLD0t56vIopxP3Hek7sDcv66LLdwENtCru1oCUmlPAklYMR8u2lGkO7jrEl20QsLHjfXQCm/s+0AJNAhY42rYePfdsMHadE+kzBSxpRV1GU4rmqm3FPGydw7rYIkpDlyOgo4GNfB9kgabjJgj1wwKv9EzXOclFAUtaoQtPz9bGzWfTTb2WNPk4sKnD7e8GfMT3QRbI1b/7AWhh4+XRfVJy0RdHWjHQdwEVNQA3AWs2tqxJXYwGDonSsPANR2k4BDiUeo3MvBUHiat5WLoXLJs+G8lFXxxpxRzfBVTUINxM/p+LLcxbJ/+Em27ZBwCf8n1wBZviaLtrAFrUeNnqNGosJVLAklZoYmzPVsFBwIqDZAH1W9JkY+BrURoWNpE4SsMtgK8AQ3wfXIEWAG842vZQ3C3DI9JYCljSCgWsng3GXcf1SdhIVp0cDHw5SsOW30iN0nAUcD6wve+DKth7uHvBYTgKWMuj65zkooAlrZgMzPBdRAWtio0KuPA69XqTEOzmfjpwXpSGuSdbR2m4OXARcJDvA3JgIvCOo22PRAu2L8sM6jXvUUqk5+7SinewV8fVC2txQ3C3hNAE7DOvW/PDwcBZwKZRGn4P+EscJL2a+xKl4SBgP+BrwE6+D8SRibjrgTYKvbCyLNNxF2yl5hSwpBWTsEnXa/kupGJWw91r769hF/wNfB+kAwOwx4XbAzdGafhr4LE4SN5f8n8YpWEH9hnvDBwF7E+918V8JQ4SVyMp66CWK8syFbvOifSZApa0YgL16SxetHWjNOyIg6To+RszgOep3xyjRa0LfAH4HPB0lIbPAS8CM7EgsDrwUWAMsBnu5rtVRVd2/IXL5r3pB9KyvYdd50T6TAFLWjEJeBUbRZDFrY/Naym6lcU84HHgSN8H6FgHduNfC9gbCxld2T/voFnzR2cCTzja9uooYC3Pq2gES3Jq0kVKCpY1PXwEvWXTkzFYu4ZCxUECdrOd5/sAS9YP+0HYSfOuW1OwUO3CcOzHgCytG3jEYXNXqbmmXaikeH+lfm0DirA+7vowvQS84vsApTRP467J6Ei0TM6yzMWubyK5KGBJq57L/sjiFs4TcuFV9Jk3yV+A91veSs82Ry0alkXXNmmJApa06nXgXt9FVNCqwFYuNhwHyTTgQWxOktTbNOAhBy9LEKVhJ7AteoNwWe7Frm8iuShgSUuyXkV3UL/ml60aAGzqcPt3UL91CWVpfwcedrTtlXE3ytrupgF39LYXm0hPFLCkCHcBz/ouooI2i9JwhKNtP4vNxZJ6ewJ3axBujDUZlaU9i13XRHJTwJKWxUHyNnAdeptwSZthPZ1cmAz8yfcBilPzgd9ni3y7sCWwtu+DrKBu4LrsuiaSmwKWFOX3wFO+i6iYtbGQVbjsppuiZTzq7FlsgnvhojTsB2yDg1YiNfAUdj0TaYkClhQiDpLngCtRy4ZF9QN2yW5mLoxHobbObsddO45h1HfdxlbMBa7MrmciLVHAkiLdANznu4iK2QlHS7nEQfIe9ktbj2br513gVoeTrNfH0Vuube4+7Dom0jIFLClMHCQTgYtx1xSxHW0IbOFw+7egpqN1NB63P1Z2pf5rOPbVFODi7Dom0jIFLCnabcDNvouokHWA3Rxu/znsM5f6mA/8Og4SJ204ojQcCOyFtRKRD92MziUpkAKWFCoOkpnAZVi3cTGfiNLQ1WPCucDP0YK0dfIoNjLpykbA1r4PsmJeBS7Lrl8ihVDAEhf+grVtUKdxszP2qNCV8diEaGl/XcBv4iB5zeE+tsZClpgu7Hrl5I1NaS4FLClc1kLgKqxJosAI4ABXG89+dY9DLRvq4BngF642nj0ePBg9HlzUE8BVDvuNSUMpYIkTcZC8CMTAHN+1VEAnEERpOMzhPu5BjUfb3XzgZ8ALDvexEW7nBLabOUCcXa9ECqWAJS7dhK2ZJ7A9sJ2rjcdBMh2b+6bu0+3rMeDaOEhcPlrfFxjt+0Ar5A7sOiVSOAUscSYOksmobcNCw4ADojTsdLiPB4EbUV+sdjQbm2Tt7OWQKA3XBPYD+vs+2IqYgrVlmOy7EKknBSxxTb8QP3QAsJ6rjcdBMgu4HGvdIO3lDuC3jvexHfAJ3wdaIRphF6cUsMSpbAL25YDmONj8l/0c7+MJbO7bPN8HK702EbggDhJnrTaykdPDgCG+D7YiXgQuV1sGcUkBS8rwMPAToOlv6QwEDo3ScLirHcRBAvbKeeL7YKVXuoCf4n4kZXNgH98HWxELsOvRw74LkXpTwBLnskm7PwP+6ruWCtgN2N3lDrKRkO8ALnspSTH+jL3F5mzEMVts/FBgE98HWxF/BX7m+GUCEQUsKUccJC8DVwBNH5IfBHwuSsPBjvdzP/aCgdpkVNdbwLfjIHG9luQG2ONBsevPFdn1SMQpBSwp0/8Bf/RdRAUEwJ4ud5A1TbwS+8yleuYCl1DO+XAEsJnvA66IP6JzQkqigCWliYNkCnZTafpq9WsAY6M0XNXlTuIgeQ/4FvC47wOWpfwauNTlo0GAKA03Ao5GndvBrjuXZNchEecUsKRsdwK/9F1EBYTAHq53EgfJk8C5wJu+D1g+MB74ehwk75awr8PQws4L/RK7/oiUQgFLShUHyXysjcDzvmvxbBg2ilXGa/O/B74JTPd90MJrwLlxkDzjekdRGn4E+By6zoNdb+Ls+iNSCp144sOTwI9Rr6YDsKVLnMrelroa9cfy7V3gPOB21zvK+l6NRaNXYN/5H2PXHZHSKGBJ6eIg6QauwV5Rb7JVgShKw7Vd7ygOkhnYfKz/xXovSbkWfv7XZC8guLY9cCy6xoNdZ67JrjsipdHJJ17EQfIWNqIyzXctnn0COCxKww7XO8omvX8d+BVar7BMc7CWGZe7ntQOEKXhKsAp2MoBTTcNezT4lu9CpHkUsMSnm4E/+C7Cs1WAM7BO287FQfIa8CXsVXWFLPdmARcA34qDpKw5cPtijUXFri83+y5CmkkBS7yJg2QacBHwhu9aPBsDnB6l4aAydpY1tvwXbCRLjwvdmQP8CPhmHCRTy9hhlIbrAl/EXqJoujeAi7LrjEjpFLDEtweA62n2jb4DOBL4VFk7jIPkVexG/CvfB19Ts4ELsZGrUm7wURr2B07AHjs3XRd2XXnAdyHSXApY4lUcJHOxjuPOX1uvuDWAr2WNIUuRhayzsTestKROcd4DvgGcX9bIVWYPbO5Vf98fQAU8A1yZXV9EvFDAkip4FrgcWz6kyXYETovScOWydhgHyQTgK8APUZ+sIrwBfBX4YYlzrojScCQ2t26U7w+gAuZi15NnfRcizaaAJd7FQQJwI3Cv71o86wROBD5T5k6ztwvPB76G5sO14hHs399Pyxw5idJwAPaiROj7A6iIe4Ebs+uKiDcKWFIJcZC8iU14n+K7Fs+GAudEaVhqg8g4SGZibTNOAh5Gbxj2xTzgt8DYOEhu89At/EAgQusNgl0/LsquJyJeKWBJlaTA73wXUQFbYfOx1ihzp3GQLIiD5FbgGOA6NC+rN94Fvgd8Pg6SJ8reeZSGHwPOAUb4/iAq4nfYdUTEOwUsqYzsbatLgJd911IBn8HmYw0se8fZOnlnAF8GXvD9QVTUAuBBbMTvP+MgebvsAqI0XBP4N2An3x9GRbwMXKK2DFIVClhSNQ8C1/ouogJWBr4AHOxj53GQvI91Hz8aa0o6y/cHUiHvYZ/NkcCvfLyplgXvs4AjfH8YFXItdv0QqYSO7m5NtZB8OjrcrO4SpeEmwA3YempN9wxwUhwk9/kqIErDYcBh2KjWVjT3h9kcbAL1D4Hb4yDxEjqjNOwHHAf8D2ooutDDwJFxkDgZcdV9UvJQwJLcXAUsgCgNI2yJkdIfkVXQvVjI8vraeZSGY4DjsTla62INUptgAfA3rF/bz308DlxUlIb7ZLVs6PuDqYg5wBfiIIld7UD3Scmjqb9EpfpuAP7ku4iK2B34rygNvU5kzgLef2CPpa4CJvr+YBzrBp4HvoOt7XdxBcLVttik+g19fzgV8ifseiFSKRrBktxcjmABRGm4P3ANMNz3sVbAPOBq4MvZ/CivojRcBdgBGIstLjya+vxgm4dN7v8VttzKMx5aLywlG0G8DNiL5owershk4Ljs7VdndJ+UPBSwJLcSAtZKWG+sk30fa0XMwubdfLcqb0plk623xkZ4/hHYCFjJd105zQCexJre/g54IQ6SSqyRmS3ifAE2F04+dAVwpusXDXSflDwUsCQ31wELIErDHYCb0CORhWYBP8BCVmWWtskWGh6NjWbtD+wKrOW7rl7owl7vvxdrFno38E5VghV8EK6+jz2a7fRdT4W8DBweB8lDrnek+6TkoYAluZUUsDqxJVy+jjpVLzQTG8n6XlVGshYVpeEQYHNs8eF9gY9hjTCr8u9vNrYk0GPA74EHgOfjIKlcY9UoDdfH5lwdQX0ewRZhHnAe8J04SBa43pnuk5KHApbkVkbAAojScD3gF8Auvo+5QhY+LvxOlUayFhWlYQcwCAtbuwDbZn82yf55/xLK6AbmA1OBp4FHsTUDHwBeAubGQVLJi2CUhqOx0crPojlXS3oA+GwcJK+VsTPdJyUPBSzJrayABRCl4VjgUuzGLKbSI1lLyibGrwGsz4dha31gVPbP1wRWaWEX3cB0bPmaScCb2GT1R4AnsFGr9+Igmef7s+jFZ7UeH45c6bHg4mYCp8VBMq6sHeo+KXkoYEluJQesocA4PHU2r7CZWOPLH8ZB8o7vYvoqmyQ/GnuEODz7e2T29+rYhPm1WXq0axbwNjY6NQnrrv4W9lbZJKyFxMQqvP2X4zPZCPgWGrlaloULa08pa4e6T0oeCliSW5kBCz5osHgtdsOVD83BFmc+x3efplZFabjwP3Zmfzroee7Wwkd/C//uioPEd/mtHnsH1in/f4C90ZyrnrwFHBsHSak98nSflDzKmAMhUpR7sVfoz0C/7Bc1EDgWGBal4deA59o1bCxS94LsD1iArLVs+Zu9sceC26Jw1ZNu7Py/13chIr2hk1jaRhwks7G+N8/4rqWCBgCHAD8B9sxGQ6QNZP3ePoctf7M9ui4vyzPAFdl1QKTydCJLu3kSW6al7ebWlKAfsBt2oz46m98kFZYtpP2vWBPRj/iup8LmY+f9k74LEektzcGS3Mqeg7VQlIajgJ8Be/r+DCrsHeyty0viIKn7moFtJxth3BT4N+BIYGXfNVXcXcDn4iB5w8fOdZ+UPBSwJDdfAQsgSsMjsV+0g31/DhU2D3vj6nzg8ar2e2qarOt9iC2cvTN6krAiM4AT4yDxtqCz7pOSh05saVe3YuvFybINAD6DjfYdE6Wheoh5FqXhcODL2I+DXdA1uDd+h53vIm1FI1iSm88RLIAoDXcDbsD6KMnyTcVaOVyILQtTmbX2miAbtdoVC1f70r4LYpdtAnBkHCT3+SxC90nJQ7+epJ39GQsNsmKrAREWSI+K0nBV3wU1RZSGawFfwEYSD0Lhqi+uw85zkbajESzJzfcIFkCUhmOAm4AtfdfSRqYC/wdcAjzajt3O20G2NNBewBexha/1VmffPAkcHgfJs74L0X1S8lDAktyqELAAojQ8A/hvdAPrq5exvmLXAa9pEnwxojTsxAL/icAx2DqL0jdzgH+Ng+Ri34WAApbko0eEUgc3APf4LqINbQicB/wcODbrySQ5RWm4cJHmf8E6jp+OwlVe92DntUjb0giW5FaVESyAKA0PAq5GN7S8pmNLkFwNpHGQTPZdULvIelqtB/wj8E/ANmieVSveBY6Pg6QybwnrPil5aC1CqYsUuBk4znchbWpVYD+seetdURqOA24DprTruoauZcFqFHAYFqy2peeFqaVvbsbOZ5G2phEsya1KI1gAURruAvwCG02Q1kwD7geuBe4E3tAcLZPNsfoocADWhX1rNP+vKK8Bn42D5AHfhSxK90nJQyNYUid/BX6KLT+i73ZrhmD9mvYGHgZujtLw18CLTV1sN0rD1bAwdSg22jcGzWMt0nzs/P2r70JEiqARLMmtaiNYAFEaboRN2t7Jdy01swAbXbgduAW4D3i77qNa2WjVBtij00OATwLDgOp9+dvfeOCoOEhe8l3IknSflDwUsCS3KgYsgCgNT8Y6lmsBXTemAn/D5skkwDNY2KpFd/goDQdgqwNsBeyP9bDaCFjFd201Nhs4Ow6SK3wX0hPdJyUPPUaROroJ+DRwsO9Camo14OPZnzOAx4D7ozS8D3gUmAzMapfJ8dlk9UFYqNoJC1Q7A5uhkF6WP2LnrUhtaARLcqvqCBZAlIb7YxO01/RdS0N0ATOAN7BHPfdho1zPAxPjIFngu8BFRWm4ErAuNll9K2A37C3AEdhIVXW/3PXzDnBsHCSVXdBZ90nJQyNYUld3YM0eI9+FNEQ/bGL8mOzPMcAk4HXgpSgNnwSeAp4F3s/+zIyDZJ6rgqI0BHu7bzCwOha2twA2xzqtr4+9cbq67w+v4W7EzleRWtEIluRW5REsgCgNt8UeO2zsuxahG3tLbDrwKvB3bLTrdSyITcz+ngq8BczDRsUWsPzRpM7svx8MDMcmoI8A1gJGYgFqFDaHajT2yK8TjVBVxYvYeoOP+i5keXSflDw0giV19hjwY+C/sJuq+NOBNeEclv3ZJvvn3cBcYFb2Z172dzc2yjWJZYehDmAdLDT1z/4emP29MuqmXnULsPPzMd+FiLigESzJreojWMDCteF+AeziuxYRWcwDWFPR13wXsiK6T0oeapIntZZdvC/BJmCLSDXMAC5ph3AlkpcCljTBb7HXwEWkGv6InZcitaWAJbUXB8lUrPHoG75rERHeAC7MzkuR2lLAkqa4HzUyFKmCm7DzUaTWFLCkEbJ+S5djzS9FxI+/AZe77H8mUhUKWNIkzwA/wdoCiEi55mLn3zO+CxEpgwKWNEa2GPF12DIuIlKu+4Dr6rIouMiKKGBJo8RB8iYQYx3DRaQcU4E4O/9EGkEBS5roNuBm30WINMjN2Hkn0hgKWNI42evhlwATfNci0gATsKaiGjWWRlHAkqZ6EBiHrXknIm50Y+fZg74LESmbApY0Uhwk87EL/xO+axGpsSeAcdn5JtIoCljSWHGQPAdcgdo2iLgwF7giO89EGkcBS5ruBuBO30WI1NCd2Pkl0kgKWNJocZBMBi4C3vVdi0iNvAtclJ1fIo2kgCUCfwJ+47sIkRr5DXZeiTSWApY0Xhwks4HLgFd81yJSA68Al2XnlUhjKWCJmIeAnwJaxkMkvy7sPHrIdyEivilgifDBOoXj0I1BpBUPYW0Z9ENFGk8BSyQTB8nLWNuGmb5rEWlDM7G2DC/7LkSkChSwRBZ3E5D6LkKkDaXY+SMiKGCJLCYOkinYOoVv+65FpI28ja03OMV3ISJVoYAlsrS7sF/iWqdQZMW6sfPlLt+FiFSJApbIErLXy68Envddi0gbeB64Um0ZRBangCXSs8eBHwPzfBciUmHzsPPkcd+FiFSNApZID7LXzK8HxvuuRaTCxgPXqy2DyNIUsESWIQ6S14GLUdsGkZ7MBC7OzhMRWYIClsjy3Qrc5rsIkQq6DTs/RKQHClgiy5G9dn4h8KbvWkQq5E3gQrVlEFk2BSyRFbsfm48lIuZ67LwQkWVQwBJZgThI5mNvSj3tuxaRCnga+HF2XojIMihgifRCHCR/A65CbRuk2eYBV2Xng4gshwKWSO9dB9zjuwgRj+7FzgMRWQEFLJFeioNkInApMMV3LSIeTMHWG5zouxCRdqCAJdI3twI3+y5CxIObUVsGkV5TwBLpgzhIZgKXAxN81yJSognA5dn3X0R6QQFLpO8eAK4GFvguRKQEC7Dv+wO+CxFpJwpYIn2UvZ4+DnjCdy0iJXgCGKe2DCJ9o4Alks8LwBXALN+FiDg0C/uev+C7EJF2o4AlkkMcJN3AL4G7fdci4tDdwC+z77uI9IEClkhOcZC8DVwEvOe7FhEH3gMuyr7nItJHClgirbkTG8kSqZtfYt9vEclBAUukBXGQzMBGsbROodTJ09jo1QzfhYi0KwUskdY9DvwQmO67EJECTMe+z4/7LkSknSlgibQoDhKA67HFoNUbS9rZAux7fH32vRaRnBSwRAqQPUr5LvA7QG9cSTvqxr6/39WjQZHWKWCJFCQOkjeBLwG3+K5FJIdbgC9l32MRaZEClkiB4iB5CfgCtjCuRrKkHXRj39cvZN9fESmAApZIweIgeRE4GxsRUMiSKuvGvqdnZ99bESmIApaIA9lIQIRNGNZyOlJFs7DvZ6SRK5HidXR36we25NPR0eG7hMqL0nAocCLwRWC073pEMhOwVgxXxUEyxXcxVaf7pOShgCW5KWD1TpSGA4B/AM4B9gD0wYkv3dj6gt8Gbo+DZJ7vgtqB7pOShwKW5KaA1TdRGq4PnAKMRaNZUr4JwDjg8jhIXvVdTDvRfVLyUMCS3BSw+i5Kw05gd+BMYD9gsO+apPZmALdhSzrdGweJmuH2ke6TkocCluSmgJVfNjdrb+AEYE9giO+apHamAXcBPwHu0Fyr/HSflDwUsCQ3BazWRWm4Oha0jgD2AkYC/X3XJW1rPvA2cCdwIxas3vddVLvTfVLyUMCS3BSwihGlIcBAYGsgxALXdsAw1EpFVqwLeA94BLgDSLCFmudoPcFi6D4peShgSW4KWMXLwtZwYCNgJ2BnYAwwAhiKzdka6LtO8WYONqdqCjAJeBZ4EBgPvARMVqgqnu6TkocCluSmgOVelIYdWLDaAHt8uAaar9Vk04B3sceArwBT4iDRRdwx3SclDwUsyU0BS0SaQPdJyUPzO0REREQKpoAlIiIiUjAFLBEREZGCKWCJiIiIFEwBS0RERKRgClgiIiIiBVPAEhERESmYApaIiIhIwRSwRERERAqmgCUiIiJSMAUsERERkYIpYImIiIgUTAFLREREpGAKWCIiIiIFU8ASERERKdj/A8iydhhsUAYyAAAAJXRFWHRkYXRlOmNyZWF0ZQAyMDE5LTA1LTAyVDExOjM5OjA0LTA1OjAwXZ730gAAACV0RVh0ZGF0ZTptb2RpZnkAMjAxOS0wNS0wMlQxMTozOTowNC0wNTowMCzDT24AAABDdEVYdHNvZnR3YXJlAGZpbGU6Ly8vdXNyL3NoYXJlL2RvYy9pbWFnZW1hZ2ljay02LWNvbW1vbi9odG1sL2luZGV4Lmh0bWwP1+U4AAAAGHRFWHRUaHVtYjo6RG9jdW1lbnQ6OlBhZ2VzADGn/7svAAAAGHRFWHRUaHVtYjo6SW1hZ2U6OkhlaWdodAA1MTKPjVOBAAAAF3RFWHRUaHVtYjo6SW1hZ2U6OldpZHRoADUxMhx8A9wAAAAZdEVYdFRodW1iOjpNaW1ldHlwZQBpbWFnZS9wbmc/slZOAAAAF3RFWHRUaHVtYjo6TVRpbWUAMTU1NjgxNTE0NJScSD0AAAATdEVYdFRodW1iOjpTaXplADYuNTFLQkLBmlYqAAAAOHRFWHRUaHVtYjo6VVJJAGZpbGU6Ly8vdG1wL21pbmlfbWFnaWNrMjAxOTA1MDItNC0xY2RncnF6LnBuZ4V6b14AAAAASUVORK5CYII=;" parent="1" vertex="1">
          <mxGeometry x="322.76" y="-791" width="190.48" height="100" as="geometry" />
        </mxCell>
        <mxCell id="ORMudLoAq7WYr6hYme3h-14" value="" style="shape=image;verticalLabelPosition=bottom;labelBackgroundColor=default;verticalAlign=top;aspect=fixed;imageAspect=0;image=data:image/png,iVBORw0KGgoAAAANSUhEUgAAAgAAAAG8CAYAAAComB1pAAAABGdBTUEAALGPC/xhBQAAACBjSFJNAAB6JgAAgIQAAPoAAACA6AAAdTAAAOpgAAA6mAAAF3CculE8AAAABmJLR0QA/wD/AP+gvaeTAABA3ElEQVR42u3daXRc1YHu/WefOjVYli1ZlgzhQiYIEKYEMINlW7ZosAbCou9aN1rvm74fut91+3JX07FlYzxJJR8HE4ZABggkISEJSQidmMxJG4glFQZiMjgzGRoCtsFgjG1syRqrztnvB3PTaUYP0qldVf/ftxDbKj1nevaps/cxlzx43VdtZBoFp+T/Mlg1tvmlmSQRMyOlT5l2yaPXf+pRwigfTd1LF40+OfBDay1hxCzTPGuP/87qEZJw7lyX82W9T8hEH5LkkYg7/FOqlf/FPoUvjhFG3OVr9+h9kk4iifIx+vzQ16KBfJIk4pV4W0b+O6veJkPxckzoWe9TXl9r1y+NzFfIw7mBqNILZknGEEbcR8ZzIyfOWdHZSRLl4eKVi1dEL4w2kEQRzmFNDZzD3HRXb1vXbz1JMr5ZJWmATNxrz8lTqwmiGCVg59BHPxgEKZIobQuDf8yEO4Y+QhLx88+crsTxGYJwz8s2H/ZIr9z2772060VjzA3k4p70vHqZJN/OxC3aNzZl58Ceu0mitI3tr77P7s+nSSJmSU/pOTzC5CIrrctdEez5awGQpJkHCh830pPE4xZT7St5fi1BFEF+29CHGtdf/Q6SKE2XdH/45Pz2g1eSRBEGLhfWyUz1CcK9y/+fButn3fl//9dfC8CGjmBc1qwkIAcPptkz5E3j+aXYD5WR0It2Rd8iidI0tKfwfY1GfAEdM6/GV/JcBi1ODiiNXbZ19lX51xQASepr6/6OrB4iJsckPKXncjutGArbhs+f0724lSRKS2PX4ivDZ4fPIIkiDFiaGmQS9C4HhzQ/6mtZu/G/lLXXtDebWCqpQFhu8U+bpsR/m0IQcQut7POj9xBEiW22nWN3K2LqWeznqZOq5L+bB5cdlJc117zmev/q/9DbvuYPMuYu8nJPZkGD6NVFuAvwwuisuav+NUsSpWHOtYs/Fr44wi2zuBmj9AJmWzq5aaTb+tuyf37LAiBJKVvIStpLbG7xGtLyz5xOEMWoz9uGu88PgiqScNvC4F+qwx1DS0gifsmza+TNZOasg16K0uH6172mvN5/fLA12Gel68jNPanGepk00wLjFh0opFL799xLEm4bfdl8mxX/ijDCTCeUnlNHEE5uHNudaw72H3YBkCSlwzsk/Z70HLsLUJVQ6oIZBFEEhWcOXjknuOZ0knBTY7D4rMK2oUtJoggDk4vrZDIJgnDPr+sPnP6G65m8YQHINQcF2aiT/NyTPHeGvFputcXNjkcm2jXMtEBHRS+Mf1fjTPuLfVBSl1Lq7BqCcPKgsJ0bOjrCIy4AktTftrbXSD8kRbcYzyg9n2eciiHcMXzGvK4lHyQJt1yUXfI/CzuGTyaJ+GWaGiSm/Tl4odCG/vaeh9+0vL11g1CnJF5J5xj/3dXy38EzafHfBrDKPzfyOYJwSBB42j5yB0EU4zw0VQnOQy4atVG44q3+0FsWgL727F+M9GnydE+a5l2cuwC7R2fMWX71zSThhjmDe+4IXxplekzcA0zPKD2/niBcHKcYe0uuLdh2zAVAksbGUusk7SJWt3h1KaXO4rxXDIUdo0sXBp21JFFcC4Nr6sPtI/+LJOKXPLeWZ5GcbGbaqVR002FdQw7nDz125cpBI/WQrHtSc2by9G0xGvZg3h99Of9Nkiiu0b0j34mG8rx1Ju7BR1VCqQuY9ufkuSmyq3LNwcEJKwCS1PR4eLesfkG8jpW9dEKpi3kgsBjCZ4YunZNddi5JFMfF2SUXFbYNzSOJIgw8GmeyHombo//Hc63Zw16v5LC3YBAEkRK2UxILbLt2MJ4znRW4itG085Gxu4c3kESR8t81er8KnI5iH/03pJU8g68eXTwkJNspYw77oDiiCte/qOcxSZzwnGt9rMFdLIVnR06es+bD/x9JxGtu1+L/E+4cPZEk4pdZ0CAZHj528PL/lf6Wnp8eUZk70p8RGrNc0jBpu+XQW7imEkTsB51V9OzIpxQE3A+NycIg8PPbhm+VZfQf+3nmVN5K6qiDfiJcc6R/6YhPWptbup+VdCt5u4f3cBdHuGe8es7gHuahx2R8YM+Xon3jTD6PW8JTZi7T/txkbvjxouD5SS8AkjQ6MPUGSTsI3S1eTVLJ99cSRBEUtg3980XXLzmOJCbXJV1L/1t++9CHSCJ+qQtqZaYz4cJBz9h04eNHdc04mr+0pWPZiDVmDbk7eBfgojqZqRykcbPDYcLsyt9PEpNr+MDo9+xwyNctcY8vp/pKncdLyNw8+Wh5rjkYja0ASFJuUdfXJT1K+o5JeryWs3h3AebN61rCtLRJMmfN1X8Xbhs6nySKMLCYXy+TpHe5d+03/f1t2W8f7d8/+i1qjDXylkiK2Axu8c+sUeK4NEHE3gCs8rtH7yOISTrZ7cp/3YbkELfE2zJKnlpNEO4JjaKlx/IPHFOl62vt+qWsvsp2cIuRlF4wi6k6xTginxs5cc6Kzk6SmFgXr1y8ovDC6CySKMK5pIlpf46O/j/f39rzm6IVAEnykt5KSQNsDvdau/8eWntRSsDOoY9+MAhYmWmCLAz+MRPtGF5HEvHzz5iuxPEZgnDP/jDyjnl5/mMuAL2Xdr0oqxvZHu7J8L1dUUT7xqbsHNhzN0lMjLH91fdF+8e5CsUt6SndyDLjLjIy6x5pX/NS0QuAJNUPhrca6Uk2i2M7SbWv5Pm1BFEE+W1DH2pcf/U7SOLYXNL94ZPz2w9eSRLxS1/IjCI32T8dqG+YkHVHJqQAbOgIxq3VKjaMgwfx7BnypiUJIu5DdCT0ol3Rt0ji2IzsLXxPoxFfQMfMq/GVYk0RNwd2xi7bOvuqvDMFQJL627LfltVDbB7HJDyl5nIbrxgK24bPn9O9uJUkjk5j1+Ir8zuGzySJIgwc5jdIPr3LwaHFj/pa1m6csKI3oa3RJpZKKrCR3JI8jfW7iyK0ss+P3kMQRxnfzrG7FbHef9z8k6rkn8wDxA7Ky5prJvSaPZH/WG/7mj9I+jzbyT2ZBQ2izxfhLsALo7PmrvrXLEkcmTnLr745fHGEW1dx482iLo/+b+9vy/7Z2QIgSSmF3ZL2srHc4jWk5Z/JO7yLUtu3DXefHwS8vOYwLQz+pbrw7EgnScQveXaNvJnMYHXQSzYdXTfh14WJ/gcfbA32Wek6tpd7Uo31MmmmBcYtOlBIpfbvuZckDs/Yfu9bdqDAk6txD/7TCZYRd3bj2O5cc7Df+QIgSUqHd0j6PVvNsbsAVQmlLuCFHsVQeObglfOCq08liTfXGCw+K//MwctIoggDhIvrZDIJgnDPb+oPnD4p64pMSgHINQcFKy1lu7knee4MebXc4oubHY9M+GL0bZJ4c9EL49/VONP+Yh8c1KWUOruGIFw8d1h1bujomJS3YEza/eBca3aTZH/E5nOL8YzS83m2qhjy24fPnNe15IMk8frmrFnyocKO4ZNJIn6ZpgYpQe9y7nxtdX+uLZubtOI3qc1FUaekMTajW/x3V8t/B8+kFaPK558b+RxBvI4g8KLnRj5DEMU5HyQ4H7hotOBpxWT+gEktALnW4CkjfZrt6J50Uz2NvwjC3aMz5iy/+maSeNXof3DPHeFLo0xTiXuEyR1Bd8cLxt6yuSX7TMkWAEkaG0utk7SLzekWry6t1Fmcb4uhsGN06cKgs5YkXrn4B0vrwu0j/4sk4pc8t5ZngpxsZtqpVHTTpF8HJvsHPHblykEZu5Yt6p7UnJkyU3jqN/ZmP5j3x/YXvkESr9g79t1oKM9bZ+IeBFQllLqAaX9OXv+tWZ1rDg6WfAGQpAVboi/I6hdsVsd2snRCqQs5ARTlLsDTBy+bk112bqXncHF2yUX5bUPz2SOKMABgXRBXR/+P97V0fS2WEhjHDwmCIFLCdkpiYW/XTgLvY+WvotwFyEfG7h7eUPE57Bq9XwVOC7GP/hvSSp4xjSAcPCQk2yljYjkoYqt//Yt6HpPR/Wxf19oma38X7S7AsyMnN65e/E+V+vvP7Vr8f8KdoyeyJ8Qvs6BBMjwE7KCv9rf0/DS2IhjnbxbKXCNpmG3sFv+kKvnvnkoQsXd9q/C54dsUBBV3H3ZhEPj57cO3yDL6j/14P5W3gzrqoO+Fq+P8gbGeeDa3dD9rjf0429k96aYGGaYFxi7cM149Z3DPHZX2e48PvvTFaO84rTNuCU+ZufXk4CRzw48XBc+XbQGQpGnj0Q2SdrCx3eLVJJV8fy1BFEFh29A/NwbLZ1XK7zv/+jVvy28b/ge2fPxSs2fITGfChYOeselC7IPj2AvAD64Ihq21XWxvB+8CXFQnM5WTQ9zscJiwe4cr5vmYwgv7v2+HQx4/j3t8OdVX6nxKvqNb59pcczBa9gVAknKt2XslPcpGd0zS43WgRZLfNjR/XteSeeX+e87tWdZc2HZwNlu8CAV/fr1Mkt7loFx/a/e3ivGDi7M3GGNlbKekiG3vFv/MGiWOSxNE7MNiq/zu0fvK/td87uB9NmRzxy3xtoySp1YThHsiGbu8WD+8aHWwv6Vnq6y+yvZ3i5EOTQtkilDswudGTmxc/eHF5fr7Xbxy8YrwhdHj2NJFOKabOKZdZGXu6m/p2VpxBUCSvKS3UtIAu4Fro4Up8t/DaKEoI+TtIzd+MAjKbmWmhcE/ZqIdw+vYwvHzz5iuxPEZgnDPQMI3QVGvwcX84b2Xdr0omZvYD9yT4fvCooheHp+yc2DP3eX2e40dmPr1aP84V6G4R/8pT+lG3vbn5sZRcOgaWKEFQJLqBwq3GOlJ9gbH9s1qX0meGC6K/LahDzWuv/od5fL7XNL94ZPz24b+ni0bv+TsGczscfMM+1T9gbDo638UvQBs6AjGrdUqdgj3pGfPkDctSRAxsyOhZ3fZspkWOLK38D2NRnwBHffJvcZX+twZBOHi5d+Eizd0BOMVXwAkqb8t+20r82N2C8ckPKXmcvuwSHcBZs/pXtxa6r/HvK4PX5HfMXwmW7QIBX5+g+TTu5wr+DI/7mtZu9GJkuhMI1K0VFKB3cMtyVOr5bNuePxCK/v86D0lX2SeH/uSItb7j5t/UpX8k3mQ10GFV651TnCmAPS39jxhZb7A/uGYV94WyDiiCGeKF0ZnzV31r9lS/fyNK5bcGO4a5RZSEY7ZVBPr/Ts6/L+9v7XnCQrA60ir0CVpL3uJW7yGtPwzphNEMUbQ24a7zw+CqlL73AuDf6nObx9cxhaMX/Ls6UrUs5iXg/alTLjeqXO7Sx/mwdZgn5FZz37invTcmTJppgXGLTpQSKUOvPS1UvvcY/u9b9mBAk+Qxj34TyeUnsNNFycH/1ZrHmwN9lEA3uyEly58WtIT7C6OnViqfKVm856AYig8PfT384KrTy2Vz9sYLD4r/8zBy9hy8UtdXCeTSRCEe55QJnRufQ/nCkCuOShYqZP9xT3J82plahnUxT5yGI9M+GL07VL5vOGu/Hc0zrS/2E/mdSmlzq4hCBe3jYmW5poD5x5yd/Kebq41u0myP2K3cewugGeUmcfDRcWQ3z58ZuPqzv/h+uecs2bJh8LtQ6ewxeKXaWqQEvQu586bVvf3tqx1cpq7s1/qWkWdksbYfdzin1wt/x1VBBH7AWEVPj98l9OfMQi86LmRz7CxinBcvrtaCY5LF41FJlzt6odztgDkWoOnJHsH+4970k31ksdII27h7tEZc5ZffbOrn6/x4N5Phy+NMl0k7hGmZ5Sez4N/Tm4b6ZZD1zIKwBHLRNE6SbvYjRzbaerSSp7Fd43FUNgxunRh0Fnr2ueaEyytK2wb/me2UPyS59bKq00RhHt2paPwZpc/oNMFYGN7MCBj17IfOXgXoLFOZgpPG8fNDub9sf2Fbzj3wfaOfTcayvPWmbhP4FUJpS5gdo6bo3+zYmN74PTr7p2f2L1gS/QFSVvZnRzbudMJpS7kxFOUuwBPH7xsTnbZua58nouzSy7Kbxuaz5aJX6qxnvU53LS16fHCvc4XSNc/YBAEkTy7RBILirt28jmnRt5Mbj3GfhcgHxm7e3iDK58nemF0gwocnrGfvBvSSp4xjSAcPEStNZ1BEEQUgAnQv6jnMWP1LfYr1/Yeo8yCWeRQjLsAz46c3Lh68T8V+3PMXf3hq6LnR09ii8Qvs6BBMjyM66Cv5dq6Hy2JU3jJnPA8s0zSMPuWWxInTZH/bt46VoQxhsLnhm9TEBTtGF4YBH7+2ZFbZRn9x81/T7USvKXTRcOJRNhdMmO4Uvmgm1u6n7XGfpz9yz3ppnoZFiCJXbhnvLrx4N5PF+vnjw++9MVo7/hUtkTcrdtTZl4DObjYy40+uumyYAcFYBJMG49ukLSD3cyxnagmqeT7awmiCPLPHPzfjcHy2L+HmX/9mrfltw3/A1sgfqnZM2SmM+HCQc9OGw8/UVLn7lL6sD+4Ihg2Mt3sZw7eBbioTmYqJ6XYRxzDYcLuHb4/9uLx/Mvfs8Mhj5/HzEz1lTqfsu3o6H/ZD64ISupr6pI7gPtaur4m6VF2N8ckPV5DWqy7ANuG5s/rWjIvrp83t2dZc7h96AKSj19mXr1Mkt7loEdzi7pL7kH10tuTjLEytlNSxD7nFv/M6UoclyaIuBWsxl8c/XpsP+65g/fZkNjjlnhbRv5pPHDroEjGdsqYknsatiSrZH9Lz1ZJX2O/c6ybSUozNak4Z6CdIyc1rv7w4kkf/a9cvDx8YfQ4Eo994KN0E8eWoye+z79yTSo5JXsvyfO9FZIG2PtcG6VMkf8eRilFuRGwfeTGDwbBpK3MtDD4x0x+x/B1JB0//73TlDg+QxDuGbCFMCjZ62ipfvDeS7telMxN7H/uyczne8qi3AV4eXzKzsGXvjBZ//7o/up7o/3jXIXiHmCmPKXn1BOEm6P/IHd5ULIvrCvps3Qmmn6rZJ5iL3TsmKj2lTxvBkEUQf6Z4X9oXH/1Oyb6372k+8MnF7Yf/O8kHL/k7BnyqnnxloNnuqcyYc2dpfwblHQB2Ni+eEzSKnZE96QvqJU3LUkQMbMjoWd32QmfFji8r/BdjUZ8AR33CbrGV/pcyrSbB5td8so1iAJQLP2t3d+yMj9mb3RMwlNqLtMCi3MXYGj2nO7FrRP1783r+vAVhe3DZ5FsEYr0/AbJp3c5aFN/W/bfS75glsOWMIqWSiqwT7oleWq1fNYrj19kFT0/+uUJKxTPj31JEev9x80/cYr8k3mg1kEFyXaWwy9SFgWgv7XnCSvzBfZL15qZUaqpXoxf4he+MHpc48olx7xqZuOKJTeGu0a5lVOMY2cB6/07yer2/taeJygADkmr0CVpH3unWxKzMvLPmE4QxRimbB/qPj8Iqo727y8M/qU6v31wGUnGL3n2dCXqWVTLQftSJlxfLr9M2RSAB1uDfTJaz/7pYDmbO1MmxbTAuEUHxtOpAy8d9YJZIy+b++1AgSc54x78pxMsq+3qtpHterA1KJuBZlmdlW0qvF3SE+ymjh00Vb6Ss3mSuSh3AZ4e+vt5wdWnHunfawwWnxVuG1pEgkUozBfXyWSY9uegJ6J0VFZfNZdVAcg1BwUrdbKfuid1/gyZWgaTsZfi8cgUdkdH/JKScFf+Oxpn2l/sJ+S6lJJn1xCEi9vGREtzzUFZPWxedvdlc63ZTTL6d3ZXx+4CeEaZeaxmVpS7ANuGz2pc3fk/DvfPz1mz5EPh9qFTSC5+maYGKUHvcrBKf6u3ZW3ZTTcvyy9mrQ2XSBpjp3WLf3K1/HdUEUT8B4TC54fvOqw/GwRetHPkTkKLX+JdU5Xg+HDRmFVUlgvOlWUByLUGT8mKk5iD0k31kscIJ27h7tEZjSuW3PiWo/+hvbeFu0e5Bx0z4xll5nOHzNEGfWuuNSjLJefL9tHsjA0DSbvYeR3b4erSSp7FtMBiyG8bXLYw6Kx9w4t/sLQu3DZ8FUnFL/n+WnkzUgThnhczUVS2L50r2wKwsT0YsFYB+6+DdwHm1MtM4Snn2Mcxg4Xk2P7CN97o/4/2jX8nOpj3SSrmk3BVQqkL6wjCzaNmxcb2oGxfO1/Wk7MX/jT8vKSt7MRuMRmPE16RFJ4+eNmc7LJzX/3fG7P/ckH4zMEmEopfas5MmTTrZDho64LHo6+V8y9Y1ntdEASRtaZTEguZu3bSO6dG3kxWOot9PJOPTPTSyDdfM/rfFd6vAodJ7CfghrSSZ/KVmIuHirWmMwiCiAJQwnJt3Y8aq2+xP7u25xllWOu8KMIdw6c0rl78T//3f89d/eGrCjtH304y8cssaJAMD8U66Gu5tu5Hy/2XrIjv+wqeWZawtl0Sc2wckjhpivx3V6vw9EHCiHdso/C54dsUBPcslLzhp567VZbRf+wn3/dUK8HbMl00nEiE3ZXwi1bEF0+bW7qfNdIn2K/dk26ql2Hhk/jvAuwZr248uPfTIwf33B3tHZ9KInFf/Y0y87gD5iJjzQ2bLgt2UADKSJQOb5TRTnZvx3bAmqSS768liCLIbxv63+HTw/+TJIpQfM+dITOdCRcOXv63jQxW3Vox599K+UVzzcFBY81qdnAHT4YX1clM5WQYNztUSGikwOPncV9ipvpKXsDLsZw8Joy9dkvHshEKQBnqa+n6mqweYzd3TNLj9aeoGJl59TJJepd7V389llvUXVEPjFfWXmiMlWeXSIrY293inzld3nEZgkBZSxyfkX9aNUG4J5Jnl8iYinoatuJqaH9Lz1ZJ97K/O9bNJGUW1DMlCuU8AFGaaX+Ojv7NF165NlSUirwPZcNwhaQB9nrHRkdvmyL/PYyOUJ78905T4njucjlowEaFtZX4i1dkAchdHuyyRjez37snM79exmeEhDIb/Kc8pefwtj9HR//rcpcHFfniuIp9EmVKWHOLZJ5i73fsRFntK3k+7wlAeUldUCevmhdgOXjGeSpjp99Rqb99xRaAje2Lx6yxTAt0UPqCWnnTkgSB8jjJ1vhKsdaFqwWgc2P74jEKQAXKtWTvtzI/5iBwTMJTai7TAlEmhXZ+g8TXWi7a1N/a9aOKLqcV3/8ULZVU4FhwS/LUavmsk44S5584Rf7JPNjqoIJkOys9hIovAP2tPU/I6G6OB9eamVGqqV6Mm1DS+zBvvHSSlf10f2vPExQAKGXDNZL2kYRbErMySpzBu9JRoueVs6crUZ8mCPfsS/j+emKgAEiSHmwN9smIHcJBmbkzZVLspiixwX86oRTLW7u5bWS7ei9ds5ckKAB/ZVPh7ZKeIAnHDtYqX8nZvDgFpSV9cZ1Mhml/DnoiSkdfIAYKwH+Raw4KnomWkoR7UufPkKllWiBK5KRal1Ly7BqCcHHbmGhprjngoW8KwGv1tqz9sZXdSBKO3QXwjDLzWEUNJTL6n18vJXh81UHf7m1Zy7RvCsCbiRZLGicHt/gnV8t/RxVBwGmJd02V/86pBOGe8dDTKmKgALypXGvwlKzuIAkHR1ZN9ZLHyAquXv2NMvO5U+Ume8vmRdknyYEC8JYyNgwkvUgSju2sdWklz2JaINyUel+tvBkpgnDPi5kouokYKACHZWN7MGBkA5Jw8C7AnHqZKTxdDcdOpFUJpS7kJVZOjv2NWbmxPeD17xSAw9f0eHSXpK0k4RaT8TjRwr3R/5yZMmlOpw7aunBL4avE8AbnUyJ4Yws3XrfQGPWThGMiq6GvP6to7xhZoPijqIa0pv6/J0mG06lrg39rTVOurftRouAOwBHLtWVzkv0WSbi21xplWGMdjsgsaODi7+Lo1uheLv4UgGMSGnOtpFGScEvipClKvIvpViiu5HumKcFbK1007HlhFzFQAI7J5pbsM5L9OEm4OfIyLLiCYvGN0ixQ5ebo35obNl0W7CAJCsAxs+noBknPk4RjO29NUsn31xIEiiJ93gyZ6T5BuOfZqYUCgzYKwMTINQcHJbuaJBw8CV9UJ1PFtEDEPMKcykuqHB79X/ODK4JhkqAATJj+luxXJf2UJByT9JTmtauIWWZevUyS06dzrB7ra+26nyAoABNcK421kemUZAnDLf5ZNfKOyxAEYpE4PiP/tGqCcE9kE6ZTxnCOpgBMvFx79+OSvkYSjnUzSZkF9UzFQhwDAaWZ9ufo6N98Ibeo+xcEQQGYvOM/b1ZLOkgSjo3K3jZF/ilMC8TkSr53mhLHc7fJQYM2KqwlBgrApOq7onunsYYXSzgoM79Bxmdkhkkq/ylPqTlM+3Ny8C+ty10e7CIJCsCkizKFWyQ9QxKOnaCn+Uqdx5PZmBypC+rkVTPjxMEj/6kpUc2nyYECEItcczBqjVaQhIMn6QtnyJvG3GxM8CWmJqkUa064unU6N7Yv5sUgFIAYS0BL9n5JOZJwTMJTupHbtJhYmXn1El8vuWhTf2vXj4iBAlAEtlNSSA5u8U+rVuIE1mfHBO1PJ06RfwrT/hxUsMZbSgwUgKLob+35jay5myQcY4zSC+p51zUmZl9q4s2TTm4a6Y5cS9fvSYICUMQK6nVL2k8SbknMyihxxnSCwDFJnT1dXkOaINyzz/iJ64iBAlBUj7SveUnWsCM6KDN3pkyKXRxHOcJMe0qxzLSb28aou/fSNXtJggJQdAMNDbdL+jNJOHaSqPKVuqCOIHB0o/+L6mQyTPtzj/1DlAo/Tw4UACdsnX1VXvKuIQn3JM+rlalNEgSO7MRYl1LqnFqCcLHYe2ZprjkokAQFwBn9rV0/srIbScK5k8WhKVzAEUjPr5cSPEbqoG/3Lco+RAwUAAevNv4ySXmCcIt/crX8d1QRBA5vf3nXVPnv5L0SDhoPPa0iBgqAk3Ita/5kZe8gCQdHdE31kseIDm8hYQ6N/uHgAEu3bl6UfZIgKAAOX2midZJeIgjHdvS6tFJnMS0Qby51Tq28GSmCcM+LmTC8kRgoAG7fBWgO9hvZHpJw8OQ+p15mCk914w0GmFMSSl3ErBEXWWNWbmwPBkiCAuC8mQOnf17Sb0jCsRN8xlP6Qk7weH3pOfUyaU6JDvrlwi2FrxIDBaAkbOjoCD1FrFHtoOQ5NfJmsrIbXnUibEgredY0gnBw8G+tWRIEQUQUFICS0du6tl/St0nCtT3eKNPEQ174rzJNDZLhIVH3Lv/6eq6t+1GCoACUnNBouaRRknBL4u1VSryLaV44JPmeaUqcyNsjnWM0kvDDNQRBAShJm1uyz0j24yTh4IhvQYMMC73AN0qzUJSro/8bNl0W7CAICkDp7sPp6AZJz5OEYzt+TVLJ99USRIVLnztDZrpPEO55tjof3koMFICSlmsODlpjuI3l4sn/4jqZKqYFVioz1Vdy9gyCcHPotPwHVwTD5EABKP0SsKjrK5J+ShKOSXpK87rXipWZV8/rop289uux/pbsBoKgAJTJUMNYG5lOSZYw3OKfVSPvuAxBVJjE8Rn5p1UThHsimzCdMoZzJQWgjO4CtHc/bozuJQnHupmYAlaBhVzpBWxzR92dW9T9C2KgAJSfcbNK0kGCcGw0eEJGyVMYDVaK5OnVShzPXR8HDdowZBl1CkB56ruie6ex5iaScE96fr2Mz4iw7Af/KU+pxgaCcJCV1uUuD3aRBAWgbEWZwi2S2UYSjl0YpvlKnccT4eUuNXuGvGpmfjjoL1Oimk8TAwWgrOWag1FjtYIkHLw4XDhD3jTmhJdtyatJKnUuJc/J0b9R58b2xWMkQQEoe31t3Rtk9DBJOCbhKd3IqnDlKjOvXuJrHherWW+uJftDcqAAVFDj9TolhSThFv+0aiVOYF34stuuJ06Rz4OeLipYYzqJgQJQUXKLun4ta+4mCdcGI0bpBfVinFhm27SJB/+c3DTSHbmWrt+TBAWgAquv1y1pP0m4JTErI/+M6QRRJlJnTZfXkCYI9+wzfuI6YqAAVKRH2te8ZKX1JOGe9NyZLBNbDiPMtKcUyz27ydps76Vr9hIEBaBiDdbPuk3Sn0nCsQtHla/UBXUEUeqj/4vqZKYw7c/Bq/8fbCa6ixwoABVt6+yr8pJ3DUm4J3lerUxtkiBK9eRWl1LqnFqCcLFge2ZprjkokAQFoOL1t3b9yMpuJAnnTlLKzGVaYKlKz6+XEjzO6dzY39jv9C3KPkQSFAD89WrjL5OUJwi3+KdUy39HFUGU2nZ711T575xKEO4Zj4xZSQwUAPyNXMuaPxnpTpJwcCTZVC95jCRLRsIcGv3DvdG/tR/fvCj7JElQAPDqalzw10naQxKOHSR1aaXOYlpgqUidUytvRoog3PPiFBvdQAwUALyORz+w+mVjxOswXbyozKnnafISYKYklLqI2RuOjv5XbWwPBkiCAoA3MPPAaXdJ+i1JOHZhyXhKX8iFxXXpOfUyaU5rDvrlwp9GXyEGCgDexIaOjtBT1EkS7kmeUyNvJivKOXsya0gredY0gnBw8O/JdgZBEBEFBQBvobd1bb+kb5OEa0eLUaaJh8tclWlqkAwPa7p3+dfXe1t7HiEICgAOU2i0XNIoSbgl8fYq+e9ieplr/PdUK3Eib3F0jtFIwg/XEAQFAEdgc0v2GRl9giTck25qkGGBGYeu/izY5O7o39y46bJgB0FQAHCkx04q/Kik50nCsYOmNqnk+2oJwpVCdu4MmRqWbHbQs9X5wi3EQAHAUcg1BwetMdw+c/Gic3GdTBXTAovNTPWVnD2DINwcwiz/wRXBMDlQAHC0JWBR11ck/YwkHJP0lL6Y285FL2LzeG2zo37S35LdQAwUABzTEMdYG5klkixhuMU/e7q84zIEUSSJ4zNKnsa0PwdF1jNLZAznLAoAjvkuQHv347L6Okk41s3E1LMiFmOlF5C9m8eF+WJuUfcvSIICgIk6qApmpaQhknBsFHpCRslTqgkiZsnTq5U4nrsvDhrMy7CcOQUAE6nviu6dkm4iCfek59fL+IxEYyvDKU+pxgaCcHHbGPORR1q7XiAJCgAmmE2HH5PMNpJw7KQ3zVfqXJ5Ej0tq9gx51czAcNBf0uH024mBAoBJkGsORqVoJUm4J3lhnbxpPkFM9glrmq8kZcvV0f/Sje2Lx0iCAoBJ0t/a800ZPUwSjp38fKN0I9MCJ1u6qYGvW9w8Anr7Wrp/QA4UAEwya7xOSSFJuMU/rVqJE1iPfrIkTpgi/2Tew+CggjWmkxgoAIhBblHXryV9kSRcGwQdmprG+HQSopWY9ufsxrF35lq6fk8QFADEJGnCbkn7ScKxUeqstPwzphPERO/vZ9coMStNEO7Z5yX8jxADBQAxeqgl2G2l9SThnvRclqed0AFmylPq4jqCcJG12d5L1+wlCAoAYtYwEN4u6c8k4dgFq8pXihfUTJjURTNlqphh4eDV/w82E91FDhQAFMGGjmDcGi0nCfckz58hU8srao/5BFWbVPL9NQThYtH1zNJcc1AgCQoAiiTXkv2hpAdIwrmTozJzmRZ4rNILGmQ8Hvxzbv+Wvtu3KPsQSVAAUGRhQssk5UnCLf4p1fLfXkUQR5vf26vkv5Npfw4aL3haQQwUADhg82XZPxrpTpJwcATb1CAxgj2KM5M5lB2cY639+OZF2SdJggIAZyq5v07SHpJw7ACbmVLqTKYFHqnU+2vkzUwRhHtenGKjG4iBAgCHPPqB1S/L2rUk4eDFrLFeZgovrzlcJuMpdcFMgnBx20irN7YHAyRBAYBj6gdP/5yk35KEixc0pgUernRjvUyGU5ODftn0eHgPMVAA4KANHR2hp6iTJBy8C/C+Wm5pH84JaWZKSb4ycZH1ZDuDIIiIggIAR/W2ru23xn6HJFw70owyPNT21qN/Hpp01X29rT2PEAMFAI7zE9FySaMk4ZbE26vkv4tpbW+4376HaZNOMhoxoVlDEBQAlIBNlwZPW2s/SRJujnBNghHua64xCaN0IwsnOcmaG/su795OEBQAlIpMdL2k5wnCsQOuNqnkObUE8SrJ82fIY+lkFz2XNOlbiYECgBKSaw4OWmu7SMI9qYvrZKqYFvjX0X9VQqnzmSXh5uDfLH+o5dohkqAAoNRKQGv2Hkk/IwnHLngpT+mLud39f6Xn1/P6ZDf9JLeo65vEQAFASV5pjPWs7ZRkCcMt/tnTlZiVrvgcErPS8k9n2p+DIs/aThnDuYMCgFLV29azRVZfJwnHupmk9IJZkqngBwKNOfS2P3YHB/dP88Xetp6fkwQFAKV+MBfMSkl8j+fa6PeEjPxTKndaYPK0aUqcMIUdwT2DeZkeYqAAoAz0XdG9UzI3k4R7MvMbZPzKGwMb3yjVyHr/TrK67pHWrhcIggKAMjE6UPUxyWwjCccuhNN8pc6tvCfgUxfUyZvmswO45y8ZW3MbMVAAUEa2dCwbkaKVJOGe5IWVdTE003wlz2Pan5PbxpilG9sXj5EEBQBlpr+155syepgkHDvpVtjt8Er92qME9sTevpbuH5ADBQBlyhqvU1JIEo7dBaiQB+ISJ0yp6AcfHVYIw2gpMVAAUMZyi7p+bWS+RBKuDb7Kf0rcoamPDZU99dHZkYE+s/nynt8RBAUAZc43hS5JB0jCsdHxrLT8904r3/3u7BoWP3LTy14ysY4YKACoAA+1BLuNMetJwj3peeW5LO6h5Y+Z9ufm4F/Z3kvX7CUJCgAqxMwDhdsk+x8k4diFsspXanb5PSGfumgmL0By8/L/B6XDz5EDBQAVZENHMG6Mt5wk3JM8r7xejevVJpV8Xw0b1snrv12Waw4KBEEBQIV5ZcrPAyTh2F2AhFF6bvm8LTC9oEEmwYN/zu1n0nf729Y+SBIUAFSoMKFlkvIk4Rb/lGr5b68q+d8j8fYq+e9k2p+DxgueVhADBQAVbPNl2T/K2M+QhIMj56YGySvhkbNnlGlqYEO6Ofr/xOZF2SdJggKACpfPJwNJe0jCsYNzZkqpM6eX7OdPvb9G3swUG9I9L3qJ5A3EAAoA9OgHVr8sa9eShIMX0cZ6mUzpHaYm4yl1AdP+HB39r9502SrWAQEFAIfUD57+OUm/JQkupJVcXCrg4v+rpsfDe0gCFAD81YaOjtAYsRa4ixfTEruVXupfXZQxa2SXBEEQEQUoAPgv+lqyfUb6Lkm4dpSW1sN0Jf/wYvn6t97WnkeIARQAvP4O4YfXSBolCbeUynS6cpm+WHaMRkxoVhMEKAB4Q5suDZ621n6SJBwcWTu+oE65LWBUTqx0U9/l3dtJAhQAvLlMdL2kFwjCsYPV8SV1y20J4zLyXEqZW4gBFAC8pVxzcNBIXSThHldfqlOuLzEqi9G/tdc+1HLtEEmAAoDD8spUoZ+RhGMXWkdfq1uurzEuAz/JtWa/QQygAOCwBUEQedZ2SrKk4Rb/7BolZqWd+TyJWWn5753GhnHPoWPYGI5hUABwZHrberZIuo8kHLsLoEMPBMo48ECgMYceTmSzuLijfKm3refnBAEKAI7uHJI3KyTx/aFjEidMkX9K8acFJk+bpsQJU9gg7hksWC9LDKAA4Kj1XdG9UzI3k4R7MvMbZPzijb2Nb5RqZL1/J1ld90hrFzN5QAHAsRkdqPqYZLaRhFvMNF/J84r35H3ygjp503w2hHv+krE1txEDKAA4Zls6lo1Yo1Uk4Z5UkS7CZpqv1HlM+3N09L9sY/viMYIABQATItfS/Q1Jm0nCsbsARboNX+yvH/CGF/++/rbs9wkCFABMqDCynZJCknDLoQfxMrH9vMQJGSceQMRrD9FXjlGAAoCJtbm951dG5ksk4dptAKP0glmxTMU7NAVxlhtTEPHq0f+dmy/v+R1BgAKASeGbQpekAyThlrgW43FtESL81cteMrGOGEABwKR5qCXYLavrScI9k70cr6vLEEMysj29l67ZSxKgAGBS1Q+Gn5Lsf5CEYxeBKl+p8yfvyfzUxXVOvogI9g8H6o/7HDmAAoBJt6EjGDfGW04S7kmePzmv5PVqk0qeU0vATl7/7bKts6/KEwQoAIhFX0v3DyQ9QBKO3QVIGKXn1k/4v5te0CCT4ME/B6/+3+tvW/sgOYACgFiFCS2TxMjDMf4p1fLfXjVh/17i7VXy38m0PweNe6G/ghhAAUDsNl+W/aOsPksS7kk3NUjeBIzYPaNMUwOBujn6/2Tv5Wt4FgcUABRHPvTXStpDEo4d2DNTSp45/Zj/ndT7auXNTBGoe3YnEqmPEgMoACiaRz+w+mUrBSTh4F2AxnqZzNEf4ibjKXUB6/07ydjVmy5bxXocoACguBoGTvusMWIFMteuERlPqQuOft5+qrFeZgrT/pzbrtKvFmyJvkwSoACg6DZ0dISSOknCPan31xzVLXxvZkqpCfgKAZPRAExnEAQRQYACACf0tWT7jPRdknDtCDeHHgg8QhP2ECEm2n19Ld28lRMUADi2M/nhNZJ4D7lj/COcxjfR0wgxUSN/jZjQrCYIUADgnE2XBk8b6ZMk4Z70ggaZwxjRG29yFhLCBFz/I93cd3n3dpIABQBOGhtLXS/pBZJw7ECvTSr5/pq3/HOTtZQwjtlzvpf5GDGAAgBnPXblykEjdZGEe1IXzXzTl/mYKl+p2Uz7c5G19tqHWq4dIglQAOC0psfDeyT9jCTc8lav853s1wnjKC/+0pZca/YbJAEKAJwXBEHkWdt56NwFl/hn1ygxK/2a/56YlZb/3mkE5J4oYe0SGcOxBAoASkNvW88WSf9GEo7dBdChBwJl/uaBQGMOPSRIPC5usS/3tvX8nBxAAUBJsVG4QhLfWzomccIU+Sf/57RA/7RqJU6YQjDuGSzIdBMDKAAoObn24DlrxJPLDko3Ncj4RsY3Sjcy7c/R0f/6R1q7mFEDCgBK09iBqTdLYu6yawf+NF/J82YoeUGdvGk+gbjGmqcz0fRPEQQmtWISASbbwo0f+X+MMfeRhGPXmPFIJiEpwTjAwVPz3/e3dn+PHEABQMlrfuC6hyU1kQTwVs1Mff1t2b8jCEw2qj9iEUa2UxJvMAPe4lB55VgBKAAoD5vbe34loy+RBPBmg3/zmc2X9/yOJEABQFlJKlwj6QBJAK/rZeUL64gBFACUnYdagt2yup4kgNcysj25K4I9JAEKAMpS/WD4Kcn+B0kAf3vx1x8P1B/3OZIABQBla0NHMC5rriUJ4D9ZGy3dOvuqPEkg5uIJxK/5gfUPSLaFJAB9v781eyUxgDsAqAhhwi6VxIgHlW7cCxPcEQMFAJVj82XZP8rqsySBymY/2Xv5Gp6JAQUAlSUf+msl8dQzKtXuRCL1UWIABQAV59EPrH7ZyDLvGZU59rdas+myVayLAQoAKtPMgdM/Y4xY+QwVxUi/WvjTkJUxUez9ECiuSx687hJr1UsSqJgTrzEL+lq6N5MEuAOAitbXku2TLK8+RWVc/K3+jYs/KADAKxJ+tEzSGEmgvK/+GlFkVhEEKADAKzZdGjwt2U+RBMr6+h/p5r7Lu7eTBCgAwN8YH0uvl/QCSaBMPed7mY8RAygAwKs8duXKQRnbTRIoy9G/NSsearl2iCRAAQBex4It0Zet9HOSQDmx0pa+1q5/IwlQAIA3EARBlLB2yaFzJlAWIk+mU8awT4MCALyZ3raeLZIYLaFMmC/3tXb/jBxAAQAOg43CFZL4vhSlbrAgw3MtoAAAhyvXHjxnrG4hCZR0kZWuf6S1i5ktoAAAR2JkcOpNkpgzjRK9+punp0Q1nyQIUACAI7SlY9mItZZV01CajJZtbF/M6pZweBcFHNf8wHUPS2oiCZTO6F99/W3ZvyMIcAcAOAZhZDslRSSBUtllX9lnAQoAcCw2t/f8SjJfJgmUiM9uvrznd8QACgAwAZKmsFrSAZKA4162+TAgBlAAgAnyUEuwWzIfJQm4zBitzV0R7CEJUACACVQ/UPikZP+DJODkxV/644GZsz5LEqAAABNsQ0cwLnkrSAIuiqRlW2dflScJUACASdDf2v09yTxIEnDM93Ot2QeIARQAYBKFCbtUEiMtuGLcCxPXEgMoAMAk23xZ9o9W5nMkAScYfar38jU8mwIKABCHQiHRI4mnrVFsuxNe8npiAAUAiMmjH1j9spFdRxIoJmu1ZtNlq1ifAhQAIE4zB07/jDFixTUUhZF+1TB42pdJAhQAIGYbOjpCSZ0kgeI0ANP5yj4IUACAuPW1ZPskfZ8kELNv9LV0byYGUACAYg7EIi2TxHvXEdMOpxFrw1UEAQoAUOy7AO3Zv0j2UySBmArnzbm2YBtJgAIAOGB8LL1e0gskgUke/e/0vczHCAIUAMARj125ctBaZUkCk8raFQ+1XDtEEKAAAA5Z+NPwS1b6OUlgUq790pb+lux9JAEKAOCYIAiihLVLDp2rgQkVeTKdMoZ9CxQAwEW9bT1bjNU3SAIT7J6+1u6fEQMoAIDLQzUbXiuJ72kxUQYL8rqIARQAwHG59uA5Y3ULSWAiWOn6R1q7mGECCgBQCkYGp94kaTtJ4Niu/uZppUPWmAAFACgVWzqWjRhrVpMEjun679lrcs3BKEmgHBkiQDlb+MB1m400nyRw5Fd/9fW3Zf+OIMAdAKAERZFdIikiCRyh0JO3lBhAAQBK1Ob2nl9J5sskgSP02d62rt8SAygAQAlLmsJqSQdIAofpZZsPA2IABQAocQ+1BLutdANJ4LBYE+SuCPYQBCgAQBloGAg/Idn/IAm8GSP9caCh4TMkAQoAUCY2dATjkreCJPBmImnZ1tlX5UkCFACgjPS3dn9PMg+SBF6PtfYHudbsAyQBCgBQjjt85C2TxAgPrzaeiPzlxAAKAFCmetvX/EHSXSSBV43+b+u9fA3PiIACAJSzfMHPStpLEnjFbt9PrScGUACAMvfoB1a/bIzWkQQkycp2bbpsFetEgAIAVIKZB0670xj9jiQq3q8bBk7/EjGAAgBUiA0dHaGNItZ6r3SR7dzQ0RESBCgAQAXpb1vbK+n7JFGxvtHf3vMwMYACAFQgE2mZpDGSqLQNrxFrw1UEAQoAUKH62rN/kdFtJFFhrP1Yri3YRhCgAAAVbHw0dZ2kF0iiYkb/O5Nmys0EAQoAUOEeu3LloLXKkkTFjP5XPNRy7RBBgAIAQAt/Gn7JSj8niTK/9ktb+luy95EEQAEAJElBEESeMZ2HrhEoU5En0ylj2MYABQD4T30t3T+R9E2SKE9G5it9rd0/IwmAAgC8ho3C5ZL4frj8HEx4hS5iACgAwOvKtQfPGatbSKLMRv/GXP/jRcHzJAFQAIA3NDI49SZJ20miTFjzdJQqfJIgAAoA8Ka2dCwbkewakiiT0b+0PNccjJIE8JpjA8BrR43WLHxw/cNGmk8Ypbwd1dfflv07ggC4AwAcZjU2NorsEkkRYZSs0JPHGx8BCgBwZDa39/xK0j0kUbIl7nO9bV2/JQiAAgAc+QHie6slHSCJkvOyHS+sJQaAAgAcld5Lu1600g0kUWKsCXJXBHsIAqAAAEetYSD8hJGeJInSYKQ/DjQ0fIYkAAoAcEw2dATjkdEKkigNkbRs6+yr8iQBUACAY5ZryX5XVg+RhPOj/x/mWrMPkARAAQAm7mCxiaWSCiThrHFrtZwYAAoAMKF629f8QdLnSMJN1trb+tuyfyYJgAIATLh8wc9K2ksSztnt+6n1xABQAIBJ8egHVr8saz5CEm4xUvemy1axXgNAAQAmj80U7jRGvyMJZ/x65sBpXyQGgAIATKpcc1CwUcQa866IbOeGjo6QIAAKADDp+tvW9lprf0ASRffN/vaeh4kBoAAA8R081iyVNEYSRWI0Ym24kiAACgAQq7727F+stbeTRJFY3ZJrC7YRBEABAGKXH09/RNILJBH76H9n0mRuIgiAAgAUxWNXrhy0sj0kEffg36x8qOXaIZIAKABA0Sx8PPqirH5BErGN/h/PLer6OkEAFACgqIIgiIxnlkiypDH5g39jzRIZQ9YABQAovr6W7p9I+iZJTPbg39zT19r9M5IAKACAO0PTKFwuaZgkJs3BhFfoIgaAAgA4JdcePCfZW0hishqWPvrjRcHzBAFQAADnjA5U3yhpO0lM9MXfPG0z4ScIAqAAAE7a0rFsRLJrSGJiGWl5rjkYJQlgQo8rABM7WrVm4YPrHzbSfMKYgDhl+nOt3ZeQBMAdAMDxWm2sJ69TUkQYxyxMWNNJDAAFACgJfa1dvzQyXyGJY3ZXb1vXb4kBoAAApXMjwDerJA2QxFF72eZDllkGKABAaem9tOtFY8wNJHF0rLQud0WwhyQACgBQcmYeKHzcSE+SxBFf/v80WD/rTnIAKABASdrQEYzLmpUkcWSMscu2zr4qTxLAJB5nRABMvuaN1z0oo0UkcVgnpR/2tWavIAmAOwBA6R9oNrFUUoEk3lLeWi0nBoACAJSF3vY1f5Axd5HEW47+b+tvy/6ZJAAKAFA2UraQlbSXJN7Q7igdricGgAIAlJUHW4N9suYjJPGGo//uXHOwnyQACgBQdmymcKek35PEa/x65sBpXyQGgAIAlKVcc1CQjTpJ4lUi27mhoyMkCIACAJSt/ra1vUb6IUm8wmhDf3vPwwQBUACAChjxqlPSGEFo1EbhCmIAKABARehrz/7FWns7SehjubZgGzEAFACgYuTH0x+RtKtiAzDamTSZm9gTAAoAUFEeu3LloJEq9nW3NrKrHmq5dog9AaAAABWn6fHwbln9ogJH/4/nWrP3sgcAFACgIgVBEBnPLJFkK2nwb6xZImMsewBAAQAqVl9L908kbaicy7++0tfa/TO2PEABACpeaMxyScMV8Kse9BPhGrY4QAEAIGlzS/ezkm6tgNH/R3+8KHieLQ5QAAC8YnRg6g2SdpTxr/iMzYSfYEsDFAAAf2NLx7IRa0z53h63Wp5rDkbZ0oAbDBEALl0krWl+cP1mSfPK69pv+nOt3ZewgQHuAAB43UpurJG3RFJURr9VaBQtZeMCFAAAb6KvteuXRuYrZfQr3dXf2vMbtixAAQDwVjcCfLNK0kAZ/Cr7bT7sYYsCFAAAh6H30q4XZXVjyRcZmXW5K4I9bFGAAgDgMNUPhrca6cnS/Q3snw7UN9zBlgQoAACOwIaOYFzWrCzZ0b+xy7bOvirPlgQcPUaJAHBb88brHpTRohIb/f+ov7XnA2w9gDsAAI72ILWJpZIKJfSR87LmGrYcQAEAcAx629f8QdLnS2j0f3t/W/bPbDmAAgDgGKUUdkvaWwIf9SWbjq5jiwEUAAAT4MHWYJ+V3L+wGtudaw72s8UACgCAiZIO75D0e4c/4W/qD5x+NxsKoAAAmEC55qBgJWfX1LdWnRs6OkK2FEABADDRJaA1u8lIP3TugxltyLVlc2whgAIAYLJE6pQ05tAnGrVRuIINA1AAAEyivvbsX4z0aVc+jzX2llxbsI0tA1AAAEyysbHUOkm7iv5BjHYqFd3EFgEoAABi8NiVKweNVPTX7NrIrso1BwfZIgAFAEBMmh4P75bVL4o4+n8815q9ly0BUAAAxCgIgkgJ2ynJFmPwL9lOGWPZEgAFAEDM+hf1PCaj+4vwo7/a39LzU7YAQAEAUCShzDWShmP8kQd9L1xN8gAFAEARbW7pflbSrfH9RHPDjxcFz5M8QAEAUGSjA1NvkLQjhh/1jE0XPk7iAAUAgAO2dCwbsdZ2xTD6vzbXHIySOFD6DBEAZcJa0/zg+s2S5k3KPy/Tn2vtvoSgAe4AAHCqzhtr5C2RFE3Cvx4aRUsJGaAAAHBQX2vXL2X11UkY/X++v7XnNyQMUAAAuHpQJ72VkgYm8J/cH0ZeD8kCFAAADuu9tOtFWd04Uf+ekVn3SPual0gWoAAAcFz9YHirkZ489n/J/ulAfcMdJApQAACUgA0dwbi1WnXMo39jl22dfVWeRIHywzRAoIwtfGD9Q0b2sqM8O/x7f0v2clIEuAMAoOQafrRUUuEo/mpekZaRIEABAFCC+lt7npD0+SP/m/b2/rbsn0kQoAAAKFEphd2S9h7BX3nJpqPrSA6gAAAoYQ+2BvuMzPrDHvtbZXPNwX6SAygAAEpclC58WtLvD+OP/qZh8LQvkBhAAQBQBnLNQcFKb7mWv5WWb+joCEkMoAAAKJcS0JrdJNkfvdH/b6zuP/RnAFAAAJQVq6hT0tjr/F9jkQlXkxBAAQBQlncBgqck+5qlfY10y6H/DwAFAEBZykTROkm7/uY/7UpH4c0kA1AAAJSxje3BgIxd+5+jf7NiY3swQDIABQBAmVuwJfqCpK2StjY9XriXRAAAqBDN//6RBQv/ff3FJAFUpv8fGyHoAzvxHkoAAAAldEVYdGRhdGU6Y3JlYXRlADIwMjItMTItMTNUMDI6NDU6MDErMDA6MDANqutNAAAAJXRFWHRkYXRlOm1vZGlmeQAyMDIyLTEyLTEzVDAyOjQ1OjAxKzAwOjAwfPdT8QAAAABJRU5ErkJggg==;" parent="1" vertex="1">
          <mxGeometry x="619" y="-790" width="102.63" height="89" as="geometry" />
        </mxCell>
        <mxCell id="ORMudLoAq7WYr6hYme3h-18" value="&lt;font style=&quot;font-size: 18px;&quot;&gt;docker-compose.yml&lt;/font&gt;" style="whiteSpace=wrap;html=1;shape=mxgraph.basic.document" parent="1" vertex="1">
          <mxGeometry x="313" y="-1140" width="210" height="158" as="geometry" />
        </mxCell>
        <mxCell id="ORMudLoAq7WYr6hYme3h-21" value="" style="shape=image;verticalLabelPosition=bottom;labelBackgroundColor=default;verticalAlign=top;aspect=fixed;imageAspect=0;image=data:image/png,iVBORw0KGgoAAAANSUhEUgAAAgAAAAIACAYAAAD0eNT6AAAAAXNSR0IArs4c6QAAIABJREFUeJzt3XmAXGWd7vHnd6o6G0u6q7tDiEFDUgGMCyPIjIozbowrqKMSddSZQdGmuyGK6FXGe+eGcdxgBAlJd+JudFSiiFfZBlEzIrhgRhYJJF3dybAlpLcsJKSXOr/7RxJkSdLV3VX1VtX5fv6B7pzlOemG89R7znmPBAAAAAAAAAAAAAAAAAAAAAAAAAAAAAAAAAAAAAAAAAAAAAAAAAAAAAAAAAAAAAAAAAAAAAAAAAAAAAAAAAAAAAAAAAAAAAAAAAAAAAAAAAAAAAAAAAAAAAAAAAAAAAAAAAAAAAAAAAAAAAAAAAAAAAAAAAAAAAAAAAAAAAAAAAAAAAAAAAAAAAAAAAAAAAAAAAAAAAAAAAAAAAAAAAAAAAAAAAAAAAAAAAAAAAAAAAAAAAAAAAAAAAAAAAAAAAAAAAAAAAAAAAAAAAAAAAAAAAAAAAAAAKDWWOgAAA4vu7z3FItS/+Ty2aGzTIzl4pRW9rRkHgidBMCfUQCACrags+98c7tCUjp0lknaIdfiXHvjzaGDANiHAgBUqBNWDp4cx/EdkupCZymSrcNKLXqgrX4wdBAAUhQ6AICD8zh+r2rn5C9Js6dY/MbQIQDsQwEAKlT1XvM/NHPNCZ0BwD4UAKBSeQ1eoqvFYwKqFAUAAIAEogAAAJBAFAAAABKIAgAAQAJRAAAASCAKAAAACUQBAAAggSgAAAAkEAUAAIAEogAAAJBAFAAAABKIAgAAQAJRAAAASCAKAAAACUQBAAAggSgAAAAkEAUAAIAEogAAAJBAFAAAABKIAgAAQAJRAAAASCAKAAAACUQBAAAggSgAAAAkEAUAAIAEogAAAJBAFAAAABKIAgAAQAJRAAAASCAKAAAACUQBAAAggSgAAAAkEAUAAIAEogAAAJBAFAAAABKIAgAAQAJRAAAASCAKAAAACUQBACqVRXHoCMXm5qOhMwDYhwIAVCh33xw6Q/HFudAJAOxDAQAqVn615EOhUxSLSXdPaWq6KXQOAPtQAIAK1d0+K2dm75H0WOgsk2a6J1K8eP1iGw4dBcA+FjoAgMPLLtvVbKmhN7lFx4TOMl7mcinOeb7x+twSq5nRDAAAAAAAAAAAAAAAAAAAAAAAAAAAAAAAAAAAAGBSmAmwisxfNfDsVN4vcPlJLpsWOs94mDQq6SE3+2Z3a+a28a4/7xubpqX2Ht1urpe6NLMEEUvL1KvYb+pua/y2zHw8qy5c3vdXiuz9Lh3nUl2pIpaCyffKrCs1mrpqwwX1m0LnAfBnFIAqMX9532uiyK5RNZ78niqW/H/n2po+V+gKCzq3zjKv+6WkRSXMVS43z0xlzlzXYiOFLJxd0X+hTJdJSpU4V6k9Fkf2zp7zMjeEDgJgH14GVAWyy/qPjiJbreo/+UtSJNm/ZVf2v7TQFUx1K1QbJ39Jeu2O/MDFhSyY7Rx8kUyXqvpP/pJ0ZBTH33zeV3dkQgcBsA8FoApYnf5W0pzQOYooUuzvK2TBE7/We5Rcf1fqQGX2jwUtFcfvkZQubZRysuah4fwbQ6cAsA8FoAp4bFX3FrixRccWslQ8VNes2vgE/GQFHbvks0sbo/ys4GMHUGoUgGpgcWLv1fBUTd6nUovHVBhP8LEDFYYCAABAAlEAAABIIAoAAAAJRAEAACCBKAAAACQQBQAAgASiAAAAkEA1NMsYAKBcFqzo/1czS0/x0c+ub5/1WOg8GD9GAAAA47Kgc+B0M/2z5BcPWWrjgo7+D2mpcz6pMvzAAAAFe+FlW48w1ze1f4puk441aVW2eeB3CzoHTg8cD+NAAQAAFGzPjLplkmef8QemF5v7rdmO/jXzVw08O0A0jBMFAABQkOyKgbNkev9hFjFJZ0d5v3fBiv6PvXKpc59ZBaMAAADGlF22q1nyrxS4+JFmuuyhWQN/OL5j4IUlDYYJowAAAMZWN9wh03hfTX5ySvHvsx0Dn+AmwcrDDwQAcFjZzv7Fcr1jYmvbVMk/v/CYgZtP6Ox7VnGTYTIoAACAQ8ou6z9arismux13vSZ2/XHBit5XFSMXJo8CAAA4JE/p05LmFGdr1mwW/SzbMfAJuVtxtomJogAAAA5q4YrBvzBTe5E3m5L889nOwW8tWuNTirxtjAMFAABwULHFl2n/hD/F5+8b7hv45b6nCxACBQAA8AwLOwfONOmMEu/mZUoP//qkzsF5Jd4PDoICAAB4qjWecvfPl2lvJ4x4fPv8qwZeUKb9YT8KAADgKRb0Drxf0vPKtT+Tjo1S8c+zy3tPKdc+QQEAADzJojU+xUyfKv+erVlR9Iv5K/pOK/++k4kCAAB4wnD/4AckPSfQ7mdGZjcv6Og9NdD+E4UCAACQJGWX+VS5Xxw4Rr3Jbsyu7F8UOEfNowAAAPZJDbxX0nGhY0jW7LFu4emA0qIAAAAkd5Ppo6FjHGDSsaMe3/Dsju0NobPUKgoAAEALVw6+SVKlDbs/d4rlf5xd5lNDB6lFFAAAgNz9wtAZDsr1N0r3f5V3BxQfBQAAEu6EVX0nSargt/TZexd0DFwUOkWtoQAAQMLlYztPUkV/wjbT57Idg68InaOWUAAAIMHmXv7gdHO9L3SOAqTl8dUnXtVbpFcTgwIAAAk2bfr0d0jKhM5RENMx+ZR995VLPR06Si2gAABAgrnbP4TOMD72ioePGQg9WVFNoAAAQEI9d1XvsVbRN/8dnLv+hemCJ48CAAAJNTIavUtSKnSOCUiboq8tWuNTQgepZhQAAEgq07tCR5iEk4f7BgK8tbB2UAAAIIFO6Ox7lqRqf/Xuxcd3DLwwdIhqRQGoAqYoHzpD8XlBx5SOC1uuyhR2TBbFJc5Rdm4+GjoD9onj6C2q8Gf/C1CXkr4UOkS1ogBUhTgXOkHRuXcVstjoSP0WSXtKnKbcCjp2mXeXOEf5xTV4TNXK/M2hIxSHv2rhir63hU5RjSgAVaCrqfGXkn4bOkcR7XBZRyEL5pbYkGRXljpQWZk+V8hiqdH4K5IGS5ymfEz3TJnVeGPoGJAWrdh2pOSvDJ2jWNzssnnf2DQtdI5qQwGoBostn7bo3ZJ+HzpKEWy1SGd3tzc+WPAaow2XSLa6hJnKZUTyT+VaG9cUsvCGC5ofiWM/26UtpQ5WcqZ7osgXr19sw6GjQBqy9F9LVktv2Juf3jvzI6FDVJtqv/6TKK9c6umHZw2+zuUnSlYXOs94mMtlemhkyG7YfGHD9olsY/6KvtPM9BJTNKPY+UrNTNs9im7JtdSPewh83hWD9XVT/A2SjnOrrv9m3XzU8p6bMqvxRk7+lWNhR/9lLn0sdI4i25WO646///yj+0MHqRZV9T8TAMDkZTv6/luyF4XOUXSuS3LtjUtDx6gWFAAASJBnd2xvmKJ8n2rzEvBgamr8nA0faN4VOkg1qMVfAADAIdQpfolq9//9DfHeVGvoENWiVn8JAAAHYeZ/GTpDKbn8o3Mvf3B66BzVgAIAAAlisWq6AMh0zLSpR5wTOkY1oAAAQIK46cWhM5Sc+YdCR6gGFAAASIgFnVtnSZoVOkcZnJxd3ntK6BCVjgIAAEkRp54XOkLZWIrLAGOgAABAQpjZotAZysb8vdwMeHjp0AEmYmFn/9vd/R8lmxM6ywSMyj0XpVKXbTyv4a7xrJjtHHyRPP8xyRaoKn92vkWy1bm2xh+Md81nd2xvmKr8P7v0UklVOOe37ZLin41O33X55nOO3zueNRd2DLzJpXMlP65U6Uoo76Zut/jynvOa/zDelRd2Dpzp0rlyn1uKcCWWd1O3PP5id1vzutBhJMndTrDkzP5SP3X6EW+R9P3QQSpV1f0qZFcMXCXz80PnKIJhud6Ta2/8YSELL1jR/04zfVtSVU0BfFDmHbnWpvZCFz9++eBzUlF8m6RnlTBVWZh0d53nT1/fPuuxQpbPdgx8VvKLS52rDEZdfm53W9O3Cl0hu6LvczL7ZClDlcmozN+fa236dugg2Y6B/yfVylsAx+bS9d1tjWeGzlGpquoSwIIV/a+vkZO/JE2RadXzvrojM9aCJ6za2WSmTtXCyV+S3Nqynf2vK3TxVBSvUg2c/CXJpRcOR6l/LWTZ+SsGXi55LZwAJSltsuUnXtVb0KjdCR0Dfy2zT5Q6VJmk5bbiuat6jw0dRPLnhE5QTia9es6qR6ru3SHlUlUFwEyLQ2cosszQ0Oirx1ooH4+eIamhDHnKx/WOQhabd8VgvaTXljhNuZ1dyEImP1tVOEp3GEfGqaig4uf7/o5q6diPGs5bJfweJ6oASJo+fXTq34QOUamqqgBI1hg6QbGZWdOYy8Qac5Sg+ox93JKUnmGNqq0TgeQq6NhNXnO/74X+3F1x7R17Af+tl9L+G+LqQ2YIITJ7Y+gMlarKCkDtKej1rhbX1gkQyeU1VubGIw577NPSM2qvVBXA5W8KnaFSUQAAIAHyaavBkcSCzJ+/ctvC0CEqEQUAABIgJaut+4jGweLo9aEzVCIKAAAkQBz5EaEzBGP20tARKhEFAAASwDyeGjpDKOb6q9AZKhEFAAASIUpsAZA0P7tsV3PoEJWGAgAACWCKa2MisQmy9NDJoTNUmiqcTx4AMF4WR6NuHjpGOG7Pk3TLof547uUPTp8yY+rcKK6bI/O5rrghkjW41OBSg7nVu/xISTJphqSDjKjYTpfnJQ2ZbMDdBy3SgMkHXbbVYz2Uivx/NjY2btViy5foSAtGAQCARIiHam1OrfFw0/Ozy3Y1x6mREyP5iR75CebRCTJfINccSY2KJSmWXDKZDtSlfX9rhUxi8eRlXGaS/M/fNZNiN2X7BkbV0f+Aue6Xab277o/ld09rbrxr/WIbLuqBHwYFAACSIIqG5QkeAZDOVXr43APXvc2fODuHkJY0303zJb1RJkUyDfcNDC/s6L/Lze9wRbfG6ZFfbvrgMY+WMgQAoMbFivcUMvEogpri0mlyO83kbamRtLId/evlulEpXZNryfxWVrzrOBQAAEiAlKX6Y49Dx8D4LZJpkWJdlF058JB19N/gbtfN7W24ce1SG53MhnkKAAASIB6O+0NnwCS55rr0IZn/5MFZAw9kOwY+u2BF/3ET3RwFAAASYO/oHgpADTHpWMkvNlNPtrP/B9mOwVeMdxsUAABIgIc+etzjkgZC50DRpeV6hxSvzXb0/2HBiv6C33tAAQCA5NgUOgBK6lQz3Zjt6FubXdk/5vsPKAAAkBAu/U/oDCgHe4Vi3ZbtGFh9wqqdTYdaigIAAMnRHToAysYkf1+cH7l3YefAmQdbgAIAAEnh/qfQEVB2s9z9J9kV/f9+6ip/yvsgKAAAkBAWpe4JnQFBmEwX7cwP3HZS5+C8A9+kAABAUozUr5c0qcljUL1cOm3U4zsWdAy8QaIAAEBi5JbYkOSMAiRbk8mvW9DR/2kKAAAkiUe3hY6A4CKTzqAAAECCeCQKACTXGgoAACRISvGtoTMgOHfphxQAAEiQja1ND0viccBku727vfFBCgAAJIxLN4bOgHDMfI3EUwAAkDhm8Q2hMyCY2KRrJAoAACROrrHpVrkeDZ0DQdy8/zIQBQAAEmex5RX5NaFjoPziyK468O8UAABIoDiOvhc6A8rNu3u2Ntx04CsKAAAkUE9vw+2SNoXOgfJx05e01OIDX1MAACCJllos+VdDx0DZbB16/PGvPfkbFAAASKhRj78uaSR0DpSB69KHPnrc40/+FgUAABJqc/usrZJ+HDoHSu7hPemhVU//JgUAABIsdr8sdAaUlss/9UjLnD1P/z4FAAASrKe96Q7Jfhk6B0rmzu5tjd8+2B9QAAAg6cy/EDoCSiKO3S548p3/T0YBAICEy7U2/qfEa4Jrjbu+0tOe+fWh/ryqCoDLR0NnKDr3Me/AdVnt3aVrhf0s8yM1+DMv8K5rM6u5Y3eN/fu+T1Rzxx5V+N32sdsnQ2dAUW0dsdTFh1ugqgqAye4PnaHY3LV+rGWiOKq541YBxy1Jmbr6RyTtLHGacivo2F2+odRByi4q7NiluPZ+51OFHnsYPe2ZX5uLlwTVBjezDz7QVj94uIWqqgBotO5LNfUCC9fPutsyvxlrsa72+ltVU6/v9F63kRWFLLmuxUbM7TOlTlRG7rJLCllwdCjVKdNDpQ5URrflGjO3FLJgnIo6JD1Y4jxlY9Kvu7Zmfh46x1jiyD4hqeZGX5LHOrpaM9eNtVRVFYDckqN6zf0tkuVCZ5k8/2mUrvt7mfmYi5q528g/1Ug73xi73tTdOntboSt0NTd80c0vlZQvYa5y2CXXB7vbMgWVuc0XNmx3j9/qUvWPBLh+VpeKz9ZiK+hn2NOS2WEevVkFjpZUuJvTqXjxoW7EqiTdrZk/SVoWOgcm5d69e3d/vJAFrdRJSiG7zKfGUf/Lo8gyobNMiEW5XGvDHyeyanZ57ymKogXFjlQObt4/tbHx1+sX2/BE1j+pc3DeiPIvMrd0sbOVnNvetKdvv//8o/vHu+qiNT5lqLfvdLOoqRTRSi2O4k09LU3rCiq7T3PqKq/bEfedLo+aS5Gt1FxxT3dr039P5NhDOfFrvUflh6L7Jc0JnQXjtkuRXpI7r7Gg4lyVBQAAUBonrBw8OXb/utxPCZ0F4xLL7a259sxPC12h+j5JAQCKbv/o4ifjOH6H+HBYddz9X7rbGws++Uv8kAEgsRat8Skj/QNnufsFkr0idB5MjLtWdbc3njfe9RgBAIAkWerR/ObBl5n87OG+/ndL1sxnwWrm1x3X23h+9wTW5KcOALVujaeyfQOnufnfmdu7JR0XOhKK4qbR6Tv/bvM5x++dyMoUAACoQQs7ts+PlT/DpDMkvUZSdT41hUO5ee/ePW996KPHPT7RDVAAAKDKZZf5VIv6/yKO9Jem6DTJT5c0P3QulIZL1+en73zHRD/5H0ABAIAqcuJVvXNGzJ5rKT1XrueZ7BRJfyFpSuhsKD2TvvWsbZlz1y6d/LtCKAAAUCnWeOr4HduaUkPpJov82NjteDObJ8XzJJsv6SRJ9aFjIgw3v7T7vMZPFmtiqXEVgOeu6j12NJ96VWzxyeb2HLkybpQIAJiEqSY1Sd4kWZP4YIZncrkuyrU3XlHMjY75i/bKpZ5+6JjBd7p7i0kvL2QdAABQFDvc/Jzu1qZri73hw57MF3YMvMmlL0meLfaOAQDAYd3pnj+7u31WSV6Ad/ACsMZT2b7+z0j2iVLsFAAAHI59e09q73mPtMzZU7I9PP0b864YrE9Pjb8v6XWl2ikAADioPebe3tXe9M1S7yj15C9OXeV1I9Hj12nfxBEAAKB8bk8pfuPG9uafl2NnT3kXwI78QIekV5VjxwAAQJL0mJl/quvRxuVaanG5dvrEJYCFHf3nuPT1cu0YAADo6sj8oo2tTQ+Xe8cmSc/u2N4wRfkuSY3lDgAAQALdFcd+Uc/5TWUZ7j+YtCRNsfwSOSd/AABK7AGXPtPdlPmaFls+ZBB75VJPPzhr4AGTjg0ZBACA2mU5d790anPmW+sX23DoNJKUfnj2wKss5uQPAEAJ3OlmX+hubPhB6E/8T5eOY/0tc/sCAFA0eyX/obt1drc33h46zKGkTTo1dAgAAGrA7831XUvX/cfGlqP7QocZS1rSwtAhAACoUnea6UdxnP9eqebsL5W0eLc0AACF2iWzX7j7DTaqG3JLGh8KHWii0pKmhg4BAEBFcj1q0u1u+lUcxb9+9tamO9cutdHQsYohLals0w4CAFCh+uXaJPP7zaN7XH5nXTq+576W5i1PXqgnVLoSSEuqqMcSAAAoUCxp8yH+bFTSLkmSabdcuyXvd7P+yL3PLep3j7ekotSmeDjelFvSuLNcoSsFIwAAgCrlN+Tams4KnaJaRaIAAACqkClaGTpDNYvEJQAAQPV5oKup4abQIaoZIwAAgCrkqyptat1qE8kZAQAAVJWRVN6/GTpEtYvcGAEAAFQR17UbLmh+JHSMaheZMQIAAKgerpib/4ogkjMCAACoEq77u9ua1oaOUQsiSUOhQwAAUBDTKpl56Bi1IJKUuNmPAABV6fGpU9KrQ4eoFZFkFAAAQDX4/r3nzhwIHaJWRDJGAAAAlS927wydoZZEcgoAAKDi3dbT3nRH6BC1hHsAAADV4MrQAWoNBQAAUOkemLstc23oELWGewAAABXNZMvXLrXR0DlqTaSYAgAAqFh7pkxJfS10iFrECAAAoILZN3j0rzQiKU8BAABUIo9S8fLQIWpVFHuKZgUAqDjmunFjS9P9oXPUqihKR1tChwAA4BlS+lLoCLUs2rt7F+9UBgBUmnu7WjK3hA5Ry6KHPnrc45K2hw4CAMAB7rqSt/6VVrT/n4wCAAAqg+vRoaE93wkdo9ZFkuQUAABAhTCzL+4fnUYJRZJkMm4EBABUgh35lL4cOkQS7L8EEDMCAACoBFf2tGR2hA6RBPtGAJwRAABAcLs1OoWJf8pk3z0Axj0AAIDgVuWWHNUbOkRSRJIUMwIAAAjKhyLzy0OnSJJ99wCk9UDgHACAJDNbvbG16eHQMZIkkqSeLQ0PSeKRCwBACPnY8peFDpE0+0YAllosqTtsFABAMvnVPefN6gqdImkOzAQoc/GXDwAoN4/z0edDh0iiJwqAm28MGQQAkET2054LMveETpFETxQAuTECAAAoJ5fZ0tAhkuqJAhCZMQIAACinNbnWhj+GDpFUTxSAYR9lBAAAUC55c78kdIgke6IAbG6ftVUS8y8DAMrhm13tTfeFDpFk0dO+zgVJAQBIkuFUPvWZ0CGS7ikFwE3cBwAAKLWODRfUbwodIumeUgAi9/WhggAAEuExt5HPhQ6BZ1wCiLgbEwBQMi59qbt19rbQOfD0EYB8ngIAACiV7SNK8ca/CvGUArDhguZHJG0NlAUAUMvMvvBAW/1g6BjY5+lPAUgSowAAgKJyacuMx4avCp0Df3aQAmAUAABAUZn8M3d/fPbu0DnwZ88sAO4UAABA8bjun5lq/HLoGHiqZxaAdIoCAAAomjhlF61rsZHQOfBU9ozvuFu2c6BfUkP54wAAaswvcm2NrwkdAs/0zBEAM5fsrgBZAAC1JR/n7SOhQ+DgDvYUgGTcBwAAmCz/cs8FmXtCp8DBHbQAeKzflTsIAKCm7HAbXRo6BA7toAVgSjr+VbmDAABqh5n/C1P+VraDFoD7Wpq3SMargQEAE3Hv0VFjZ+gQOLyD3wMgSe6MAgAAxstl8fk89lf5DlkATH5rOYMAAGqBfSfX2rw2dAqM7dAjAJZmBAAAMB67Uvn8J0OHQGEOWQC62up7ZHqonGEAAFXtX/a/VRZV4NAjAJJc4jIAAKAQd83dllkeOgQKd9gCYDIKAABgLHlX/IG1S200dBAU7rAFQHmeBAAAHJ5JV3S3Na8LnQPjc9gCkGvPrJfUV6YsAIAq49Lm6btHmPGvCh1+BMDMJb+5TFkAAFUmMrvg7o/P3h06B8bv8AVAkiy6oQw5AABVx7/b1Zq5LnQKTMyYBWBqXepGSfkyZAEAVA3v1ehUXvVbxcYsAPeeO3NArt+XIwwAoDqY67zckqN6Q+fAxI19CUCSRbqx1EEAANXCv9PV3vSj0CkwOQUVAM/H15c6CACg8rm0ZeqUug+HzoHJK6gA5Nqb/iiJ6R0BIOnM2+89d+ZA6BiYvIIKgMxcrptKnAUAUNFsdXdr07WhU6A4CisAkiwSjwMCQHJt0qhfEDoEiqfgAuAj+pmk4RJmAQBUpliKzsktadwZOgiKp+ACkFvSuNMl3g0AAEnj+nSureG/QsdAcRVcACTJpKtLFQQAUHlMumNmOvOZ0DlQfOMqAMNKXSMuAwBAUjyWj/LvWddiI6GDoPjGVQAeaKsfNNctpQoDAKgk1tpz3qyu0ClQGuMqAJIUy7kMAAC176u5tsx3QodA6Yy7AFjefixpbwmyAAAqw5/2pIaY7a/GjbsA7HsMxJgUCABq02PmvviRljl7QgdBaY27AEiSG08DAEBtstau9qb7QqdA6U2oADwe7f2JpN1FzgIACMjlK7nunxwTKgCPtMzZIxdvCASAWuH6Q376rgtDx0D5TKgASJLxNAAA1IptLr1t8znHc4N3gky4ANQ1N14naVsRswAAym9EihZ3tzc+GDoIymvCBWD9Yht26VvFDAMAKDO3jzDPfzJNuABIkqVSqyR5kbIAAMrKVufaMx2hUyCMSRWAXEt9t2RrixUGAFA2v9Vow4dCh0A4kyoAkuSmLxcjCACgbB6sS8Vvyy2xodBBEM6kC4CNNFwrbgYEgGqxKy87876W5i2hgyCsSReA/Q1yZRGyAABKKy+392xqy9wdOgjCm3QBkCS3kRXiBUEAUNHc/CO59sxPQ+dAZShKAehunb1NsjXF2BYAoPjcdGV3a9Py0DlQOYpSACRJcf7Kom0LAFBEfl13Y+ai0ClQWYpWAHLnN/+3TL8q1vYAAEVx257U8Du12PKhg6CyFG8EQJK5XVrM7QEAJuVPU6ek3/xIy5w9oYOg8lixN5jtHFgn91OKvV0AwLj01KXil/O4Hw6lqCMA+/gXir9NAMA4bIvj+A2c/HE4RS8AuUczP3RpQ7G3CwAoyA5Z9Pqe85s3hg6Cylb8EYClFpuJewEAoPwej2Rn5Vob/hg6CCpfCS4BSDOjzLcl7y7FtgEAB+NDLnv7xrbMraGToDqUpACsa7ERmS4pxbYBAM8wLPni7rbMjaGDoHqUpABIUu7Rxv+QdFeptg8AkCQNS/HZubbmn4QOgupSsgKgpRa7OaMAAFA6nPwxYUWfB+Dpsh39v5H0klLvBwAShpM/JqV0IwAHWHxxyfcBAIniQyZ7Gyd/TEbJC0CutXmtua4t9X4AIBl8yBS9vastc33oJKhupR8BkCRLfUzyobLsCwBq1265vZmTP4qhLAWgq62+x2XLyrEvAKhRA4r0t7n2xptDB0FtKM8IgKT01PjTkraWa3+Rs2NyAAAKaklEQVQAUCtc2hLn7ZW58xp/EzoLakfZCsCGDzTvMumfy7U/AKgJrvs9ZS/puSBzT+goqC0lfwzwKdwt2zlwi6RXl3W/AFCd1ml0yhtyS47qDR0EtadsIwCSJDM39/MlDZd1vwBQdeyXqanxqzj5o1TKWwAkdbU33Wdml5V7vwBQRa4enb7jjRs+0LwrdBDUrvJeAthv7uUPTp82bcZdkhaG2D8AVCiXtDTXmvm0zDx0GNS2IAVAkrIr+1+qWLdKSoXKAACVw4ek6NxcW+Y7oZMgGcp+CeCA3HmNvzHpilD7B4AK0m9x6rWc/FFOwQqAJPlo5n9L+lPIDAAQluXiOH5Z1/kNvwqdBMkStADklthQHMXnSBoNmQMAQnDpltEhO63n/OaNobMgeYIWAEnqOa/5Dya/JHQOACgjN+nfj9uWecPmCxu2hw6DZAp2E+BTLPVowayB/zTpjNBRAKDEHpP0/lxb4w9CB0GyVUYBkHT8Vx49JjWSvlPS7NBZAKBENrrZ27tbM9z7hOCCXwI4YNMHj3lUpn+SFIfOAgDF5z8dHYr+ipM/KkXFjAAckO0Y+IzkvDQIQK3IS/apXGvDpUzug0pSMSMAB+S2Nfwfc90QOgcATJZLW9z8tbm2zBc4+aPSVFwB0FKLo2nxuyStDx0FACbh5rznT+lubfpF6CDAwVTcJYADTuzoPTGv6HeSZobOAgCF8yFz+0RXW2YZn/pRySq2AEhSdsXAWTK/VrwvAEB1uC+KondvPK/hrtBBgLFU3iWAJ8m1Z35qZu2hcwDA2OzbM3aPnMbJH9WiokcADljY0X+ZSx8LnQMADqLfTC1drY3XhA4CjEdVFAC5W7azf7Vk7w0dBQD+zK9L5b1lwwXNj4ROAoxXdRQASfO+sWla+vGjr5f06tBZACRen7vO725vvDp0EGCiqqYASNKcVY/MmBFPvVGuvwmdBUBS8akftaGqCoAkZZf1H21p3eLSaaGzAEgS73XXx7rbm1aHTgIUQ9UVAEk6afnOxtHUyC/lekHoLABqn0nf99EpS3JLjuoNnQUolqosAJL0vK/uyAwNj94o6S9DZwFQqyzn7hd0tzfeFDoJUGwVPQ/A4dx77syB0aHodZJuD50FQM15XK5LRqfveAEnf9Sqqh0BOOCFl209YvcRdT826YzQWQBUPzP9PPK4fUNb84bQWYBSqvoCIElzL39w+rRp06+W7KzQWQBUrQdc/uHutqYfhw4ClENNFABJ0hpPZfsGr5ScqYMBjMdud11+xJ6RL9z98dm7Q4cByqV2CsB+C1f0f9hNl6uK728AUBajJn09nYqX3tfSvCV0GKDcaq4ASNLCzv63u2u1pBmhswCoOC7pRynFn+I6P5KsJguAJJ2wcvDkOM5fI9mC0FkAVAjXbyKzT2xsy9waOgoQWs0WAGnfrIGqs9Vyf0voLACCuk/S/821Nf4gdBCgUtR0AZAkLfVowayBS0z6lJJwvACerMekf+tqyqzWYsuHDgNUksScEBd09r3a3FZLelboLABKrselLxy3LfP1tUttNHQYoBIlpgBI0rwrBuvTU+OVkt4ZOguAkrjX3S89rrfxu5z4gcNLVAE4YGHnQIu7f1HSEaGzACiKO830b12PZq7VUotDhwGqQSILgCSd1Dk4b9TjVZJeGzoLgAm7U9Jnc62ZH8rMQ4cBqkliC4Akyd0WdvT/o5t9UVImdBwABXFJN8t1ea698ebQYYBqlewCsN+8FdtmpxX9u8z+XvydAJVqj8tXR65lXe1N94UOA1Q7TnZPMn9l74ujOPqSpNNDZwGwj0tbzPXltNdddf/5R/eHzgPUCgrA07lbtnPgHZIuk/Sc0HGABFvn7svq043fW9diI6HDALWGAnAIL7xs6xF7jkh/WLKPSmoMnQdIBh+SdE1kunJja9PvQ6cBahkFYAyLVmw7ctjS7ZL/L3GjIFAq90n2LY3WfT235Kje0GGAJKAAFCi7rP9opfURSR+R1BA6D1ADdrj8e+76ek970x2hwwBJQwEYp0Urth05ZKm/N9eFMp0UOg9Qhda59OUjdo/8x90fn707dBggqSgAE7XUo4XN/W+V2YUuvTx0HKDC/Y/cvxe7f6Pn/OaNocMAoAAUxfwVfadZZG3mWixpRug8QIV42E0/NNPVuZbMb5mpD6gsFIAiyi7rP9rTepdJ/yDmEkAy9Ut2g1w/mNvbcCMv5AEqFwWgRLLLe09RZOdK9k7x9ABqW79MP4rzfnXPrMa1Wmz50IEAjI0CUGKL1viUkf7B13ocv0tmb5F0ZOhMQBFslHSdm19fHzXeykQ9QPWhAJTRnFWPzJgRTz1Tbu+W/PWSpoXOBBRoWK7/Mun6WPnru9tn5UIHAjA5FIBA5l7+4PRpU484w8zPjKWzTDo2dCbgqbxXim6S/Kdxym7uacnsCJ0IQPFQACrBGk/N7x18qUXxWRbbm5lfAIFsl/xWydYqjtfm2pv+yJ37QO2iAFSgeSu2zU5b6q9NOsNNb5RrbuhMqEm7XPqdyW6JXbc1pBt+x7V8IDkoAJXO3Y7vHHxBSn6GS6+2fY8X1oeOhaq0TbLbzX2tFP1XV2/93VpqcehQAMKgAFShhR3b58c++vLI7PT9sxAuCp0JFWenpHvctU7ydea2LteeWc+QPoADKAA14ITOvmfFbi9z8xdHslPddYp4YVGSPObSH026w9z+kE+N/qGnpTnHyR7A4VAAatTCju3zXflTJT9VbqdIeqFMx4TOhUkZkbRRrnvN/J7YdK/i+J7u3uYehvIBjBcFIEFOWr6zcTTKP1/mi6T4+fJokeTPl9QUOhueYqekLjdtNGmDyzbErvXTmxruX7/YhkOHA1AbKABQdtmuZk0Zzso9K7es3BfILCtpgSgHJeK9Jtvs0maXNsvVZRZtrEuNbryvpXlL6HQAah8FAIc174rB+vQ0Ha/Y53oUP8dcc+Wa62bPlnScSXMkTQmds8LslutBmW2R4ofd9IikByNFmz3vm2Y8PrL57o/P3h06JIBkowBgctzt+K9umxWN1jUrzjdHSs1WFDfHbs0mzZZsluRNkmZq3+OLM1V970PY49IOM/XJrU/uvYq8T259Lu+LFPXHFm+NYm2JpvlDGz7QvCt0YAAYCwUA5bfGUydt21Wfj+KZsUYaPLb6VBRNc/kMl8+QbKpMR5lbWh7Xu1kq2lccnuAmk48xH4LLzbT9wJexy818/9fRoCSZaXvs7nLtiCLbrbztlGmnzHYOSYPzt83cxSttAQAAAAAAAAAAAAAAAAAAAAAAAAAAAAAAAAAAAAAAAAAAAAAAAAAAAAAAAAAAAAAAAAAAAAAAAAAAAAAAAAAAAAAAAAAAAAAAAAAAAAAAAAAAAAAAAAAAAAAAAAAAAAAAAAAAAAAAAAAAAAAAAAAAAAAAAAAAAAAAAAAAAAAAAAAAAAAAAAAAAAAAAAAAAAAAAAAAAAAAAAAAAAAAAAAAAAAAAAAAAAAAAAAAAAAAAAAAAAAAAAAAAAAAAAAAAAAAAAAAAAAAAAAAAAAAAAAAAAAAAAAAAABANfj/HdmwPlCvLWYAAAAASUVORK5CYII=;" parent="1" vertex="1">
          <mxGeometry x="727" y="-901" width="56" height="56" as="geometry" />
        </mxCell>
        <mxCell id="ORMudLoAq7WYr6hYme3h-22" value="" style="shape=image;verticalLabelPosition=bottom;labelBackgroundColor=default;verticalAlign=top;aspect=fixed;imageAspect=0;image=data:image/png,iVBORw0KGgoAAAANSUhEUgAAAgAAAAIACAYAAAD0eNT6AAAAAXNSR0IArs4c6QAAIABJREFUeJzt3XmAXGWd7vHnd6o6G0u6q7tDiEFDUgGMCyPIjIozbowrqKMSddSZQdGmuyGK6FXGe+eGcdxgBAlJd+JudFSiiFfZBlEzIrhgRhYJJF3dybAlpLcsJKSXOr/7RxJkSdLV3VX1VtX5fv6B7pzlOemG89R7znmPBAAAAAAAAAAAAAAAAAAAAAAAAAAAAAAAAAAAAAAAAAAAAAAAAAAAAAAAAAAAAAAAAAAAAAAAAAAAAAAAAAAAAAAAAAAAAAAAAAAAAAAAAAAAAAAAAAAAAAAAAAAAAAAAAAAAAAAAAAAAAAAAAAAAAAAAAAAAAAAAAAAAAAAAAAAAAAAAAAAAAAAAAAAAAAAAAAAAAAAAAAAAAAAAAAAAAAAAAAAAAAAAAAAAAAAAAAAAAAAAAAAAAAAAAAAAAAAAAAAAAAAAAAAAAAAAAAAAAAAAAAAAAKDWWOgAAA4vu7z3FItS/+Ty2aGzTIzl4pRW9rRkHgidBMCfUQCACrags+98c7tCUjp0lknaIdfiXHvjzaGDANiHAgBUqBNWDp4cx/EdkupCZymSrcNKLXqgrX4wdBAAUhQ6AICD8zh+r2rn5C9Js6dY/MbQIQDsQwEAKlT1XvM/NHPNCZ0BwD4UAKBSeQ1eoqvFYwKqFAUAAIAEogAAAJBAFAAAABKIAgAAQAJRAAAASCAKAAAACUQBAAAggSgAAAAkEAUAAIAEogAAAJBAFAAAABKIAgAAQAJRAAAASCAKAAAACUQBAAAggSgAAAAkEAUAAIAEogAAAJBAFAAAABKIAgAAQAJRAAAASCAKAAAACUQBAAAggSgAAAAkEAUAAIAEogAAAJBAFAAAABKIAgAAQAJRAAAASCAKAAAACUQBAAAggSgAAAAkEAUAAIAEogAAAJBAFAAAABKIAgAAQAJRAAAASCAKAAAACUQBACqVRXHoCMXm5qOhMwDYhwIAVCh33xw6Q/HFudAJAOxDAQAqVn615EOhUxSLSXdPaWq6KXQOAPtQAIAK1d0+K2dm75H0WOgsk2a6J1K8eP1iGw4dBcA+FjoAgMPLLtvVbKmhN7lFx4TOMl7mcinOeb7x+twSq5nRDAAAAAAAAAAAAAAAAAAAAAAAAAAAAAAAAAAAAGBSmAmwisxfNfDsVN4vcPlJLpsWOs94mDQq6SE3+2Z3a+a28a4/7xubpqX2Ht1urpe6NLMEEUvL1KvYb+pua/y2zHw8qy5c3vdXiuz9Lh3nUl2pIpaCyffKrCs1mrpqwwX1m0LnAfBnFIAqMX9532uiyK5RNZ78niqW/H/n2po+V+gKCzq3zjKv+6WkRSXMVS43z0xlzlzXYiOFLJxd0X+hTJdJSpU4V6k9Fkf2zp7zMjeEDgJgH14GVAWyy/qPjiJbreo/+UtSJNm/ZVf2v7TQFUx1K1QbJ39Jeu2O/MDFhSyY7Rx8kUyXqvpP/pJ0ZBTH33zeV3dkQgcBsA8FoApYnf5W0pzQOYooUuzvK2TBE7/We5Rcf1fqQGX2jwUtFcfvkZQubZRysuah4fwbQ6cAsA8FoAp4bFX3FrixRccWslQ8VNes2vgE/GQFHbvks0sbo/ys4GMHUGoUgGpgcWLv1fBUTd6nUovHVBhP8LEDFYYCAABAAlEAAABIIAoAAAAJRAEAACCBKAAAACQQBQAAgASiAAAAkEA1NMsYAKBcFqzo/1czS0/x0c+ub5/1WOg8GD9GAAAA47Kgc+B0M/2z5BcPWWrjgo7+D2mpcz6pMvzAAAAFe+FlW48w1ze1f4puk441aVW2eeB3CzoHTg8cD+NAAQAAFGzPjLplkmef8QemF5v7rdmO/jXzVw08O0A0jBMFAABQkOyKgbNkev9hFjFJZ0d5v3fBiv6PvXKpc59ZBaMAAADGlF22q1nyrxS4+JFmuuyhWQN/OL5j4IUlDYYJowAAAMZWN9wh03hfTX5ySvHvsx0Dn+AmwcrDDwQAcFjZzv7Fcr1jYmvbVMk/v/CYgZtP6Ox7VnGTYTIoAACAQ8ou6z9arismux13vSZ2/XHBit5XFSMXJo8CAAA4JE/p05LmFGdr1mwW/SzbMfAJuVtxtomJogAAAA5q4YrBvzBTe5E3m5L889nOwW8tWuNTirxtjAMFAABwULHFl2n/hD/F5+8b7hv45b6nCxACBQAA8AwLOwfONOmMEu/mZUoP//qkzsF5Jd4PDoICAAB4qjWecvfPl2lvJ4x4fPv8qwZeUKb9YT8KAADgKRb0Drxf0vPKtT+Tjo1S8c+zy3tPKdc+QQEAADzJojU+xUyfKv+erVlR9Iv5K/pOK/++k4kCAAB4wnD/4AckPSfQ7mdGZjcv6Og9NdD+E4UCAACQJGWX+VS5Xxw4Rr3Jbsyu7F8UOEfNowAAAPZJDbxX0nGhY0jW7LFu4emA0qIAAAAkd5Ppo6FjHGDSsaMe3/Dsju0NobPUKgoAAEALVw6+SVKlDbs/d4rlf5xd5lNDB6lFFAAAgNz9wtAZDsr1N0r3f5V3BxQfBQAAEu6EVX0nSargt/TZexd0DFwUOkWtoQAAQMLlYztPUkV/wjbT57Idg68InaOWUAAAIMHmXv7gdHO9L3SOAqTl8dUnXtVbpFcTgwIAAAk2bfr0d0jKhM5RENMx+ZR995VLPR06Si2gAABAgrnbP4TOMD72ioePGQg9WVFNoAAAQEI9d1XvsVbRN/8dnLv+hemCJ48CAAAJNTIavUtSKnSOCUiboq8tWuNTQgepZhQAAEgq07tCR5iEk4f7BgK8tbB2UAAAIIFO6Ox7lqRqf/Xuxcd3DLwwdIhqRQGoAqYoHzpD8XlBx5SOC1uuyhR2TBbFJc5Rdm4+GjoD9onj6C2q8Gf/C1CXkr4UOkS1ogBUhTgXOkHRuXcVstjoSP0WSXtKnKbcCjp2mXeXOEf5xTV4TNXK/M2hIxSHv2rhir63hU5RjSgAVaCrqfGXkn4bOkcR7XBZRyEL5pbYkGRXljpQWZk+V8hiqdH4K5IGS5ymfEz3TJnVeGPoGJAWrdh2pOSvDJ2jWNzssnnf2DQtdI5qQwGoBostn7bo3ZJ+HzpKEWy1SGd3tzc+WPAaow2XSLa6hJnKZUTyT+VaG9cUsvCGC5ofiWM/26UtpQ5WcqZ7osgXr19sw6GjQBqy9F9LVktv2Juf3jvzI6FDVJtqv/6TKK9c6umHZw2+zuUnSlYXOs94mMtlemhkyG7YfGHD9olsY/6KvtPM9BJTNKPY+UrNTNs9im7JtdSPewh83hWD9XVT/A2SjnOrrv9m3XzU8p6bMqvxRk7+lWNhR/9lLn0sdI4i25WO646///yj+0MHqRZV9T8TAMDkZTv6/luyF4XOUXSuS3LtjUtDx6gWFAAASJBnd2xvmKJ8n2rzEvBgamr8nA0faN4VOkg1qMVfAADAIdQpfolq9//9DfHeVGvoENWiVn8JAAAHYeZ/GTpDKbn8o3Mvf3B66BzVgAIAAAlisWq6AMh0zLSpR5wTOkY1oAAAQIK46cWhM5Sc+YdCR6gGFAAASIgFnVtnSZoVOkcZnJxd3ntK6BCVjgIAAEkRp54XOkLZWIrLAGOgAABAQpjZotAZysb8vdwMeHjp0AEmYmFn/9vd/R8lmxM6ywSMyj0XpVKXbTyv4a7xrJjtHHyRPP8xyRaoKn92vkWy1bm2xh+Md81nd2xvmKr8P7v0UklVOOe37ZLin41O33X55nOO3zueNRd2DLzJpXMlP65U6Uoo76Zut/jynvOa/zDelRd2Dpzp0rlyn1uKcCWWd1O3PP5id1vzutBhJMndTrDkzP5SP3X6EW+R9P3QQSpV1f0qZFcMXCXz80PnKIJhud6Ta2/8YSELL1jR/04zfVtSVU0BfFDmHbnWpvZCFz9++eBzUlF8m6RnlTBVWZh0d53nT1/fPuuxQpbPdgx8VvKLS52rDEZdfm53W9O3Cl0hu6LvczL7ZClDlcmozN+fa236dugg2Y6B/yfVylsAx+bS9d1tjWeGzlGpquoSwIIV/a+vkZO/JE2RadXzvrojM9aCJ6za2WSmTtXCyV+S3Nqynf2vK3TxVBSvUg2c/CXJpRcOR6l/LWTZ+SsGXi55LZwAJSltsuUnXtVb0KjdCR0Dfy2zT5Q6VJmk5bbiuat6jw0dRPLnhE5QTia9es6qR6ru3SHlUlUFwEyLQ2cosszQ0Oirx1ooH4+eIamhDHnKx/WOQhabd8VgvaTXljhNuZ1dyEImP1tVOEp3GEfGqaig4uf7/o5q6diPGs5bJfweJ6oASJo+fXTq34QOUamqqgBI1hg6QbGZWdOYy8Qac5Sg+ox93JKUnmGNqq0TgeQq6NhNXnO/74X+3F1x7R17Af+tl9L+G+LqQ2YIITJ7Y+gMlarKCkDtKej1rhbX1gkQyeU1VubGIw577NPSM2qvVBXA5W8KnaFSUQAAIAHyaavBkcSCzJ+/ctvC0CEqEQUAABIgJaut+4jGweLo9aEzVCIKAAAkQBz5EaEzBGP20tARKhEFAAASwDyeGjpDKOb6q9AZKhEFAAASIUpsAZA0P7tsV3PoEJWGAgAACWCKa2MisQmy9NDJoTNUmiqcTx4AMF4WR6NuHjpGOG7Pk3TLof547uUPTp8yY+rcKK6bI/O5rrghkjW41OBSg7nVu/xISTJphqSDjKjYTpfnJQ2ZbMDdBy3SgMkHXbbVYz2Uivx/NjY2btViy5foSAtGAQCARIiHam1OrfFw0/Ozy3Y1x6mREyP5iR75CebRCTJfINccSY2KJSmWXDKZDtSlfX9rhUxi8eRlXGaS/M/fNZNiN2X7BkbV0f+Aue6Xab277o/ld09rbrxr/WIbLuqBHwYFAACSIIqG5QkeAZDOVXr43APXvc2fODuHkJY0303zJb1RJkUyDfcNDC/s6L/Lze9wRbfG6ZFfbvrgMY+WMgQAoMbFivcUMvEogpri0mlyO83kbamRtLId/evlulEpXZNryfxWVrzrOBQAAEiAlKX6Y49Dx8D4LZJpkWJdlF058JB19N/gbtfN7W24ce1SG53MhnkKAAASIB6O+0NnwCS55rr0IZn/5MFZAw9kOwY+u2BF/3ET3RwFAAASYO/oHgpADTHpWMkvNlNPtrP/B9mOwVeMdxsUAABIgIc+etzjkgZC50DRpeV6hxSvzXb0/2HBiv6C33tAAQCA5NgUOgBK6lQz3Zjt6FubXdk/5vsPKAAAkBAu/U/oDCgHe4Vi3ZbtGFh9wqqdTYdaigIAAMnRHToAysYkf1+cH7l3YefAmQdbgAIAAEnh/qfQEVB2s9z9J9kV/f9+6ip/yvsgKAAAkBAWpe4JnQFBmEwX7cwP3HZS5+C8A9+kAABAUozUr5c0qcljUL1cOm3U4zsWdAy8QaIAAEBi5JbYkOSMAiRbk8mvW9DR/2kKAAAkiUe3hY6A4CKTzqAAAECCeCQKACTXGgoAACRISvGtoTMgOHfphxQAAEiQja1ND0viccBku727vfFBCgAAJIxLN4bOgHDMfI3EUwAAkDhm8Q2hMyCY2KRrJAoAACROrrHpVrkeDZ0DQdy8/zIQBQAAEmex5RX5NaFjoPziyK468O8UAABIoDiOvhc6A8rNu3u2Ntx04CsKAAAkUE9vw+2SNoXOgfJx05e01OIDX1MAACCJllos+VdDx0DZbB16/PGvPfkbFAAASKhRj78uaSR0DpSB69KHPnrc40/+FgUAABJqc/usrZJ+HDoHSu7hPemhVU//JgUAABIsdr8sdAaUlss/9UjLnD1P/z4FAAASrKe96Q7Jfhk6B0rmzu5tjd8+2B9QAAAg6cy/EDoCSiKO3S548p3/T0YBAICEy7U2/qfEa4Jrjbu+0tOe+fWh/ryqCoDLR0NnKDr3Me/AdVnt3aVrhf0s8yM1+DMv8K5rM6u5Y3eN/fu+T1Rzxx5V+N32sdsnQ2dAUW0dsdTFh1ugqgqAye4PnaHY3LV+rGWiOKq541YBxy1Jmbr6RyTtLHGacivo2F2+odRByi4q7NiluPZ+51OFHnsYPe2ZX5uLlwTVBjezDz7QVj94uIWqqgBotO5LNfUCC9fPutsyvxlrsa72+ltVU6/v9F63kRWFLLmuxUbM7TOlTlRG7rJLCllwdCjVKdNDpQ5URrflGjO3FLJgnIo6JD1Y4jxlY9Kvu7Zmfh46x1jiyD4hqeZGX5LHOrpaM9eNtVRVFYDckqN6zf0tkuVCZ5k8/2mUrvt7mfmYi5q528g/1Ug73xi73tTdOntboSt0NTd80c0vlZQvYa5y2CXXB7vbMgWVuc0XNmx3j9/qUvWPBLh+VpeKz9ZiK+hn2NOS2WEevVkFjpZUuJvTqXjxoW7EqiTdrZk/SVoWOgcm5d69e3d/vJAFrdRJSiG7zKfGUf/Lo8gyobNMiEW5XGvDHyeyanZ57ymKogXFjlQObt4/tbHx1+sX2/BE1j+pc3DeiPIvMrd0sbOVnNvetKdvv//8o/vHu+qiNT5lqLfvdLOoqRTRSi2O4k09LU3rCiq7T3PqKq/bEfedLo+aS5Gt1FxxT3dr039P5NhDOfFrvUflh6L7Jc0JnQXjtkuRXpI7r7Gg4lyVBQAAUBonrBw8OXb/utxPCZ0F4xLL7a259sxPC12h+j5JAQCKbv/o4ifjOH6H+HBYddz9X7rbGws++Uv8kAEgsRat8Skj/QNnufsFkr0idB5MjLtWdbc3njfe9RgBAIAkWerR/ObBl5n87OG+/ndL1sxnwWrm1x3X23h+9wTW5KcOALVujaeyfQOnufnfmdu7JR0XOhKK4qbR6Tv/bvM5x++dyMoUAACoQQs7ts+PlT/DpDMkvUZSdT41hUO5ee/ePW996KPHPT7RDVAAAKDKZZf5VIv6/yKO9Jem6DTJT5c0P3QulIZL1+en73zHRD/5H0ABAIAqcuJVvXNGzJ5rKT1XrueZ7BRJfyFpSuhsKD2TvvWsbZlz1y6d/LtCKAAAUCnWeOr4HduaUkPpJov82NjteDObJ8XzJJsv6SRJ9aFjIgw3v7T7vMZPFmtiqXEVgOeu6j12NJ96VWzxyeb2HLkybpQIAJiEqSY1Sd4kWZP4YIZncrkuyrU3XlHMjY75i/bKpZ5+6JjBd7p7i0kvL2QdAABQFDvc/Jzu1qZri73hw57MF3YMvMmlL0meLfaOAQDAYd3pnj+7u31WSV6Ad/ACsMZT2b7+z0j2iVLsFAAAHI59e09q73mPtMzZU7I9PP0b864YrE9Pjb8v6XWl2ikAADioPebe3tXe9M1S7yj15C9OXeV1I9Hj12nfxBEAAKB8bk8pfuPG9uafl2NnT3kXwI78QIekV5VjxwAAQJL0mJl/quvRxuVaanG5dvrEJYCFHf3nuPT1cu0YAADo6sj8oo2tTQ+Xe8cmSc/u2N4wRfkuSY3lDgAAQALdFcd+Uc/5TWUZ7j+YtCRNsfwSOSd/AABK7AGXPtPdlPmaFls+ZBB75VJPPzhr4AGTjg0ZBACA2mU5d790anPmW+sX23DoNJKUfnj2wKss5uQPAEAJ3OlmX+hubPhB6E/8T5eOY/0tc/sCAFA0eyX/obt1drc33h46zKGkTTo1dAgAAGrA7831XUvX/cfGlqP7QocZS1rSwtAhAACoUnea6UdxnP9eqebsL5W0eLc0AACF2iWzX7j7DTaqG3JLGh8KHWii0pKmhg4BAEBFcj1q0u1u+lUcxb9+9tamO9cutdHQsYohLals0w4CAFCh+uXaJPP7zaN7XH5nXTq+576W5i1PXqgnVLoSSEuqqMcSAAAoUCxp8yH+bFTSLkmSabdcuyXvd7P+yL3PLep3j7ekotSmeDjelFvSuLNcoSsFIwAAgCrlN+Tams4KnaJaRaIAAACqkClaGTpDNYvEJQAAQPV5oKup4abQIaoZIwAAgCrkqyptat1qE8kZAQAAVJWRVN6/GTpEtYvcGAEAAFQR17UbLmh+JHSMaheZMQIAAKgerpib/4ogkjMCAACoEq77u9ua1oaOUQsiSUOhQwAAUBDTKpl56Bi1IJKUuNmPAABV6fGpU9KrQ4eoFZFkFAAAQDX4/r3nzhwIHaJWRDJGAAAAlS927wydoZZEcgoAAKDi3dbT3nRH6BC1hHsAAADV4MrQAWoNBQAAUOkemLstc23oELWGewAAABXNZMvXLrXR0DlqTaSYAgAAqFh7pkxJfS10iFrECAAAoILZN3j0rzQiKU8BAABUIo9S8fLQIWpVFHuKZgUAqDjmunFjS9P9oXPUqihKR1tChwAA4BlS+lLoCLUs2rt7F+9UBgBUmnu7WjK3hA5Ry6KHPnrc45K2hw4CAMAB7rqSt/6VVrT/n4wCAAAqg+vRoaE93wkdo9ZFkuQUAABAhTCzL+4fnUYJRZJkMm4EBABUgh35lL4cOkQS7L8EEDMCAACoBFf2tGR2hA6RBPtGAJwRAABAcLs1OoWJf8pk3z0Axj0AAIDgVuWWHNUbOkRSRJIUMwIAAAjKhyLzy0OnSJJ99wCk9UDgHACAJDNbvbG16eHQMZIkkqSeLQ0PSeKRCwBACPnY8peFDpE0+0YAllosqTtsFABAMvnVPefN6gqdImkOzAQoc/GXDwAoN4/z0edDh0iiJwqAm28MGQQAkET2054LMveETpFETxQAuTECAAAoJ5fZ0tAhkuqJAhCZMQIAACinNbnWhj+GDpFUTxSAYR9lBAAAUC55c78kdIgke6IAbG6ftVUS8y8DAMrhm13tTfeFDpFk0dO+zgVJAQBIkuFUPvWZ0CGS7ikFwE3cBwAAKLWODRfUbwodIumeUgAi9/WhggAAEuExt5HPhQ6BZ1wCiLgbEwBQMi59qbt19rbQOfD0EYB8ngIAACiV7SNK8ca/CvGUArDhguZHJG0NlAUAUMvMvvBAW/1g6BjY5+lPAUgSowAAgKJyacuMx4avCp0Df3aQAmAUAABAUZn8M3d/fPbu0DnwZ88sAO4UAABA8bjun5lq/HLoGHiqZxaAdIoCAAAomjhlF61rsZHQOfBU9ozvuFu2c6BfUkP54wAAaswvcm2NrwkdAs/0zBEAM5fsrgBZAAC1JR/n7SOhQ+DgDvYUgGTcBwAAmCz/cs8FmXtCp8DBHbQAeKzflTsIAKCm7HAbXRo6BA7toAVgSjr+VbmDAABqh5n/C1P+VraDFoD7Wpq3SMargQEAE3Hv0VFjZ+gQOLyD3wMgSe6MAgAAxstl8fk89lf5DlkATH5rOYMAAGqBfSfX2rw2dAqM7dAjAJZmBAAAMB67Uvn8J0OHQGEOWQC62up7ZHqonGEAAFXtX/a/VRZV4NAjAJJc4jIAAKAQd83dllkeOgQKd9gCYDIKAABgLHlX/IG1S200dBAU7rAFQHmeBAAAHJ5JV3S3Na8LnQPjc9gCkGvPrJfUV6YsAIAq49Lm6btHmPGvCh1+BMDMJb+5TFkAAFUmMrvg7o/P3h06B8bv8AVAkiy6oQw5AABVx7/b1Zq5LnQKTMyYBWBqXepGSfkyZAEAVA3v1ehUXvVbxcYsAPeeO3NArt+XIwwAoDqY67zckqN6Q+fAxI19CUCSRbqx1EEAANXCv9PV3vSj0CkwOQUVAM/H15c6CACg8rm0ZeqUug+HzoHJK6gA5Nqb/iiJ6R0BIOnM2+89d+ZA6BiYvIIKgMxcrptKnAUAUNFsdXdr07WhU6A4CisAkiwSjwMCQHJt0qhfEDoEiqfgAuAj+pmk4RJmAQBUpliKzsktadwZOgiKp+ACkFvSuNMl3g0AAEnj+nSureG/QsdAcRVcACTJpKtLFQQAUHlMumNmOvOZ0DlQfOMqAMNKXSMuAwBAUjyWj/LvWddiI6GDoPjGVQAeaKsfNNctpQoDAKgk1tpz3qyu0ClQGuMqAJIUy7kMAAC176u5tsx3QodA6Yy7AFjefixpbwmyAAAqw5/2pIaY7a/GjbsA7HsMxJgUCABq02PmvviRljl7QgdBaY27AEiSG08DAEBtstau9qb7QqdA6U2oADwe7f2JpN1FzgIACMjlK7nunxwTKgCPtMzZIxdvCASAWuH6Q376rgtDx0D5TKgASJLxNAAA1IptLr1t8znHc4N3gky4ANQ1N14naVsRswAAym9EihZ3tzc+GDoIymvCBWD9Yht26VvFDAMAKDO3jzDPfzJNuABIkqVSqyR5kbIAAMrKVufaMx2hUyCMSRWAXEt9t2RrixUGAFA2v9Vow4dCh0A4kyoAkuSmLxcjCACgbB6sS8Vvyy2xodBBEM6kC4CNNFwrbgYEgGqxKy87876W5i2hgyCsSReA/Q1yZRGyAABKKy+392xqy9wdOgjCm3QBkCS3kRXiBUEAUNHc/CO59sxPQ+dAZShKAehunb1NsjXF2BYAoPjcdGV3a9Py0DlQOYpSACRJcf7Kom0LAFBEfl13Y+ai0ClQWYpWAHLnN/+3TL8q1vYAAEVx257U8Du12PKhg6CyFG8EQJK5XVrM7QEAJuVPU6ek3/xIy5w9oYOg8lixN5jtHFgn91OKvV0AwLj01KXil/O4Hw6lqCMA+/gXir9NAMA4bIvj+A2c/HE4RS8AuUczP3RpQ7G3CwAoyA5Z9Pqe85s3hg6Cylb8EYClFpuJewEAoPwej2Rn5Vob/hg6CCpfCS4BSDOjzLcl7y7FtgEAB+NDLnv7xrbMraGToDqUpACsa7ERmS4pxbYBAM8wLPni7rbMjaGDoHqUpABIUu7Rxv+QdFeptg8AkCQNS/HZubbmn4QOgupSsgKgpRa7OaMAAFA6nPwxYUWfB+Dpsh39v5H0klLvBwAShpM/JqV0IwAHWHxxyfcBAIniQyZ7Gyd/TEbJC0CutXmtua4t9X4AIBl8yBS9vastc33oJKhupR8BkCRLfUzyobLsCwBq1265vZmTP4qhLAWgq62+x2XLyrEvAKhRA4r0t7n2xptDB0FtKM8IgKT01PjTkraWa3+Rs2NyAAAKaklEQVQAUCtc2hLn7ZW58xp/EzoLakfZCsCGDzTvMumfy7U/AKgJrvs9ZS/puSBzT+goqC0lfwzwKdwt2zlwi6RXl3W/AFCd1ml0yhtyS47qDR0EtadsIwCSJDM39/MlDZd1vwBQdeyXqanxqzj5o1TKWwAkdbU33Wdml5V7vwBQRa4enb7jjRs+0LwrdBDUrvJeAthv7uUPTp82bcZdkhaG2D8AVCiXtDTXmvm0zDx0GNS2IAVAkrIr+1+qWLdKSoXKAACVw4ek6NxcW+Y7oZMgGcp+CeCA3HmNvzHpilD7B4AK0m9x6rWc/FFOwQqAJPlo5n9L+lPIDAAQluXiOH5Z1/kNvwqdBMkStADklthQHMXnSBoNmQMAQnDpltEhO63n/OaNobMgeYIWAEnqOa/5Dya/JHQOACgjN+nfj9uWecPmCxu2hw6DZAp2E+BTLPVowayB/zTpjNBRAKDEHpP0/lxb4w9CB0GyVUYBkHT8Vx49JjWSvlPS7NBZAKBENrrZ27tbM9z7hOCCXwI4YNMHj3lUpn+SFIfOAgDF5z8dHYr+ipM/KkXFjAAckO0Y+IzkvDQIQK3IS/apXGvDpUzug0pSMSMAB+S2Nfwfc90QOgcATJZLW9z8tbm2zBc4+aPSVFwB0FKLo2nxuyStDx0FACbh5rznT+lubfpF6CDAwVTcJYADTuzoPTGv6HeSZobOAgCF8yFz+0RXW2YZn/pRySq2AEhSdsXAWTK/VrwvAEB1uC+KondvPK/hrtBBgLFU3iWAJ8m1Z35qZu2hcwDA2OzbM3aPnMbJH9WiokcADljY0X+ZSx8LnQMADqLfTC1drY3XhA4CjEdVFAC5W7azf7Vk7w0dBQD+zK9L5b1lwwXNj4ROAoxXdRQASfO+sWla+vGjr5f06tBZACRen7vO725vvDp0EGCiqqYASNKcVY/MmBFPvVGuvwmdBUBS8akftaGqCoAkZZf1H21p3eLSaaGzAEgS73XXx7rbm1aHTgIUQ9UVAEk6afnOxtHUyC/lekHoLABqn0nf99EpS3JLjuoNnQUolqosAJL0vK/uyAwNj94o6S9DZwFQqyzn7hd0tzfeFDoJUGwVPQ/A4dx77syB0aHodZJuD50FQM15XK5LRqfveAEnf9Sqqh0BOOCFl209YvcRdT826YzQWQBUPzP9PPK4fUNb84bQWYBSqvoCIElzL39w+rRp06+W7KzQWQBUrQdc/uHutqYfhw4ClENNFABJ0hpPZfsGr5ScqYMBjMdud11+xJ6RL9z98dm7Q4cByqV2CsB+C1f0f9hNl6uK728AUBajJn09nYqX3tfSvCV0GKDcaq4ASNLCzv63u2u1pBmhswCoOC7pRynFn+I6P5KsJguAJJ2wcvDkOM5fI9mC0FkAVAjXbyKzT2xsy9waOgoQWs0WAGnfrIGqs9Vyf0voLACCuk/S/821Nf4gdBCgUtR0AZAkLfVowayBS0z6lJJwvACerMekf+tqyqzWYsuHDgNUksScEBd09r3a3FZLelboLABKrselLxy3LfP1tUttNHQYoBIlpgBI0rwrBuvTU+OVkt4ZOguAkrjX3S89rrfxu5z4gcNLVAE4YGHnQIu7f1HSEaGzACiKO830b12PZq7VUotDhwGqQSILgCSd1Dk4b9TjVZJeGzoLgAm7U9Jnc62ZH8rMQ4cBqkliC4Akyd0WdvT/o5t9UVImdBwABXFJN8t1ea698ebQYYBqlewCsN+8FdtmpxX9u8z+XvydAJVqj8tXR65lXe1N94UOA1Q7TnZPMn9l74ujOPqSpNNDZwGwj0tbzPXltNdddf/5R/eHzgPUCgrA07lbtnPgHZIuk/Sc0HGABFvn7svq043fW9diI6HDALWGAnAIL7xs6xF7jkh/WLKPSmoMnQdIBh+SdE1kunJja9PvQ6cBahkFYAyLVmw7ctjS7ZL/L3GjIFAq90n2LY3WfT235Kje0GGAJKAAFCi7rP9opfURSR+R1BA6D1ADdrj8e+76ek970x2hwwBJQwEYp0Urth05ZKm/N9eFMp0UOg9Qhda59OUjdo/8x90fn707dBggqSgAE7XUo4XN/W+V2YUuvTx0HKDC/Y/cvxe7f6Pn/OaNocMAoAAUxfwVfadZZG3mWixpRug8QIV42E0/NNPVuZbMb5mpD6gsFIAiyi7rP9rTepdJ/yDmEkAy9Ut2g1w/mNvbcCMv5AEqFwWgRLLLe09RZOdK9k7x9ABqW79MP4rzfnXPrMa1Wmz50IEAjI0CUGKL1viUkf7B13ocv0tmb5F0ZOhMQBFslHSdm19fHzXeykQ9QPWhAJTRnFWPzJgRTz1Tbu+W/PWSpoXOBBRoWK7/Mun6WPnru9tn5UIHAjA5FIBA5l7+4PRpU484w8zPjKWzTDo2dCbgqbxXim6S/Kdxym7uacnsCJ0IQPFQACrBGk/N7x18qUXxWRbbm5lfAIFsl/xWydYqjtfm2pv+yJ37QO2iAFSgeSu2zU5b6q9NOsNNb5RrbuhMqEm7XPqdyW6JXbc1pBt+x7V8IDkoAJXO3Y7vHHxBSn6GS6+2fY8X1oeOhaq0TbLbzX2tFP1XV2/93VpqcehQAMKgAFShhR3b58c++vLI7PT9sxAuCp0JFWenpHvctU7ydea2LteeWc+QPoADKAA14ITOvmfFbi9z8xdHslPddYp4YVGSPObSH026w9z+kE+N/qGnpTnHyR7A4VAAatTCju3zXflTJT9VbqdIeqFMx4TOhUkZkbRRrnvN/J7YdK/i+J7u3uYehvIBjBcFIEFOWr6zcTTKP1/mi6T4+fJokeTPl9QUOhueYqekLjdtNGmDyzbErvXTmxruX7/YhkOHA1AbKABQdtmuZk0Zzso9K7es3BfILCtpgSgHJeK9Jtvs0maXNsvVZRZtrEuNbryvpXlL6HQAah8FAIc174rB+vQ0Ha/Y53oUP8dcc+Wa62bPlnScSXMkTQmds8LslutBmW2R4ofd9IikByNFmz3vm2Y8PrL57o/P3h06JIBkowBgctzt+K9umxWN1jUrzjdHSs1WFDfHbs0mzZZsluRNkmZq3+OLM1V970PY49IOM/XJrU/uvYq8T259Lu+LFPXHFm+NYm2JpvlDGz7QvCt0YAAYCwUA5bfGUydt21Wfj+KZsUYaPLb6VBRNc/kMl8+QbKpMR5lbWh7Xu1kq2lccnuAmk48xH4LLzbT9wJexy818/9fRoCSZaXvs7nLtiCLbrbztlGmnzHYOSYPzt83cxSttAQAAAAAAAAAAAAAAAAAAAAAAAAAAAAAAAAAAAAAAAAAAAAAAAAAAAAAAAAAAAAAAAAAAAAAAAAAAAAAAAAAAAAAAAAAAAAAAAAAAAAAAAAAAAAAAAAAAAAAAAAAAAAAAAAAAAAAAAAAAAAAAAAAAAAAAAAAAAAAAAAAAAAAAAAAAAAAAAAAAAAAAAAAAAAAAAAAAAAAAAAAAAAAAAAAAAAAAAAAAAAAAAAAAAAAAAAAAAAAAAAAAAAAAAAAAAAAAAAAAAAAAAAAAAAAAAAAAAAAAAAAAAABANfj/HdmwPlCvLWYAAAAASUVORK5CYII=;" parent="1" vertex="1">
          <mxGeometry x="471" y="-901" width="56" height="56" as="geometry" />
        </mxCell>
        <mxCell id="ORMudLoAq7WYr6hYme3h-28" value="" style="endArrow=classic;html=1;rounded=0;entryX=0.5;entryY=0;entryDx=0;entryDy=0;exitX=0.5;exitY=1;exitDx=0;exitDy=0;exitPerimeter=0;strokeWidth=5;" parent="1" source="ORMudLoAq7WYr6hYme3h-18" target="ORMudLoAq7WYr6hYme3h-5" edge="1">
          <mxGeometry width="50" height="50" relative="1" as="geometry">
            <mxPoint x="859" y="-810" as="sourcePoint" />
            <mxPoint x="909" y="-860" as="targetPoint" />
          </mxGeometry>
        </mxCell>
        <mxCell id="ORMudLoAq7WYr6hYme3h-29" value="" style="endArrow=classic;html=1;rounded=0;entryX=0.5;entryY=0;entryDx=0;entryDy=0;exitX=0.5;exitY=1;exitDx=0;exitDy=0;exitPerimeter=0;strokeWidth=5;" parent="1" source="ORMudLoAq7WYr6hYme3h-18" target="ORMudLoAq7WYr6hYme3h-19" edge="1">
          <mxGeometry width="50" height="50" relative="1" as="geometry">
            <mxPoint x="404" y="-966" as="sourcePoint" />
            <mxPoint x="164" y="-900" as="targetPoint" />
          </mxGeometry>
        </mxCell>
        <mxCell id="ORMudLoAq7WYr6hYme3h-30" value="" style="endArrow=classic;html=1;rounded=0;entryX=0.5;entryY=0;entryDx=0;entryDy=0;exitX=0.5;exitY=1;exitDx=0;exitDy=0;exitPerimeter=0;strokeWidth=5;" parent="1" source="ORMudLoAq7WYr6hYme3h-18" target="ORMudLoAq7WYr6hYme3h-20" edge="1">
          <mxGeometry width="50" height="50" relative="1" as="geometry">
            <mxPoint x="404" y="-966" as="sourcePoint" />
            <mxPoint x="428" y="-900" as="targetPoint" />
          </mxGeometry>
        </mxCell>
        <mxCell id="ORMudLoAq7WYr6hYme3h-40" value="" style="shape=singleArrow;direction=west;whiteSpace=wrap;html=1;strokeColor=#82b366;fillColor=#d5e8d4;" parent="1" vertex="1">
          <mxGeometry x="489" y="-832" width="120" height="21" as="geometry" />
        </mxCell>
        <mxCell id="ORMudLoAq7WYr6hYme3h-41" value="" style="shape=singleArrow;direction=east;whiteSpace=wrap;html=1;strokeColor=#82b366;fillColor=#d5e8d4;" parent="1" vertex="1">
          <mxGeometry x="489" y="-772" width="120" height="21" as="geometry" />
        </mxCell>
        <mxCell id="ORMudLoAq7WYr6hYme3h-45" value="&lt;font style=&quot;font-size: 14px;&quot;&gt;&lt;b&gt;request&lt;/b&gt;&lt;/font&gt;" style="text;html=1;align=center;verticalAlign=middle;resizable=0;points=[];autosize=1;strokeColor=none;fillColor=none;" parent="1" vertex="1">
          <mxGeometry x="514" y="-855" width="70" height="30" as="geometry" />
        </mxCell>
        <mxCell id="ORMudLoAq7WYr6hYme3h-46" value="&lt;font style=&quot;font-size: 14px;&quot;&gt;&lt;b&gt;response&lt;/b&gt;&lt;/font&gt;" style="text;html=1;align=center;verticalAlign=middle;resizable=0;points=[];autosize=1;strokeColor=none;fillColor=none;" parent="1" vertex="1">
          <mxGeometry x="503.24" y="-796" width="90" height="30" as="geometry" />
        </mxCell>
        <mxCell id="ORMudLoAq7WYr6hYme3h-48" value="" style="shape=doubleArrow;whiteSpace=wrap;html=1;fillColor=#d5e8d4;strokeColor=#82b366;" parent="1" vertex="1">
          <mxGeometry x="239" y="-811" width="90" height="51" as="geometry" />
        </mxCell>
        <mxCell id="ORMudLoAq7WYr6hYme3h-49" value="&lt;b&gt;&lt;font style=&quot;font-size: 14px;&quot;&gt;Spring Data JPA&lt;/font&gt;&lt;/b&gt;" style="text;html=1;align=center;verticalAlign=middle;resizable=0;points=[];autosize=1;strokeColor=none;fillColor=none;" parent="1" vertex="1">
          <mxGeometry x="219" y="-832" width="130" height="30" as="geometry" />
        </mxCell>
        <mxCell id="ORMudLoAq7WYr6hYme3h-50" value="" style="shape=image;verticalLabelPosition=bottom;labelBackgroundColor=default;verticalAlign=top;aspect=fixed;imageAspect=0;image=data:image/png,iVBORw0KGgoAAAANSUhEUgAAAnYAAAJXCAYAAAAepBlqAAAABGdBTUEAALGPC/xhBQAAACBjSFJNAAB6JgAAgIQAAPoAAACA6AAAdTAAAOpgAAA6mAAAF3CculE8AAAABmJLR0QA/wD/AP+gvaeTAABN90lEQVR42u3dd5wc9X3/8desThVVem+miyKkk8BC2MHgho1tbHA3uBA7dhw7juPycxIncRInzi+/OC5gGzdKIJTYxjaudBBN2pNAIJpE74giIaF6t/P7Y0ZwCJUr8535zt7r+Xjs44TQzc5+Znb2vd/5lgRJqlgTxjRgIjCxGyYm2WOrFMYDHUn2/4YDY4HRKYxKYFz+/8bm/+9FKQwj+93NeT6Bng3+bl0KK4DuFJYnsBpYRfZ36xJ4rgXdCSxP4YUUlnbAUmDpanhuZvZvJakyiSWQVKSroGMcbJfAdsDOLdg+ge2BnRLYLs3+PDF/TMp/jmiTl7+GPOitfyTwVApLgMdSWNKAp9b/eTksOQa6PWskGewkla4Jw4fBLi3YDdgjzX6uf+wB7EAW6Ly29E1KFvqeBB4EHgIeSeBh4MEGPNwDj3bCOkslyWAnaSDhbUIC+7Rg3wT2If+Zwp7AjkDDKpWqBTyRwAMpLAIWJ/nPdbDoSHjeEkky2ElDWArJHNizAw5OYTKwP7Bv/tjeCtXKk8CiFBYlcE8Ct3fDwhnwQJK1CEoy2ElqFwtg0lqYnMBBeYibBhxKNvhA7WsNcG8CXSksTOCOFiycDvdZGslgJ6kGmjABOASYlsC0FI4C9rYy6uVxsrDX1YCuDrj5sGxAhySDnaSq3ACjR8H0HjgygelAJ1k/OKm/HgDmptAcBjctgznHZFO9SDLYSQphNowbCUcAsxpwVAqzgFFWRgF0A7cC1wOze+DKI+AZyyIZ7CQN0AKYtAZel8DrgKPJ+sc5IlVVaAELU7i2AVc24MrDs3n6JBnsJG3MRTDsVTAlheMSOC6F17LBigpSJHqAW4DLU7g8gWuca08y2ElD3hzYcRi8rQVvTOBYssEPUt0sTbOWvN+vg18dmU3BIslgJ7W/+bBnD7w9gbem8CdAh1VRG2kB81O4NIELOuEuSyIZ7KS2MgemNOBdwDuAg62IhpDbgEsS+N9psMBySAY7qZZugV264STgVOBwKyJxRwoXt+DsI+B+yyEZ7KSo3QCjR8BbgVOAN+FtVmljWsCNCZyzDi5wvVvJYCdFZR509sCnEngPMMaKSH22MoELEvjeVGhaDslgJ1ViEYxcBm9L4OMpHGdFpEHrSuDMFP67E1ZaDslgJwXXhN2BzwAfAba2IlLhngF+CnynEx6yHJLBTircXNg7gc8CnwBGWhEpuHUJXJDC1502RTLYSYVowiEJfCGF9+FgCKkKLeC3DfhH++FJBjtpoIHuAODfgLf5XpGikAK/TOHL0+FuyyEZ7KQtuhm2GQZfAD4HjLAiUnS6U/hJD3zV5cskg520UQthxCr4JPCPuGarVAcrUvh/K+DfjoHVlkMy2EkANOEY4EfA3lZDqp17UzhtOlxtKWSwk4Z2oBsDfJXs1mvDiki1labwwx74gitZyGAnDUFd8MYUziSbl05Se3gshU9Oh19ZChnspCGkCY8CO1sJqf3CXSfsYhk0FHnrSZIkyWAnSZIkg50kSZIMdpIkSTLYSZIkGewkSZJksJMkSVJJOiyBJKkAy4E7gCfyz5Y9gYNwvlTJYCdJitqqFG5JoJlCcxg0D4e7Emj1/kc3wa4d8AngL4Gxlk0Kz29SGrJceULqk27gngS6UugCuibA3H1hTV83MAd2S+DnCXSWtM+uPKEhyxY7SdJ6PcDdvUPcWuiaCasGs9EZ8PBseN0ouB44xDJLBjtJUrFSYDHQBJoJzB0F8yfDihBPNguWz4d39cDtwAjLLxnsJEkD91CaB7gUmh1Zv7ilZe7A4bCoCd8DPuvhkAx2kqS+WZpAswXXN6CrB+bOyEarVq4FZzUMdpLBTpK0Uc+RjU6d24BmDzRnwMOx7uwMuCUfuOTgBslgJ0lD2grgVvLBDSl0TYc7kqy/XJ3MNdhJBjtJGkrWAYvWj1BNYPa9cMu7s5GrtZb39XuHh1gy2ElSOxr0XHF10shuHUsy2ElSW7gvgeuLnCuuTtbA3BHZ7WMnyZcMdpJUK4+Tt8Q1oGs4zD40G/AwZM2EZ5vwALCXp4dksJOkWoS4BG6aCkssy0Y1DXaSwU6SYvEkWV+xZgJzu6F5ZPZ36pt5wMmWQTLYSVLZngduo9c0IzNgoWUZuBQW2MFOMthJUmgbmyvuzgRalqY4PbDADyDJYCdJRVoN3JLkt1Rb0HwA7mqHueJidyQ80swGkUyyGpLBTpL6a0jNFVcHKdybQKeVkAx2krQlL5srDpjXCSstSzwSuB+DnWSwk6QNLF5/O7UBc1fC/Fmw3LLEH74tgWSwkzS0OVdc+3jMEkgGO0lDx1KyaUVmJ3B9D8ydAU9YlvaQwhKnPJEMdpLa0yvmipsOdyTZmqJqQ8PgKeeQkQx2kupvBTAfmJtCswOaU7J+coa4IaQHnrXFTjLYSaqXdcCi9dOMJDD7XrjFueKEo5Qlg52kqL1irrjl0DwmmwhYepkUVtpiJxnsJMWhBdwFNMmmGWmuhltmwipLo74GO6sgGewkVeNl04ysgetnwrOWRZIMdpJqFOKcK04hDIeGo2Ilg52kYi0lmyuuC5jdguucK05lWAsNP4Qkg52kQYS4fGTq3BSaCczthIcsi6rQgBFWQTLYSeqbF4BbePmEv3cm2aAHKQbjLYFksJP0Si+bKw7oGg1zJsNaS6NYNWCsVZAMdtJQ103WJ+7F26nAbZ1ZuJPqZIIlkAx20lDzODAbuJ6sNW5ep/N/qQ2ksJsTFEsGO6ndQ5xzxSmo+bBnD0xPYTpw2XS4rKJd2c2jIRnspLYMcc4VpxCasFMCnS2YlsA0YEYPbA+QZI+fV7h7u3uEJIOdVEfLgNvJ54oDZndmwU4qMsRNAA4hD3FpFuQOSvMQtxHr1sCtBjvJYCdp05YDC3j5NCN3JJBaGhVlNowbBYdtEOIOXJ/h+niy3V7l2r6Jt2Ilg50UGeeKU3BNGNOCKQ3oTGF6Ap3AfkCjHyHuFdJsRHUlUki6DHaSwU6q0Bqy21bNBJotmHs/3Plu6LE0KspV0LEV7J+81CduGtDZgJGwyVuqA/Xbql7nfNgJGO0Rlwx2Uhl6gLt7T/i7HJrHwGpLo6JcBMP2hAM2CHFTSwo8a9bAlRW+wTqd6kQy2EmhPM5LAxuux7niFMA82DmFab1GqB4FTKpod66ZlfUHrUSSTbUiyWAnFSOFrwF398C8I+F5K6KCQ9weeavU+n5x01owMQ81Mbi04vefLXZSmC9NkqTBmA8Tu7MBDbPylrjpwA4R7/LaBuxa5byJTXgK2C7Q5h/rhF08MzUU2WInSf1wE4zvgEPpNc1IDxxUp2/JKfyiylB3M+wVMNRJBjtJ0isthLGrYAqDmysuRj+u+INnupM6SgY7SQrmKhg1Hqbk66d2Ap2r4AAGOVdchO7thCuq3IE0GzQiyWAnSYWEuI3OFZfmc8W1swS+EcEE2m/wLJQMdpI0IHNhb14a2FDmXHGxeXgUnF3lDtwEu5K1hEoy2EnS5kU2V1xsvj4Z1la5A8Phzfavkwx2kvQKc2C3YdDZyuZEm07250ngXE4b8cAE+GkE+3Gih0Iy2Eka4ubDxB44mKwFbhbZAIcdU0NcX31u32y948rMhnEpHOOhkAx2koZYiOt++aoNnT2wu5UZmAR+Nw0uqXo/RsJbgFEeEclgJ6lN3QpbrYPDefmEvwck+TQjtsYN2rIU/iySgPkBD4dksJPUJpowvAX79Z5mZF3WN24EtNVccdFI4S+mw0MRBPjt18EbPSKSwU5SDV0FHRNgciu/lZpP/HtIA4ZbndJC3YXT4dwY9mUtfCDx2EsGO0n1MA92br00sGEacHgLxuQBQ+VbMAI+FsvOJPBRD4lksJMUaYjbYK64mS3Y2spE4zngnYfBCzHsTDMbCXuwh0Uy2EmKL8TNaMH24MCGSK1swDumwr2x7FACf26rrWSwk1SyJkwADuGlEaqzWrCXIa421qZw0lS4NqIvBnu04O0eGslgJylwiEuylrgXV20A9lz//21hqZ01Kbx7Ovwupp1qwef9rJEMdpKKDXHDEzg0hVnr54oDDkihYUtcW3imAe+MqaUO4GbYBgdNSAY7SQN3FXRsBfv3nisOmJ46V1y7WtQDb+2Ee2LbsQb8FbCVh0gy2EnqY4gbDwflt1PXL8F1GHmIU1tLE/hpCn91BCyLbefmwXYt+AsPk2Swk7TpD8sXR6g24KgUXp3CVutvp9oaN2Q8nsKfdcKvYt3BFvwNMM5DJRnsJAHzYc9u6Gxkt1E7yQLdBMhGqBrihqTVwBnd8I9HwvMxn7s9kaxPKxnsJJWuCTul+dJb65ff6oFtDXDKLQN+3AH/OQUejX1ne+A/gZEeNslgJ7W9m2GbDujcYJqRXbydqg2sBS4HLhoNP5sMK+qw0/Pg2Bac6OGTDHZS27kJxg+DqUkW3taHuL1TnPBXr7AkgWYKc1O4LoEbOmFlnV7AQhixCr7joZQMdlLtNWF4C/YbBkcBs9bPFQc0rI42sBxYAHSl+WM63JHUvMF2Nfwf4EAPr2Swk2plE3PFdTZgpLdStYEXgFs2CHF3JtBqpxfZBQemWbCTZLCT4nURDNsTDtggxE0FRlsdbWAdsCjJAxzQNRrmTM76y7X1eySFs3DAhGSwk2LTe664PMgdBUyyMtpAD3B37xC3HJrHZFOSDCl7wd8BMzwlJIOdFFuIO7IF24KDG/QKjwOzgevJgty8ug1uCKEJs4C/9fSQDHZS1R9IN7bgSEOcNuLeFJoJNFswdy3Mm5UNeFAvN8DWwPnAMKshGeykqk2wBCJrietKoasBXQncNBWWWJbNS6HRBecCu1kNyWAnSVVYCiwku5U6uwXXzYAnLEv/dcHXgeOthGSwk6QyPA/cRpvNFRdJqHtPCl+0EpLBTpJCWAHcSpvPFReDefCaVja1iV1TJYOdJA3ay+aKS2D2vXDLu7PpRxTQHJjcgkuAUVZDMthJUn91A/f0nituAszdF9ZYmnLNhb0T+D3O6SgZ7CSpH+5M4MIUrhiqE/7Gpgm7A5cDu1oNyWAnSX1xZQr/NB2uthTxmAd7tLJjsqfVkAx2krQlSxP4s2lwoaWISxcc2Mpuv+5uNSSDnSRtyaIE3j4N7rQUcZkLM1L4DfkSe5LqoWEJJFUhgRuA6Ya6+DTh5ASuMtRJBjtJ6osHO+DETlhmKeKRQtKELwEXAGOsiFQ/3oqVVLaVwAmHwVOWIh43wNZd8BPg7VZDMthJUp+k8H+nZ0t9KRJdcGQK5wN7WQ3JYCdJffXYCPi/liEOi2Dk8/B3KXwZGGZFJIOdJPXHvx8GL1iG6s2DVy+DHwEHWQ3JYCdJ/ZV2w88sQ7Vuhm2Gwdda8Gc4gE4y2EnSQCRw45HwiJWoRhOGJ/CRFP4FpzGRDHaSNBgtuMwqVBPoUngf8Lcp7GtFJIOdJA1aA+6wCuW5FbZaCx8EvpQ42lUy2ElSkXrgSasQXhNeBXxyHXw0gUlWRDLYSVLhhsEaqxAszE1I4e0N+FAKxwKJVZEMdpIUkktUFWg+7NmCN6RwAvD6BEamlkUy2FkCSWVIYTerMODaNebB/i2YmcBrgKN77DcnyWAnqUKHWoL+acJpwCldcDgw1vurkgx2kmLxBkvQb68DjrYMkvrKWcclleXgebCHZei7BLqtgiSDnaQoteBjVqHvUuixCpIMdpJi9dkFzq3WH7bYSTLYSYrW+LXwFcvQN4ktdpIMdpIi91dz4bg67OhFMGw2jKvq+VMY6ekiqT8cFSup9C+UCZwzD149FR6MZadSSJqwXwM6W9CZwHRgSgKfBs6qaLe8bS3JYCcpeju14NouOHYaLK5iB+bBzilMa8G0BKZ1wasT2CblFetxPVRh2Jzk3HWSDHaS6mD3FK6ZA++fAdeEfKIm7JRAZ5q3xKVZq9x2sOVFVVvwQFUFSmyxk2Swk1QjOzfgyiZ8czT8w2RYMdgN3gBbj8hC3PQEOskeu65fR7Wf66mu6IT7K6yPwU6SwU5SrTSAz6+CjzThjBacPgOe6MsvzoZxI2Bq4+VB7lWw5Za4vkhgQdLvLFiMFJIu2NrTQ5LBTlIdbQ38bQO+0oRbU7gcuB1YMgyW9MDYBuwK7JTCwWQh7oA8GBKiL1oKV1ZVjPmwEzDG00KSwU5SnTWAw5Ns4XsAWnlwK7vpLIE/VlWEFuzvqSBpIBdQSdIrLU/hpgqf32AnyWAnSQW5shPWVfXkCeznIZBksJOkYoLV/1b5/KktdpIMdpJUiKefrzjYAVM8DJIMdpI0eD86BlZX9eRdsA+ws4dBksFOkgan1QNnVrwPszwMkgx2kjR4vz6i2tUmSOEoD4Mkg50kDU6rAX8fwX7YYifJYCdJg5HAeVPh1ir3oZmtOOGIWEkGO0kahOcT+HIE4fKdhFkhTZLBTpKGhgS+MhUeq3o/UniXR0OSwU6SBh7qfjcVzqh6P5qwLXC0R0SSwU6SBubRFE5JII0gYJ4IdHhIJA2UFxBJQ9naBN43DZ6OYWdSOMlDImkwbLGTNFSlKZw2Da6LYWfmwt7AcR4WSQY7SepvqoPPT4dzY9mfBD7pNVmSwU6S+u+r0+GbsezMDTAa+IiHRdJg2cdO0lDSA3y6E74f006NhPeksI2HR5LBTpL6ZmUKp06H/41w3z7l4ZFksJOkvrk7gXd3woLYdmwuHJ/CdA+RpCLYx05SW0vhv0dD57QIQ10KSQP+waMkqSi22ElqV/cBn5kOv4l1B5vwzsTWOkkFssVOUrt5AfjaWji4M+JQl0Ijga96uCQVyRY7Se1iOfDTFvzrDHgi9p1twgcTONTDJslgJ0kvmZ/CuQn8pBOW1WGHmzAB+FcPnSSDnaShrgXcAvwxhfOmw+11ewEp/HsCO3soJRnsJA01K4H5QDOF61pw9RHwTF1fTBOOAE7zsEoy2Elqd93APQl0pdAFdI2GOZNhbTu8uKuya+4PcOCaJIOdpDbTQzZx8Ishbi10zYRV7fqCx8PfpHCYh16SwU5S3T3OSyFu9gi48bBsapIhYQ5MT+FvPA0kGewk1TbENbKfN3bC00O1GAth7Co4DxjuqSHJYCcpZksTaLbg+gZ0rYM5R8KTliWTQtIFPwH2tRqSDHaSYvI8cBt5a1wKXTNgoWXZtC74MnCylZBksJNUpRXArb1D3HS4I4HU0vRNE94A/JOVkGSwk1SmdcCi9SNUE5h9L9zy7mzkqgZgDkwGLgSGWQ1JBjtJobxirrjl0DwGVluaYtwCu3TD74CJVkOSwU5SkR4HZgPXkwW5eZ3Zag4KYB5s1w1/BHazGpIMdpIGG+JenGZkDVw/E561LOWYDxN7spa6g6yGJIOdpAGHuARumgpLLEs1FsCkdfAHYJrVkGSwk7QlS4BfpnBpAnM6s2CnCNwEO6zNQp3LhUky2EnarHkp/N398AdHqcZnLuydZH3qXmU1JBnsJG3KM8BnpsEFCbQsR3y64MgULgF2sBqSDHaSNmVBCidOh/ssRZya8P4UfgyMshqSDHaSNiqFa0fA8YfBC1YjPldBxzj4Z+CLQGJFJBnsJG3KvcPgJENdnG6CXYfDhSnMtBqSYtSwBFI0VibwJqcsidNcOKkDbjHUSYqZLXZSJFL4eicsthJxyScd/i7wAashyWAnqS/unQj/YRni0gUn9MAZwK5WQ5LBTlJffX9fWGMZogl0BwLfTuE4qyHJYCepP7qB8yxD9W6GbYbBV1P4lNdHSQY7SQMx2+XBqnUDbD0C/hL4LDDeikgy2EkaqHmWoBq3wvbr4C+AzxjoJBnsJA1aArdZhXLNh3174NPr4DRgjBWRZLCTVIgUHrMK4V0Fo8bBCQl8vAeOxVUjJBnsJBUtcaLwYBbByOfhDcDJKbwDGJdaFkkGO0mhtAx2hZoDOzbgjQm8aRm8GZhgVSQZ7CSVZSdLMHA3wa7D4OgGzEzhNcAhQGLLnCSDnaQqHG4J+qcJX07g1Sl0AjsDGOQkyWAnxWCqJei3r6Yw2jJI0svZt0eqWAJHzIM9rES/2EAnSQY7Kc73YQ98xDL0S8sSSJLBTopSAqc1nSjXYCdJBjupLewC/J1l6DNvxUqSwU6K2ue74FDL0Ce22EnSRjgqVorH8BR+MwdmzoCHY9qxZjbJ7yHANOAoYNZaeNVMWFX2vqSQdMFYTxdJMthJsdu1Ab9ZAK89FJ6rYgdugvEdMC2F6QlMJ3tsOGr3uSpCHcCNMGkEDPdUkSSDnVQHh6yFOfPgpKlwa8gnugFGd8DhDejMg1wnsB/QSDb/q5W1KA6H7TxFJMlgJ9XJPi24sQlfAr7fCesGu8Fm1sp1SJKHOLLH5PXXgaQf20rhzqoK04DtHTkhSQY7qW5GA98GPteEf1wOFx4Dq/sYvBrz4YAe6GzA9HzprSnAqCJCUQILK6yLLXaSZLCTamsv4KxxcHoTLkvgd8DibnhkNCxZBdt1wA7A7ilMSWB6V7ZM2biEMPOCNOCaqoqRwvaeEpJksJPqbivgHSm8A2AYsDb/mb48+IS2chzcXGEd9vRUkKRNfvGWpL5L4Jp9YU2Fu3CIR0GSDHaSCpDCFRXvgsFOkgx2korIdT3w66qePJ8oeVcPgyQZ7CQNUgI3HgH3VLgLh9C/mVkkyWAnSRvTgh9XvAvehpUkg52kAjy1As6veB+O9DBIksFO0uB9p68TJAf0Og+DJBnsJA3O06vhW1XuwJxs+TMHTkiSwU7SIH1tFiyvcgeGwes9DJJksJM0OLcD3696J1KDnSQZ7CQNSncDPt4J66rciYUwAniNh0OSDHaSBu4fp8KNVe/EKjgeGOvhkCSDnaSBufo++NcYdiSFD3k4JMlgJ2lgHmnB+94NPVXvyA2wdQJv8ZBI0pZ1WAJJG1jWgLd2whMx7MxIeF8KIz0skrRltthJ6m11AidMhVtj2SFvw0qSwU5S/60CTpoG18WyQ/mkxEd4aCSpb7wVKwngOeBtnTA7sm+eX/DQSJLBTlLfPdyCN8+AhTHt1E3Z8mHv8/BIUr++EEsaqlK4ogUzYgt1+bfOvyabmFiS1Pdrp6QhqDuFf+mEryXQim3nboCtgY95mCTJYCdp87pS+NR0mBPrDo6Az+JKE5JksJO0SUtS+HIn/DSBNNadvAl2AP7SwyVJBjtJr/RUCt9L4JvTYVkNLkr/Doz3sEmSwU7SS+YDP1wOPz0GVtdhh7tgWgof9NBJksFOEtwPXNSCc2Mc6bo5KSRdcDqO1pckg500RN2Xwg3AVS246ogs2NVSF5yCq0xIksFOGiIeJxvR2tWArg64+TB4qh1e2K2w/Tr4hodYkgx2UjtaBty+Psi14Lo6t8ZtTn4L9idko2ElSQY7qdaWAwvWh7gUuqbDHTFPSVKkefAp4C2eBpJksJPqZh2wKIXZwPV5iLszxtUfytCEA9JsehNJksFOilo3cE+St8IBXaNhzmRYa2lgIYxYBf8NjLEakmSwk2LSA9zdO8Stha6ZsMrSbNxq+DYwzUpIksFOqtqLI1SB2SPgxsPgBcvSN3Phiyl8wkpIksFOqizENbKfN3bC05ZlwKHu+AS+biUkyWAnhbY0gWYLrm9A1zqYcyQ8aVmKMQemJHAhMMxqSJLBTipMAs+lcFkKcxvQXAdzj4RHrEwYN8NeDfg1MNZqSFKwzzZJCmse7NGCq4C9rIZK8Fgn7GIZNBS52LYkQ50kGewkyVAnSQY7SW3vZtivBdca6iTJYCepxrrg6GFwPbC71ZAkg52k+oa6P03hCmBbqyFJ5XK6E0mFuAiG7Q3/ksKXrIYkGewk1dQc2LEBZwNvsBqSVB1vxUoalC54UwPmGeokqXq22EkakCaMAf41hc9YDUky2EmqqblwFNmt11dZDUky2EmqoXmwcw/8fQKnYVcOSTLYSaqfhTBiFXyyBf+UwDgrIkkGO0k1k0JjHpy8Cr4B7GFFJMlgJ6lmFsKIlfDeLvgiMNmKSJLBTlLNzIZxo+Cjq+DzCexmRSTJYCepZpowNYUPJfARYIIVkSSDnaR6hbndgROBDwNTEksiSQY7SfWQQqMLpgCvS+DEFF4NmOckyWAnqQ7mwt4NOC6F47rgdcA2eciTJBnsJMVqHuycwrQWTEtgGjAD2N4QJ0kGO0kRmw8Te+BgsgB3FDCrBTuB91YlyWAnKVo3wfgOOJS8JS6FaT1woBlOkmSwkyK2EMauygY4vBjigAPI12X1tqokyWAnRagJw1uwX/JSn7ij8lA3zBAnSTLYSZG6Cjq2gv17hbhpQGcDRlodSZLBTorURTBsTzhggxA3FRhtdSRJBjspYhuZZuQoYJKVkSQZ7KR6hbgjW7AtOERVkmSwk6LVhJ0S6OwV4qa3YAdDnCTJYCfFHeImAIfw8mlGDkoNcZIkg50Uv7nw6QReA3QCe63/e6cZkSQZ7KSaSeD/ADtbCUlSu2hYAkmSJIOdJEmSDHaSJEky2EmSJMlgJ0mSZLCTJEmSwU6SJEkGO0mSJBnsJEmSDHaSJEky2EmSJMlgJ0mSJIOdNAjPWQLJ97ZksJPaw1EpnAmklkJqGxf3wGstg4aqxBJoqOuCN+YBb3erIdXWYyl8cjr8ylJoKLPFTkPeNPhDNxySwulAtxWRaqU7ge+uhgMMdZItdtLLNOEA4GvAyVZDiv4D7HLg89NggdWQDHbSJs2DY1vwH8AUqyFF507gC53wG0shGeykPrkIhr0KTknhK8A+VkSq3KIEvj4VzkmgZTkkg53Ubyk05sFbUvh7YJoVkUp3ewr/dwWcf4z9YCWDnVRQwEvmwVvzFrwjrYgU3C0pfLMT/tsWOslgJwUzB17bgE8BJwLDrYhUmHUp/HwYnDEVrrUcksFOKjPg7diAU8lCnvPgSQP3BHB2C06fAQ9bDslgJ1XmKugYC+9I4DTgOGCYVZG2qAe4PIUfroBf2n9OMthJ0bkZtumAd6VwCnCUFZFe4Q7gHOCcTnjcckgGO6kW5sDkBnwIeD+wmxXREPYQcF4LzpsBCy2HZLCTah/yEjg5yVa1OMiKaAi4D7gUuHgaXJ9Aakkkg53UdubC3gmcQBbyZvpeVBu5I4WLG/DradBlOSSDnTSkzIHdhsGbUngDcCwwyaqoRp4FrgD+2II/OKJVMthJyuXLmE1J4bgEjkvhNcAIK6OI9AC3kI1mvTyBazphnWWRDHaStqAJE1J4bQJHA7PIljRzQmSVaV0KTWB2A65L4dpOWGZZJIOdpMEHvTHAVLJpVGaRBb4JVkYFWgnMB2YncL1BTjLYSSpJPjHyIQ3oTGE60AkcjK166pt1wG0pNBvQbEFzBdzmRMGSwU5SPGFv1Dg4LMnCXicwhWx6FfvqDW1rgDtTmJ9AM4XmRLh13+zvJRnsJNUo7HWMhd0bMDmFg5Ls5zRgf1z+rB09TjbVyMIU7mjAwvFwuyFOMthJamNNGNOAg1qwXwL7prAv2WMfYGsrFLVngMX5454UFjXgnjVwx0xYZXkkg50kvegG2HoE7JvAPq3s555ky6LtBuwOjLRKQa0GHk7hoQQeTuABYHELFq2DxTOz+eMkyWAnafDmwI5kkyvvBuzegj0S2AHYCdge2C5/6JWWAE/lPx9P4ckEHkjg4Z5sgt+HZ8ATlkmSwU5SNJowvJEHvB7YGdguyR6TWjAxgYnApAQmpvmfyX6OrslLXAU8ByxNYGkKS4HnUljayP77uRSWNOCpJOv3tmQZPOWoU0kGO0lDxiIYuQrGrIKJI6CjBeN7YGSSzeO3VZKN8J0AdLDxefwmAI0tPE2Ljc/PtowseC1LYS3wQgorh8GaBjy/FrpHw9LRsNLBCJIkSZIkSZIkSZIkSZIkSZIkSZIkSZIkSZIkSZIkSZIkSZIkSZIkSZIkSZIkSZIkSZIkSZIkSZIkSZIkSZIkSZIkSZIkSZIkSZIkSZIkSZIkSZIkSZIkSZIkSZIkSZIkSZIkSZIkSZIkSZIkSZIkSZIkSZIkSZIkSZIkSZIkSZIkSZIkSZIkSZIkSZIkSZIkSZIkSZIkSZIkSZIkSZIkSZIkSZIkSZIkSZIkSZIkSZIkSZIkSZIkSZIkSZIkSZIkSZIkSZIkSZIkSZIkSZIkSZIkSZIkSZIkSZIkSZIkSZIkSZIkSZIkSZIkSZIkSZIkSZIkSZIkSZIkSZIkSZIkSZIkSZIkSZIkSZI2JbEEngPA9sBYYCIwLn+0gBX547n851OWS5Ikg10VRgOj2uw1rQVeGOQ2pgJvAQ4E9gcOAMb08XeXA3cDdwF3Ar8EFvo2kiRpaAa7McC2wDbAdr3+vBVZa9FW+WN969GYPJyN7BU+JgANYHj+74aSa4A/GeQ2fg+8saD9OQc41beRJEntF+y2B/YAdgV2B3bLH+v/exuyVjQN3FPADoP4/dHAMwUeh4fzYytJkiLQMYDf2Rk4CJic/9wbOGSQgUN9D8/bAk8P8PePKjhc7wbsBdzvoZEkKf5gtzMwrddjFtktUlXnQOC6Af7uEQH253CDnSRJ8Qa7BnABMBPYxRJFZ/9BBLvOQMHu5x4WSZLiDHYHACdbmmhtN4jfPTDA/uznIZEkKQ6NjfzdDMsStQkD/L2EbHBL0XbzkEiSZLDTwEwc4O/tSJh5/Qx2kiQZ7DRAA22x2zPQ/uzEwEZXS5KkwMFuFNnUJYrXQFvdQgW7YXm4kyRJkQW7w4ERliVqzw3w93YMuE87elgkSYov2HVakugtHeDvjQu4T2M8LJIkxRfsvA0bv2cH+HtbBdynrTwskiTFF+wOsCTRG+it2LEGO0mShlawO9CSRO+RCIOdt2IlSYos2G1DtsC84nZXhOHLFjtJkiILdrbWxW8dcN8Af3dYwP0a5qGRJCmuYGf/uvgtzsPdYI910RIPjSRJcQW7/S1H1FYDv4k0fDU8PJIkVa/DYBetp4DbgJuAG4CrgZWRhi+DnSRJkQW7PWq276uBVUALWJb/3fNAT6//F5t1wIr8z2vyoPZc/vNZ4AHg/vyxsuDntsVOkqQhFOx2q3A/WsCjeaB5mKy16lHgSWAJ2WoLvR9rPHRRsY+dJEkRBbuxwKQSnq8buBu4FVgA3A7cmwc6w5okSVIBwa6M1rq7gCkGOEmSpDAaJQa7Bwx1kiRJ4YPd7iU816OWW5IkKXywK6PFzmAnSZJUQrDbuYTnetxyS5IkhQ9225fwXA9bbkmSpPDBbtsSnstbsZIkSQY7SZIkxRLs1gJPW25JkqSwwW4YMDHw8zwOpJZbkiQpbLDbhvCLuNtaJ0mSVEKwK6N/3TJLLUmSFD7YTTLYSZIktUewG2+wkyRJao9gN85gJ0mS1B7BzhY7SZKkNgl2tthJkiQZ7Ax2kiRJBjtJkiQVqsNgJ0lSYSYCW+c/k14/e1sNrMp/Pp9/Rj5v6VRUsBtbwvMst9SSpDb53HwVcDBwIHAQsBuwE7AzMHoQ234aeBJ4hGwpzoeB+4CFwF1+lqqvJ+ioEp5ntaWWJNXQLsAsYCZwFHAIMCLQc22bPyZv4v8/BCwAbgBmA02ylj/pZcFuZAnPs8ZSS5JqYDzweuB44Fhgj4j2bff88db8v9cCNwO/BH5B1rong10pLXYGOwGMAfbPH7uS3brYrtc5OCG/UK0CUrLbEk+T3ZJYBCzOv7GmQ6xuk4B9yG7/7A5sn3+rH9Prg6gbWJn/91LgKWAJcG9et/vy2m7JjsC++fPt2qsFYTte6ie0FfBC/ueV+TF6Kj9O9+WPxX18PtXL2Pz8eBWwd36+bJOfIyM2cn6s6/U+XgI82OucfCai17U3cGIe5o4GhtfkeIzI9/do4D+AW4H/AX6c17xsuwAH9LrG77jBNX4csCK/hnf3Ojcezc+Je/Jr/boh9J5qAHttcI3fboNr/Jj8etq9wWfjkrxui4G7yftp2mKn0N6Tf/udmb/hk0FubykwB7gE+F4b1+0twEeBaQW1GKwlu4UzF/g00Mr/flfgk0AnMJ3i1o5eB9yeH6tP1jyMjyTrRzU5/8DaJv+AGpeH6hH5h9Xz+WNFHnTvIusbdW9+Qa6r0cCZ+bm4f/5BVIQnyG4lNoHvAM+W/Lp2AN4NvB84sk2uG4flj38ALgBOz+sb0p8Dx+XX+O0L2N4qYD5wIfDtNr7Gfyi/xk+lmIUiWnkovp78wpsGfmxrvqncpQGP7xc287zzAz3nmjY/r0K9Lx/Z4HmmlfD+36+mx2BGHs66CzhXF+YfuHX02hLOkZ1LDOnvB35fwHGty+OS/Et1KPcE2u+VZCOK21Wout3ewFuxCmtJoO2OyC/Q7WinvAUthLs2+O8HS3g9s2p6HD6et1ANK+BcPQj4WE3rEPr4rclb70LaB/j3/IvNecAbCziudfF24DbgDLLW5qKFuuU7muyOTzuaTNalIYQ7G5RzK9ZRsQa7EE5r05qdwOBvWW/yTb+Ri3LoKRSOquExGAW8q+Btvp9woynrfPwe5KWuAUVqkPWb+yNZ68gXGLp3jzrIukTcCryuJsEO4CNtejzeFnDbdzRKuNCs7ySpoemhgNs+hKx/Qrt5a8Bt37WRv3vYYPcKJ1L8baBtgDfXrA4Nwvc/K7rVeBTwifxc/zlZH98EQTa44TLgXylugMgDAff3CLL5Ar3G9+Ma3yB8c/Qaht4oRr1kQeDtf7TN6jWGrCNyKAs38nf3B35N+1FMp+oynRJou6fWrA6TKW5ATehgNx74LNkIwe8T7lZX3TWAL5NNkTK6gO2Fvsa3W6vd9oG/LN3WoLgRTpsLdhq6bg28/Q8UdHGKxesDvp61ZIMyXnEhCPyaEurVardTfhxCeAth+jmFUsZxW1zANqaQ9Z/7L7JWKW3Zm4HfMfgRmaGvH6dSTpexspwQMHc9S34r1mCnkO4h7MzoE4F3tFG9QjbRN3lprrsN/74dAkJRPki4OxkjgPfWqBZlDHyZX8A2Pk456563m9eS3ZrdahDbuB3oCbiP2+RfiLzGb9m1QKuMYNfje2dI6wZuCvwc7dJU3wj8pr9mM4HPYPeSDwXe/ik1qkUZwW6wrfqjgfd5qR2wGcA5DLwf4gvAPK/xfT5XXx9w+1ev/yAJHexavm+GvCsDb/9YYM82qNN0spnaQ36b25gHySbUDWkaL82iHrOpZINyQn+QHliDWuxC+OW0HiVb9H4w3kZ7z3dWhney+flIq77Gv5ny5joM6XUMrnW0T1/eDXYqw1WBt9+gfp3SN+akgNteRz4j+SZ0BX5tw/PgGruyWtM+VINa1OU27Du9xBbi64M45qGv8cPa5Br/7oDbfpZ8IEsZwc4RsZoDLAv8HB8u4VwOKSHsZJxXs/n56ua0SVAYbPgs65beh2pwvs4s4TluGeTvj6J+U8jEahjZMo0dA/jd2YSfr/Yj1HvamlGE7Q9+KXlDmi12KsM64LeBn2NPip94s0yzgN0Cbv/nW/j/15bwGmPvZ/cmypuWZVeyLgSxn5OhzR3k7x+LgyaKdDDZHID99QLZIIyQ9qW+q9hA1n96fMDtv3iNN9ipLJeU8Bx17mD7nsDvwV9t4d/cUMI37qOIexmnsm/1xHw7dixwaODnSNl894C+OMZLa+H+iYFNyeM1fvNCjoZfuWGwXkHYBYgX+z6JwqUBj3FfOt2OJZv2JOS5torwk6mGMIxsrcxQdbmhj/txDeEXJD800mOwdR5sy1ycfQXxtja9voTXX8TEtnNLPmZD5fGlARyLbcjuzoR+z4yv4TV+XB6+QtXlZ72fzBY7lWUF8PvAzzGKbD3OujkG2CHg9vv6TfrqEl5rrLdS3kv5k6BuRfHr0RaljNvm1w3y98cDh0dUs5Rs3dS7gRuBy4HfABf3evwi//tryOZ/e4w411L/M/rfuv4M4QdRbEXYAQihnEjYifR/seFfhP6WepeZxha7Xid36G+azRoemx8HrEcL2KsfATP08Tkv0mNwU0UtI1dGWo/LS3jtg701dXxFx+xZ4ArgP8iWNDwmf491DOK1bEc2avxk4G/yELg4f/9W1Wp3wgBexwdL2K/ra3iN/y1h71RN3PAJQzed3mmmMtjlRgBLSnjjT6nRcRmRf9MNVYv+fIMeRfjb5Q9GeAz2r/DDs4fwc8X1VwfwfAmvfbBLf32jxCB3cd6KtV/Jx2JS/oX4u8Ciks/NXw5gf8eUdO4cWKNr/LZkyzmGqsX5G3vSnsAHYKGZymDXy3dKeNP/V42Oy9sC1+Kj/dyfy0o4PrtFdgz+hWr7M/1tZPWYVsJrvifyVtZ1ZKMMTySudUqPyK+hz1FOH9CBvPaflLBv36jRNf7PAtdio9P9hG7qvd1MZbDrZXoJb/qnqc+i0ecHrMNKYEI/9+eLJRyfmJZ/auStiFUGu3uIa36uz5bwmk8f5D6OIszdpjXAmcDekV83JuRfCJ4JfJwGMur4T0o4f54gm3eyDq4OXIeNdgFwBFC5j6qmOIgl2JG34oaucx062I4lmzQ4pv5sU0o4Nt+N6BgcG8l14dUR1eSiEl7vOwa5j4cH2KcFwGE1+8I+MX+fhzpOXx/APiXA/SWcQ2+vwfHZnbB3Rf9jU99WVa6DLAHnlPAcH61BHU7Ow10oZw/gd24FHg/8umMaGXuK+/EKoUNmN4MfPVn0er4LyG5B31qza+lS4APAfwfa/nED+J0UONdrPJDNjRkyZ51tsIvDZEvAufnFPaTjiK8v14Y+HHDbi8lGNg7konxF4Nd9CP2/RRzCVsSzzuj7CDsdQl/tRbYqRkhFLDF4cICAtK7G19QlgbZ78ABzwlmEn+rseGDHiI9JEvgaPxu4zWBnsIvFY2TzO4UU+6LRewFHB9z+GYO4sIZeGqhBHLceTyJsi2l/TCBbcqhqZbSmFnF+HYLKMHqAQf++Er4gdhD36i1/Qti+mqdv7gKrcu1J1vF3qPtBCc/x0YjP8Y8RrsP8SgZ2G7b3B28a+PXHsG5sbB8KMdyOnVnCc1xewDYMduXZP+JrfMjr6GCFXP7sCTaz/rfBrnwN6rkkStH+ADwQ+Dn2Al4b6TkQMlScRzb31kA9TvhpiqruZ7dL/o06Jm+i+ltLRwfe/grg5kFuYxKDnwNP4YPdL8nuzoTet1dHWLPxhF1V5kyyufEMdhEZawloka24UOdvTQN1LNloqVC+X8A2Lg9cgyPIJmeuyqn0f8mk0DoIu1B4XwJT6Ilfr2PwfdnszlKuvQb4e93AT4foNf69ZJM1h9AN/HBLLQcq3zhLAMCPCN9h+SQ2stxKxUJeiGYD82oQ7EZT7TqfsfbNqbJf6MwSPhOKWEJtL1SmwTREnEk23UfoEBVbY0nIa/wlwCMGu/Z6o7STJ8jm1wsdIN4b0WueyODn8NqcMwraztVspqm/IFX1szsSOCDS98QU4NCKnruM41FEsNsd1eXz6iGybjeh9+/kiOp1YH6NCeV7W/oHBrtqdFiCF32/hOeIqan+vYSb1uIJ4GcFbesFBt8XKtZgd0rk74mq9i90v8dngVsK2M4eqC7Brk9BpM2u8SH35U76MAekwa4aKyzBiy4jm3MtpBkUP+9VjG/6H1JsK1vo27FHU/6IthHEvyrJByv48jeCbILekK6imLnNbLGrV7D7HdmyfaG/lOwXQa1GBP5idjp9mLHAYFeN5ZbgRSlDp9Xu8DxkhtBN1p+l6NAd0nbAviUfgxOAbSJ/T+wAvL7k55xGuM7evYNdEQx25dpqkL/fQ/ipT0JPBtxXJ+Xv31C5oU8rehjsqmGL3cv9hGzutZBOBUZW/Do/E3Dbv2ALHWoHYC6DXyFgS8q+HRvi2/Qlgc7XMtWlf53BrnxFtKr/EFhTwpf3qrs5/XnAbZ8DPG+wi5ctdi/3HNnC4yFtQ7Uz+28NvCfg9k8PsM1uskEU7RLstgPeHODc/UiAAPx2yh3NHbp/3eNk/YMGa1sG34Kk8j1Ncf1/N2VHsrkgqzKFcBN8p/RjYJzBrnwrsMVuY9r9duzHCDdoYh5wTaBth+5nV+ZExe8Hhhe8zQvJ1hn934K3O4ryRvolhJ/ktajlpXb2Ullb7T6IImRr3e+BOwx28bqb8Ms11dHNQFfg53gTsFsFry0B/jTg9v8z4LZDB7v9gO1LOg4hbsOu7/Nydk32t6pjUNRt2O28VNbWbGBB4Od4G9Ws3jIReF/A7X+zP//YYFe+uyzBJoVutRtGNuKwbG8m3CCBx4CLA5+vDwcOvWWsTzoZmFrwNu8Fbsz/fF3+pa1IZY30K6PVtKiBE9t6mfQavxkdZC3zZfso4boILOzvF2yDXfnutgSbdB5Zn6WQPkL5U2x8KuC2v0P4iYRDt9qV0c/uwwG2eS4vb30/L8BzfKCE2oSu/70Uty60LXb1di59HAAwyJBVpgT4RMDtf5N+3uUz2JUrJXxTdJ2tIhv5E9K+hF/ovLc9CNehdyVbWDOwIFcE3n7oFqMGxd8mSYH/3uDvfkrxyyedWsIXkaNqdP7YYldvKzbyvinaZLK1qMvyJsK1rC8Bzh/IBU/h9AC3k03n8SFgJ+CXlmWzvk/4PohlfqP7NOEWmz8beKaE13B54GMSeg61NwC7FLzN68laonp7hOJHEe8R+IvItoSfS/CqArdli139lTGIosxr/F8E/jxc1d9fKmPOlx7CN72WYTnZ9A/rrcu/fTyfF/554FGyWw4PAPfnj5W+j/vlrvyD4HUBn+MksjnlQp+X4wk3aCIFvl3SMXkSuI1wa5gOB6YTbmRvyEETGwvbxwbY/2sD1Sb06h9pwWHXFrv6u52sT2rILyzvBT5XwufvwYS7I7OGQaz9nQZ+3OZ5HIVLAx7jLwQIXqHPy9NKqPkXA+7/r0s+f/5f4OPxNwHD9QsF7+saNr16xWiyfqJFPt8ywrVo/kfg41p015PLAu3nNTW/vv9nwGMYYs3o95Vwjf9QCXU/K+D+/3SgO+WtWMXoErLWz5BCN9UPJ7sNG8o3Sz4mdR1A8e4AoehXbPoW+CqKn9NuPPCOmtV9vSsD1EL19zOyOwF1vsbvQtgpTr5lsFM76QZ+HPg5Xg0cFHD7HyTcnHm3UWy/pb64hrBLAh1FmL6IZd6GXa8uc9qNpvgpYEIHu7GoHawt4Rr/WmCfgNv/DDAi0LavAG4x2Knd/ICsH2NIHw603QT4fMD9Xn9btEwrgZsCbn882Wi2Iu1J8SNunyGbBX5zZlP8tEavB3YteJszAn4wQda/uui+gQa79rrG9wTcfkK4NZfHAR8PuO+DuiNjsFOsHiPrFxjSKRS/xBTA8QFCynpPABdUdEzqtrzYhyl+YMD59G3ewKKndGhQ/MSroW/DdpEtt1b0B6raw0PAb0v48h7iTsCfEm4t53uA3xns1K5CD4vfIQ9hRftiwH0+g7C3RDfnssDbLzJoJIRZZeTcPv67swgzp12dgt2VAbZpi53X+P7Ylay1u0jDgc8G3OdvAy2DndrV5fm3l5CK7mA7HXhNoH1dA5xZ4fFoEnZlkCKDxizgVQG+Sc/t4799hOL7QR5ENudfUcH3yJoFu5GEaWFXdX4PLKrZNf49wO6B9nUpBfTRNdgpZilZP4yQjiebOLooXwq4r+cTfiTZ5vRQ/AS8ve1BcQNOQgw2ODvwvy/zdR0MbB3wWK4Fbih4m1uhdrzGh1495+0UO7H1XwXc1x+TzY9rsFNb+wlhJ5nsoLj5jvYm3LQUUN6ExJtTh352o8jmQiz6A6i/S/v8jOL7mH2AYgY8hL4NeyPZ/IFFGoHa9Rq/OuD2R1Bc/9Q3AIcH/OJ8RhEbMtgpdkuBCwM/x8coppP9Fwi3fNjVDGL4e42CXRGB40SK79h8Nf1fyD7EnHbbAG+uQbAL0b+uA7WjZ4CLS7jGF+GvA+7jL4H7DHYaKkJ3sN2PbF67wdiecEPrYRCTVRbsngEEnLIDRxVz121KrLdjZwU+Twx2iukafwiD7596KHBcHa7xBjvVwVyyjvshDbaD7afJJnwN4QHKX0Jsc64IuO1DgQmD+P0dAlx8VwE/H+DvhpjT7q0Mbs3Uncnm+AvlBWCOwU79cCPZ9DgxX+O/SLh1ledT4JyPBjv5jS7zHgY+R9YY4JMB9+3bhJ3IM6Zg12BwozVPCRAAfkG2XutAFT2n3Yj8fB2oowOfH9fSt7n+DHbqLfRAuQ8w8OUFdyVbnjCUQu/IGOxUF/8DPBtw+2MZeIf7jzG4FpTNWU7WuTgmlzHIeZa2YDC3Y6ucu25TzgoQzE+pqL59EWq5O4NdezuPsNMpTWDgg9s+R7ipdpZQcD9yg53qYhVwTuDnGEhT/TDCTlb5UwbXWhTC08CCgNsfaP+vqWS3cov0JIMfMBJiTrsZwAGRBrtQLboGu/a2soAvUVvykQH8zniKG3yxMWdQ8Khgg53q5HTCrpE6awAflidT/ES466UUNPw9gJCjY49kYFNbhBg0cR7QXcB2YhlEMTZA+O1tKXCrwU4D9L3A1/hjB3C9/iSD6/e7OWuB7xe9UYOd6mQxYUbb9dbfka2fC7gvl1J8x/s6BLvRwJQBfOi/N8C+FNWCEGJOu1Po//Q6rw4ckK4kXH9Qg137u4uwk6An9G/e0uHAnwfcnwvJ1v822GnIf6ML6cP9+AA5luyWWCjfivg4XEvYSUX7ezv2eLIRsUVaSHFzB4aY024X4Jh+/k4d568z2HmNL9LH+vGF6AMUtxrOxnwnxEYNdqqbXwKPBtz+jsCb+vhvvxBwPxYSvnVysEHlxoDb728ACXEb9qyCtxfD7ViDnWL3i8DX+F2B1/Xx3/5lwP2YTd/XnjbYqa11Az8K/Bx9GURxCNnyMqH8F2H7mhQh5O3Yo+n7nFGTyOZ2K1ILuCDAhfyugrf5Tvo+Tc8w4IiAx+zxAK/PYDc0r/E/juAa/2bgsID7EOyOjMFOdfQDYF3A7Z9A1nK3OSEnq3yW/q9LWoXLAm57O2CfPv7b9wIjA4TWRwK8rqLntNsqD3d9MYWBz9XYF1cE/jIyDHmNL+4L0ZamqAp5R+Yh4BKDnfTyloFfBW4Z+MBm/n/oySq/Rzb0P3bzCDu3YF/72YVYyi3UtAtnUfzggr6+/rrOX7degoaKx8gGj4Uygs0PtjqM/vdf7Y/vUsxoe4Od2kroDranbeb/fY6BTcfRF+sIMPw9kJ7AH+Z9CSL7UvwAlhcCfpt+lOL7of0JsFcEwe5KpPpc4zc3p92XAz7vSgJPOm+wU11dSdipQA5g4/2RQk9WeTFhbgGGErKfXV9a7D5M8S05/wusCPi6ih5EkQDv78O/mxnwNd1LtqaxVOS15Z6A25/KxqdV2pOBr0LU1/f/MwY76ZVSwrdsbayD7Z8TbrJKyNaFrdvFN5T9gO0LCDT9FXr2+59T/Jx2p24h4O5F1oUg5BctqehrfOj1Yzd2jf9Lwg3USQk0xYnBTu3iLLLbZqG8l5cvGj0S+IuAz3cjcHPNjsFi4P5A207YfCvTMfm36yI9StgJUiGbKubigre5L5sf8eptWNXRTwjb3/gDwKhe/z2JsHdk/gjcabCTNm0pBS+evIHxvLxJ/oPATgGf71s1PQ4hW+02F0hCDZroKaFmIea0O7WiYJeWEIblNT6ErYG39/rvT5Itu1fra7zBTnX33cDbX99UnwB/FfB5HiW7RVdHVwTc9qb62fVnmo/+OK+kml1P8XO+vYdNT/syK+BrWUiAZZGkXOhbl+sHUYwEPh3weRYBfzDYSVs2n0Czd+deQzaf2gnAQYED6rqaHoPLySb0DWEaL78dvt67Anyz7gJuL7FuRc9pNyk/Tzc0MfC5W9Zt2BYaqtf4ZsDtvx7Yg/B3ZP6rrHPYYKd2EHJYfEI28jLkZJWrgB/WuP7PUNyaqhsaDkzfyN+HWELs3JLrdhbF3/bdWF1mBr7WlxXsViCv8WFy0IcJe0dmKXBOWcUy2KkdXEDYiXI/Q9hbWecSePh7CcrsZ7cL2dxtReombF+ejQkxp92beeWqKSH71/UA15ZUr+e91A1Z/wM8F3D7XyJsq/aPy/xiYrBTO1hF8Qu29zYu8P5/tw2OQZnB7lSKX17q91TTT6zoQRQdvHJG/ZBfSuYF/sDtbbmXOq/xgYwO/OXn9DKLZbBTuziDevbB+SNwWxvU/7r84hsq2PUOch8K8BznVlS3EHPa9b4dOxzoDLj/V5RYK1vsvMbX8Rp/CeGmhDLYqa3dW/KHTFG+1Sb1Xw3cEGjbE4DJ+Z+PIFsVpOjA8OuK6hZiTrvDgUPzP29q8ElRriqxVstxAMXGDKP4+Rx7SyN5nYup53yJpV/jDXZqJ9+r2f4uIrsF2C7KuB0bYtDERYRrbeyLEHParW/VDHkbdi3ZtC1l6QYe9DL3MnvmYefEwHX3Gj8w88nuZhjspAH6NfVaZ/VbtFcLxGWBg90I4N0Btn1uxXULMafdh8j624UcOHEjYVd+2ZjbEWSj9U8DFpBNyRRST0Sv+1c1vMaXzmCndtJNfaYNeT6CQBHi2+nTgbY9i2yOtm0L3u6DVXyj3oii57TbAXgDm1+SbbCuqqBOC73MMS0/Z39I+IFd66+rXuP77ynKH2lvsFNb+iH1mOj3TNqvM3gr4If9HsCXA2z3XOLoQ3Q2xbfe/iOwfcB9rqK/U6hgtx3ZaiYx2w34KTCH8Gv/9tYTWR3qco3/Hlnf40qkgR/tMOKvHVwa8Bh/IbLXenEJ5/VgHt3AXm16nn088tpv+Ng/otr9sUZ1e4Hs1njZJgd8TXeSDTyJzb7Aj4A1FR3r30ZYk4sif3+s4ZXzSZamQTwjXqQivynF7BJKHv5ecjipi5uAuyPan7NqVLtryQZPlG0h4QZQHADcDHyTbBm2KiXA68hu5d0JfKyiIA1x3YqtyzX+AipcP9lgp3Z0JXH3xflWG9f+AeC+muxrbH0cQ8xpF/I9VpWQU9MMB/6SbMT631F8n84t2R34G7KpPa4gGyw0rOJjHeNtz6siv8ZXOul8A+cFUnuKtYNtJcPfS3ZZDfZxLdntnJisjnCfYgx2l5bwHNsCXyNrHTwLeGOggNUgm5vxn/Nrw4P5n/eO6FivjPQcPDPS/ZoNzK16J0Lft7ePXRyGUh87yCa1XUF8fS9OGQLn2snE30fs55HWbmYNavdcxa1II8laNst+3c8APwM+nYexsf3c7xHAPsDbgH8ha5FbVoPj/f1I3yuxXuNPqrowHXgrdqgYasd5GdnC0adFtE9P1ahFZjAuJxtJNyzifYx1qpkbyOa0OyDi2l1FtSMl15C1yP91yc+7NfDO/LH+mvpI/ngyD349ZANLtsqD30iyEbd7ALtG/p7YlBci3a9lwPnAn0a0Tw+R9aGu3HJb7IaEXw+xFjuAKZF9k/v7IXS+zY24BeKZ/AM3Vl+JvAXn0xHUaBeqGyU61B5fi/i9clhktYris7ARcRpXfVrsYm0NvIVslFsM1gA/GELn2+UR79sF+fGI1dnEN3dYbzGsyfwoxa+xq3q12AHcSja6PQYrgZ8Y7FSmkCObuiN+3bEMi690+LvB7mViX/Hj0UjC08Y8SfHLnw3Uv0V+7WkXKyPfv1iu8WeT3Q2IItit8Lz1zRlxaBysiyJ5s313iJ1v1wOrItyvxcTTirulD4lYA3ssLfS3095TB8VieeT7dyGwpOJ9SIHvxFIQg53Brggxf2teRfUTv14DNIfY+baabNh/bM6hHgOJYp3T7srI9uertO9k37F4NvL9WxPBNf4PZBNJRxPsvBVrsBus2Nft+x7Vztc4VFsVYrsdmwLn1SgYxziCOrZgt5JsMIezOwzdYAfZlCxe43sFu6c9bw12bR7s7q0wZDwI/GqInnOxTVQ8m/qsigHx3Y69j2xlkdj8lmxSX4XxTA328T6qW85wEZEtpdgg3Lp7ikvIfhLLavD6q+pg+23iHuEY0i1U3/elt3NrVr/1c9rF4sqIa/X3xDvpdFkeDbTd52ry+qu6xv8Xka3gZbDzW1cR6tBU/+sKzvUVRDL8vSJpRGFgNfWcHiOmMHpl5OfaKcCcIfpeux44nDBdq56tSQ0upfwW5aVk/Xaj0iDOpnUZ7IrWA/y45Oc8i/os6h5KLP3sflXTYxHLnHYp2YoTMXsBOJa4p9oJ4RfA68lax4teEGA52brKddACflTyc/6ISAegHogrTwwFrw14jHeqSQ12zC9SZcxA3iLuZaHKsgdxzAj/1hrX8A8R1O/2GtVrNGFX2onlsRb4u7yBZr3vFfwcdRtxvB1Z63wZ9e8G9oq1EGPyDyGDXXs7OOAxHlWjOlxY0pv+Uk+5Fy2q+APwKWB4jev3/ghCRN1GdncAXydr7WzHUHc7MG0jr/sTBT/PjTV8v/xPScfgf2MvxGKDXdvbIdDxXVKzOvxJSW/613vKveiMij8E/6vm9RtF1oG9yhq+o6a1ez3Zii/tEuhWk624sakv00cW/Hw/q+Exf01Jx+LooZxwDXZxSAjTRH1jDetwf+A3/ML8eZR5V8UfhtPaoIbfr7B+3cCkGtdue7K+UHVuvesm67O7xxZe65j83xb1vHVdMWdx4OMxrw5F+CuD3ZBwX4DjW7cpJHYhfD+7j3uqvczEgj9s+vO4o01q+OoKQ0W7jDTtJBs9WrdA9zNgcj9e550FPv9Xanicdy7hGn9KzAVY3+nyGj97hoSHA2zz3prV4DOE7W/1LPVZ3aAsS4Guip77nDap4Y1UN6fdlW1SwyZwFNkttEuJe7WKJ4FvAPuQtXgv7Mfv3lLgfjxWw+P86cDX+KeIc1WYVwS7+fnOqr09EmCbi2v0+scAHwv8HD/AZfo2poopKFptFrKrCqlXttm5OBs4gWzet+9E9Nm3nKxD/ruB3YAvM7DpyIoMdk/U7NiOJvwdk++RdWuqhX/OvxGupLgm5MVkfUMUh5OAq4HnCzi+T5NNKbBvjV7/pwjbPL8uvyDrlQ4hm0vuScq5fTUf+Ic2q+FOwAWE7z+0/vEgcD6wVZufmx3A8cCZeZAq81br/XlQeBMwsqDXcxDZxOhdDLxf9WP5l6Kda3YsPxH4eK0hmzYrapvq4L19/gG1W/4iJuSP8cC4/OdwXlp/9HmyW1BP5Redu8lu0a1FMWoAe+ehbF+yfmfbAdvm33jWf/NZxUsjX5eQLVlzZ/5Y31+vLhKy2xkHBnyOC4D3eXpt0d7AEXmLycH5B9EeA9zWuvwL6e3ArcDNZLfcVrR5Dbcm6zM2Na/fgWTzJo4d4PYeIesPvSAPBDcQbomq2B1ANnp+Wv44mGJu7T2Rn6c3k/VbvDn/ohM6tB6Qf7HagWwQzPrHhDz4rc0/ux8im5rotvzPdbQgf62hnAOcWtdgJ7Wb44HfBH6OVwM3WeoBGZeHu13IWqZ2ILt1PjJ/rMm/aKzMPyAfzoPHA3m4U3Y93xnYNa/hbnkNJ+bBZH2r8rL88UhexwdxhZQthaM9yPq77Zk3fGyb13V0r3+3Mg9KS/OfT5G1yD2QP1ZZyqDeCPw+8HPMAOZaaikOoWfv980uSdX5beBr/LWWWIrHQYRdXSXFW7CSVJX9CD9P4bsssxSPHwR+wz9KvZeskqQ6C726zQNkt+QlRWBrso70Id/0X7HMklSJSSVc4//aMkvx+ErgN/xKso7UkqTyfSnwNf6FvIFAUgSGk436C/mmP9MyS1IlOshGdYe8xp9umaV4vJ/wE4weapklqRLvCXx9bxF27lNJ/XRT4Df9ZZZYkipzQ+Br/O8ssRSPmYRvrXurZZakSnSWcI1/k2WW4nFh4Df8IrKl2SRJ5Ts/8DX+bq/xUjx2IVv/MOSb/i8ssyRVYucSrvGftMxSPL4R+A3/PDDeMktSJb4e+Br/HDDWMktxGAM8HfhN//8ssyRVYnQJ1/h/t8xSPD4V+A3fA+xtmSWpEp8IfI3vBvayzFIcEuCOwG/6n1tmSarMgsDX+IstsRSP4wk//P21llmSKvHGEq7xsyyzFI8/BH7DLyBrFZQkle+3ga/x8yyxFI+DyJZ/Cfmm/7BllqRK7EfWxznkNf4UyyzF4weB3/BPAaMssyRV4ozA1/gnvcZL8dgaWBH4Tf8PllmSKjGphGv831tmKR5fCfyGXwPsaJklqRJf8hovDR3DgYcDv+nPtsySVIkO4MHA1/izLLMUj/cTfvj7dMssSZV4TwnX+E7LLMXjpsBv+GstsSRV5gav8dLQMbOEb3LvssySVIlOr/HS0HJh4Df8A2T9OyRJ5Tvfa7w0dOwCrA38pv9ryyxJldjZa7w0tHwj8Bv+BbL58SRJ5fu613hp6BgDPB34Tf9dyyxJlRhdwjX+dMssxeNTgd/wLeAAyyxJlfhECdf4Ay2zFIcEuCPwm/43llmSKrMg8DX+t5ZYisfxhB/+/gbLLEmVeGMJ1/g3WmYpHn8I/Ia/i6xVUJJUvt8GvsbfDTQssxSHg8j6RoR803/CMktSJfYDegJf4z9pmaV4/CDwG/5ZYCvLLEmVOCPwNf45r/FSPLYGVgR+0/+bZZakSkwq4Rr/75ZZisdXAr/h1wG7W2ZJqsSXAl/ju4G9LLMUh+HAw4Hf9BdaZkmqRAfwYOBr/MWWWYrH+wk//H2mZZakSrynhGv8LMssxeOmwG/4piWWpMrcEPga3zWUiulcLorddmQjmR4NsO0lwOXA/7HMklSJbYClga/xXxlKBXUiVtXtArAfsGf+2IlstOzWwHhg1Ab/fhWwGngmfywB7gfuAxYDj1tSSYrG1vk1fq9BXOMfyK/xi4bqNf7/A8JG35wxsrmEAAAAJXRFWHRkYXRlOmNyZWF0ZQAyMDIxLTAyLTExVDA2OjE4OjMzKzAwOjAwixUDhgAAACV0RVh0ZGF0ZTptb2RpZnkAMjAyMS0wMi0xMVQwNjoxODozMyswMDowMPpIuzoAAAAASUVORK5CYII=;" parent="1" vertex="1">
          <mxGeometry x="260.95" y="-745.5" width="46.8" height="44.5" as="geometry" />
        </mxCell>
        <mxCell id="ORMudLoAq7WYr6hYme3h-53" value="Database Container" style="text;html=1;align=center;verticalAlign=middle;resizable=0;points=[];autosize=1;strokeColor=none;fillColor=none;" parent="1" vertex="1">
          <mxGeometry x="50" y="-901" width="130" height="30" as="geometry" />
        </mxCell>
        <mxCell id="ORMudLoAq7WYr6hYme3h-54" value="Backend Container" style="text;html=1;align=center;verticalAlign=middle;resizable=0;points=[];autosize=1;strokeColor=none;fillColor=none;" parent="1" vertex="1">
          <mxGeometry x="313" y="-901" width="130" height="30" as="geometry" />
        </mxCell>
        <mxCell id="ORMudLoAq7WYr6hYme3h-55" value="Frontend Container" style="text;html=1;align=center;verticalAlign=middle;resizable=0;points=[];autosize=1;strokeColor=none;fillColor=none;" parent="1" vertex="1">
          <mxGeometry x="570" y="-901" width="130" height="30" as="geometry" />
        </mxCell>
        <mxCell id="zRej2_4-RjxeAZbpyADj-1" value="" style="verticalLabelPosition=bottom;html=1;verticalAlign=top;align=center;strokeColor=none;fillColor=#00BEF2;shape=mxgraph.azure.code_file;pointerEvents=1;" parent="1" vertex="1">
          <mxGeometry x="323" y="-1130" width="37" height="40" as="geometry" />
        </mxCell>
      </root>
    </mxGraphModel>
  </diagram>
</mxfile>
